<ttFont>
    <TTGlyph name=".notdef" xMin="56" yMin="0" xMax="503" yMax="1123">
      <contour>
        <pt x="56" y="0" on="1"/>
        <pt x="56" y="1123" on="1"/>
        <pt x="503" y="1123" on="1"/>
        <pt x="503" y="0" on="1"/>
      </contour>
      <contour>
        <pt x="112" y="56" on="1"/>
        <pt x="447" y="56" on="1"/>
        <pt x="447" y="1067" on="1"/>
        <pt x="112" y="1067" on="1"/>
      </contour>
    </TTGlyph>
    <TTGlyph name="A" xMin="2" yMin="0" xMax="1277" yMax="1268">
      <contour>
        <pt x="750" y="1268" on="1"/>
        <pt x="1139" y="124" on="1"/>
        <pt x="1277" y="81" on="1"/>
        <pt x="1268" y="0" on="1"/>
        <pt x="753" y="0" on="1"/>
        <pt x="765" y="74" on="1"/>
        <pt x="936" y="129" on="1"/>
        <pt x="827" y="433" on="1"/>
        <pt x="408" y="433" on="1"/>
        <pt x="295" y="124" on="1"/>
        <pt x="482" y="81" on="1"/>
        <pt x="470" y="0" on="1"/>
        <pt x="2" y="0" on="1"/>
        <pt x="12" y="74" on="1"/>
        <pt x="160" y="129" on="1"/>
        <pt x="598" y="1237" on="1"/>
      </contour>
      <contour>
        <pt x="446" y="534" on="1"/>
        <pt x="798" y="534" on="1"/>
        <pt x="631" y="1034" on="1"/>
      </contour>
    </TTGlyph>
    <TTGlyph name="AE" xMin="7" yMin="0" xMax="1691" yMax="1244">
      <contour>
        <pt x="867" y="1059" on="1"/>
        <pt x="558" y="568" on="1"/>
        <pt x="865" y="568" on="1"/>
      </contour>
      <contour>
        <pt x="865" y="472" on="1"/>
        <pt x="505" y="472" on="1"/>
        <pt x="289" y="126" on="1"/>
        <pt x="475" y="82" on="1"/>
        <pt x="464" y="2" on="1"/>
        <pt x="7" y="2" on="1"/>
        <pt x="17" y="76" on="1"/>
        <pt x="153" y="131" on="1"/>
        <pt x="866" y="1244" on="1"/>
        <pt x="1643" y="1244" on="1"/>
        <pt x="1612" y="928" on="1"/>
        <pt x="1526" y="941" on="1"/>
        <pt x="1485" y="1152" on="1"/>
        <pt x="1047" y="1152" on="1"/>
        <pt x="1047" y="680" on="1"/>
        <pt x="1304" y="680" on="1"/>
        <pt x="1347" y="803" on="1"/>
        <pt x="1442" y="809" on="1"/>
        <pt x="1409" y="424" on="1"/>
        <pt x="1323" y="410" on="1"/>
        <pt x="1290" y="586" on="1"/>
        <pt x="1047" y="586" on="1"/>
        <pt x="1047" y="95" on="1"/>
        <pt x="1511" y="95" on="1"/>
        <pt x="1610" y="329" on="1"/>
        <pt x="1691" y="313" on="1"/>
        <pt x="1661" y="0" on="1"/>
        <pt x="1184" y="0" on="1"/>
        <pt x="744" y="0" on="1"/>
        <pt x="690" y="0" on="1"/>
        <pt x="698" y="74" on="1"/>
        <pt x="862" y="121" on="1"/>
        <pt x="865" y="121" on="1"/>
      </contour>
    </TTGlyph>
    <TTGlyph name="Aacute" xMin="2" yMin="0" xMax="1277" yMax="1711">
      <contour>
        <pt x="867" y="1671" on="1"/>
        <pt x="683" y="1354" on="1"/>
        <pt x="632" y="1386" on="1"/>
        <pt x="755" y="1711" on="1"/>
      </contour>
      <contour>
        <pt x="750" y="1268" on="1"/>
        <pt x="1139" y="124" on="1"/>
        <pt x="1277" y="81" on="1"/>
        <pt x="1268" y="0" on="1"/>
        <pt x="753" y="0" on="1"/>
        <pt x="765" y="74" on="1"/>
        <pt x="936" y="129" on="1"/>
        <pt x="827" y="433" on="1"/>
        <pt x="408" y="433" on="1"/>
        <pt x="295" y="124" on="1"/>
        <pt x="482" y="81" on="1"/>
        <pt x="470" y="0" on="1"/>
        <pt x="2" y="0" on="1"/>
        <pt x="12" y="74" on="1"/>
        <pt x="160" y="129" on="1"/>
        <pt x="598" y="1237" on="1"/>
      </contour>
      <contour>
        <pt x="446" y="534" on="1"/>
        <pt x="798" y="534" on="1"/>
        <pt x="631" y="1034" on="1"/>
      </contour>
    </TTGlyph>
    <TTGlyph name="Abreve" xMin="2" yMin="0" xMax="1277" yMax="1591">
      <contour>
        <pt x="491" y="1557" on="1"/>
        <pt x="537" y="1589" on="1"/>
        <pt x="545" y="1572" on="1"/>
        <pt x="562" y="1538" on="0"/>
        <pt x="633" y="1488" on="0"/>
        <pt x="680" y="1488" on="1"/>
        <pt x="770" y="1488" on="0"/>
        <pt x="822" y="1573" on="1"/>
        <pt x="832" y="1591" on="1"/>
        <pt x="873" y="1562" on="1"/>
        <pt x="867" y="1542" on="1"/>
        <pt x="844" y="1473" on="0"/>
        <pt x="748" y="1379" on="0"/>
        <pt x="680" y="1379" on="1"/>
        <pt x="606" y="1379" on="0"/>
        <pt x="512" y="1471" on="0"/>
        <pt x="496" y="1537" on="1"/>
      </contour>
      <contour>
        <pt x="750" y="1268" on="1"/>
        <pt x="1139" y="124" on="1"/>
        <pt x="1277" y="81" on="1"/>
        <pt x="1268" y="0" on="1"/>
        <pt x="753" y="0" on="1"/>
        <pt x="765" y="74" on="1"/>
        <pt x="936" y="129" on="1"/>
        <pt x="827" y="433" on="1"/>
        <pt x="408" y="433" on="1"/>
        <pt x="295" y="124" on="1"/>
        <pt x="482" y="81" on="1"/>
        <pt x="470" y="0" on="1"/>
        <pt x="2" y="0" on="1"/>
        <pt x="12" y="74" on="1"/>
        <pt x="160" y="129" on="1"/>
        <pt x="598" y="1237" on="1"/>
      </contour>
      <contour>
        <pt x="446" y="534" on="1"/>
        <pt x="798" y="534" on="1"/>
        <pt x="631" y="1034" on="1"/>
      </contour>
    </TTGlyph>
    <TTGlyph name="Acaron" xMin="2" yMin="0" xMax="1277" yMax="1589">
      <contour>
        <pt x="647" y="1362" on="1"/>
        <pt x="468" y="1527" on="1"/>
        <pt x="549" y="1589" on="1"/>
        <pt x="697" y="1445" on="1"/>
        <pt x="707" y="1445" on="1"/>
        <pt x="831" y="1586" on="1"/>
        <pt x="874" y="1555" on="1"/>
        <pt x="702" y="1376" on="1"/>
      </contour>
      <contour>
        <pt x="750" y="1268" on="1"/>
        <pt x="1139" y="124" on="1"/>
        <pt x="1277" y="81" on="1"/>
        <pt x="1268" y="0" on="1"/>
        <pt x="753" y="0" on="1"/>
        <pt x="765" y="74" on="1"/>
        <pt x="936" y="129" on="1"/>
        <pt x="827" y="433" on="1"/>
        <pt x="408" y="433" on="1"/>
        <pt x="295" y="124" on="1"/>
        <pt x="482" y="81" on="1"/>
        <pt x="470" y="0" on="1"/>
        <pt x="2" y="0" on="1"/>
        <pt x="12" y="74" on="1"/>
        <pt x="160" y="129" on="1"/>
        <pt x="598" y="1237" on="1"/>
      </contour>
      <contour>
        <pt x="446" y="534" on="1"/>
        <pt x="798" y="534" on="1"/>
        <pt x="631" y="1034" on="1"/>
      </contour>
    </TTGlyph>
    <TTGlyph name="Acircumflex" xMin="2" yMin="0" xMax="1277" yMax="1586">
      <contour>
        <pt x="706" y="1586" on="1"/>
        <pt x="883" y="1401" on="1"/>
        <pt x="834" y="1364" on="1"/>
        <pt x="670" y="1473" on="1"/>
        <pt x="660" y="1473" on="1"/>
        <pt x="521" y="1362" on="1"/>
        <pt x="483" y="1392" on="1"/>
        <pt x="651" y="1572" on="1"/>
      </contour>
      <contour>
        <pt x="750" y="1268" on="1"/>
        <pt x="1139" y="124" on="1"/>
        <pt x="1277" y="81" on="1"/>
        <pt x="1268" y="0" on="1"/>
        <pt x="753" y="0" on="1"/>
        <pt x="765" y="74" on="1"/>
        <pt x="936" y="129" on="1"/>
        <pt x="827" y="433" on="1"/>
        <pt x="408" y="433" on="1"/>
        <pt x="295" y="124" on="1"/>
        <pt x="482" y="81" on="1"/>
        <pt x="470" y="0" on="1"/>
        <pt x="2" y="0" on="1"/>
        <pt x="12" y="74" on="1"/>
        <pt x="160" y="129" on="1"/>
        <pt x="598" y="1237" on="1"/>
      </contour>
      <contour>
        <pt x="446" y="534" on="1"/>
        <pt x="798" y="534" on="1"/>
        <pt x="631" y="1034" on="1"/>
      </contour>
    </TTGlyph>
    <TTGlyph name="Adieresis" xMin="2" yMin="0" xMax="1277" yMax="1531">
      <contour>
        <pt x="813" y="1531" on="1"/>
        <pt x="848" y="1531" on="0"/>
        <pt x="901" y="1487" on="0"/>
        <pt x="901" y="1453" on="1"/>
        <pt x="901" y="1418" on="0"/>
        <pt x="848" y="1373" on="0"/>
        <pt x="813" y="1373" on="1"/>
        <pt x="779" y="1373" on="0"/>
        <pt x="729" y="1418" on="0"/>
        <pt x="729" y="1488" on="0"/>
        <pt x="780" y="1531" on="0"/>
      </contour>
      <contour>
        <pt x="545" y="1531" on="1"/>
        <pt x="580" y="1531" on="0"/>
        <pt x="631" y="1487" on="0"/>
        <pt x="631" y="1453" on="1"/>
        <pt x="631" y="1418" on="0"/>
        <pt x="580" y="1373" on="0"/>
        <pt x="545" y="1373" on="1"/>
        <pt x="511" y="1373" on="0"/>
        <pt x="461" y="1418" on="0"/>
        <pt x="461" y="1488" on="0"/>
        <pt x="512" y="1531" on="0"/>
      </contour>
      <contour>
        <pt x="750" y="1268" on="1"/>
        <pt x="1139" y="124" on="1"/>
        <pt x="1277" y="81" on="1"/>
        <pt x="1268" y="0" on="1"/>
        <pt x="753" y="0" on="1"/>
        <pt x="765" y="74" on="1"/>
        <pt x="936" y="129" on="1"/>
        <pt x="827" y="433" on="1"/>
        <pt x="408" y="433" on="1"/>
        <pt x="295" y="124" on="1"/>
        <pt x="482" y="81" on="1"/>
        <pt x="470" y="0" on="1"/>
        <pt x="2" y="0" on="1"/>
        <pt x="12" y="74" on="1"/>
        <pt x="160" y="129" on="1"/>
        <pt x="598" y="1237" on="1"/>
      </contour>
      <contour>
        <pt x="446" y="534" on="1"/>
        <pt x="798" y="534" on="1"/>
        <pt x="631" y="1034" on="1"/>
      </contour>
    </TTGlyph>
    <TTGlyph name="Agrave" xMin="2" yMin="0" xMax="1277" yMax="1703">
      <contour>
        <pt x="476" y="1665" on="1"/>
        <pt x="591" y="1703" on="1"/>
        <pt x="724" y="1369" on="1"/>
        <pt x="666" y="1334" on="1"/>
      </contour>
      <contour>
        <pt x="750" y="1268" on="1"/>
        <pt x="1139" y="124" on="1"/>
        <pt x="1277" y="81" on="1"/>
        <pt x="1268" y="0" on="1"/>
        <pt x="753" y="0" on="1"/>
        <pt x="765" y="74" on="1"/>
        <pt x="936" y="129" on="1"/>
        <pt x="827" y="433" on="1"/>
        <pt x="408" y="433" on="1"/>
        <pt x="295" y="124" on="1"/>
        <pt x="482" y="81" on="1"/>
        <pt x="470" y="0" on="1"/>
        <pt x="2" y="0" on="1"/>
        <pt x="12" y="74" on="1"/>
        <pt x="160" y="129" on="1"/>
        <pt x="598" y="1237" on="1"/>
      </contour>
      <contour>
        <pt x="446" y="534" on="1"/>
        <pt x="798" y="534" on="1"/>
        <pt x="631" y="1034" on="1"/>
      </contour>
    </TTGlyph>
    <TTGlyph name="Amacron" xMin="2" yMin="0" xMax="1277" yMax="1485">
      <contour>
        <pt x="468" y="1485" on="1"/>
        <pt x="909" y="1485" on="1"/>
        <pt x="896" y="1384" on="1"/>
        <pt x="455" y="1384" on="1"/>
      </contour>
      <contour>
        <pt x="750" y="1268" on="1"/>
        <pt x="1139" y="124" on="1"/>
        <pt x="1277" y="81" on="1"/>
        <pt x="1268" y="0" on="1"/>
        <pt x="753" y="0" on="1"/>
        <pt x="765" y="74" on="1"/>
        <pt x="936" y="129" on="1"/>
        <pt x="827" y="433" on="1"/>
        <pt x="408" y="433" on="1"/>
        <pt x="295" y="124" on="1"/>
        <pt x="482" y="81" on="1"/>
        <pt x="470" y="0" on="1"/>
        <pt x="2" y="0" on="1"/>
        <pt x="12" y="74" on="1"/>
        <pt x="160" y="129" on="1"/>
        <pt x="598" y="1237" on="1"/>
      </contour>
      <contour>
        <pt x="446" y="534" on="1"/>
        <pt x="798" y="534" on="1"/>
        <pt x="631" y="1034" on="1"/>
      </contour>
    </TTGlyph>
    <TTGlyph name="Aogonek" xMin="2" yMin="-387" xMax="1277" yMax="1268">
      <contour>
        <pt x="1126" y="-149" on="1"/>
        <pt x="1126" y="-200" on="0"/>
        <pt x="1186" y="-299" on="0"/>
        <pt x="1250" y="-336" on="1"/>
        <pt x="1216" y="-387" on="1"/>
        <pt x="1110" y="-376" on="0"/>
        <pt x="978" y="-274" on="0"/>
        <pt x="978" y="-208" on="1"/>
        <pt x="978" y="-163" on="0"/>
        <pt x="1031" y="-72" on="0"/>
        <pt x="1112" y="0" on="1"/>
        <pt x="753" y="0" on="1"/>
        <pt x="765" y="74" on="1"/>
        <pt x="936" y="129" on="1"/>
        <pt x="827" y="433" on="1"/>
        <pt x="408" y="433" on="1"/>
        <pt x="295" y="124" on="1"/>
        <pt x="482" y="81" on="1"/>
        <pt x="470" y="0" on="1"/>
        <pt x="2" y="0" on="1"/>
        <pt x="12" y="74" on="1"/>
        <pt x="160" y="129" on="1"/>
        <pt x="598" y="1237" on="1"/>
        <pt x="750" y="1268" on="1"/>
        <pt x="1139" y="124" on="1"/>
        <pt x="1277" y="81" on="1"/>
        <pt x="1268" y="0" on="1"/>
        <pt x="1186" y="0" on="1"/>
        <pt x="1126" y="-99" on="0"/>
      </contour>
      <contour>
        <pt x="446" y="534" on="1"/>
        <pt x="798" y="534" on="1"/>
        <pt x="631" y="1034" on="1"/>
      </contour>
    </TTGlyph>
    <TTGlyph name="Aring" xMin="2" yMin="0" xMax="1277" yMax="1704">
      <contour>
        <pt x="677" y="1656" on="1"/>
        <pt x="635" y="1656" on="0"/>
        <pt x="591" y="1590" on="0"/>
        <pt x="591" y="1544" on="1"/>
        <pt x="591" y="1494" on="0"/>
        <pt x="642" y="1416" on="0"/>
        <pt x="687" y="1416" on="1"/>
        <pt x="728" y="1416" on="0"/>
        <pt x="773" y="1475" on="0"/>
        <pt x="773" y="1529" on="1"/>
        <pt x="773" y="1580" on="0"/>
        <pt x="721" y="1656" on="0"/>
      </contour>
      <contour>
        <pt x="688" y="1704" on="1"/>
        <pt x="759" y="1704" on="0"/>
        <pt x="844" y="1614" on="0"/>
        <pt x="844" y="1542" on="1"/>
        <pt x="844" y="1471" on="0"/>
        <pt x="749" y="1367" on="0"/>
        <pt x="675" y="1367" on="1"/>
        <pt x="605" y="1367" on="0"/>
        <pt x="521" y="1457" on="0"/>
        <pt x="521" y="1532" on="1"/>
        <pt x="521" y="1602" on="0"/>
        <pt x="618" y="1704" on="0"/>
      </contour>
      <contour>
        <pt x="750" y="1268" on="1"/>
        <pt x="1139" y="124" on="1"/>
        <pt x="1277" y="81" on="1"/>
        <pt x="1268" y="0" on="1"/>
        <pt x="753" y="0" on="1"/>
        <pt x="765" y="74" on="1"/>
        <pt x="936" y="129" on="1"/>
        <pt x="827" y="433" on="1"/>
        <pt x="408" y="433" on="1"/>
        <pt x="295" y="124" on="1"/>
        <pt x="482" y="81" on="1"/>
        <pt x="470" y="0" on="1"/>
        <pt x="2" y="0" on="1"/>
        <pt x="12" y="74" on="1"/>
        <pt x="160" y="129" on="1"/>
        <pt x="598" y="1237" on="1"/>
      </contour>
      <contour>
        <pt x="446" y="534" on="1"/>
        <pt x="798" y="534" on="1"/>
        <pt x="631" y="1034" on="1"/>
      </contour>
    </TTGlyph>
    <TTGlyph name="Atilde" xMin="2" yMin="0" xMax="1277" yMax="1537">
      <contour>
        <pt x="447" y="1384" on="1"/>
        <pt x="449" y="1390" on="0"/>
        <pt x="453" y="1409" on="0"/>
        <pt x="475" y="1458" on="0"/>
        <pt x="500" y="1496" on="0"/>
        <pt x="544" y="1527" on="0"/>
        <pt x="568" y="1527" on="1"/>
        <pt x="578" y="1527" on="0"/>
        <pt x="582" y="1526" on="1"/>
        <pt x="804" y="1496" on="1"/>
        <pt x="809" y="1496" on="1"/>
        <pt x="821" y="1496" on="0"/>
        <pt x="848" y="1517" on="0"/>
        <pt x="856" y="1527" on="1"/>
        <pt x="864" y="1537" on="1"/>
        <pt x="912" y="1536" on="1"/>
        <pt x="910" y="1530" on="0"/>
        <pt x="905" y="1510" on="0"/>
        <pt x="882" y="1461" on="0"/>
        <pt x="855" y="1423" on="0"/>
        <pt x="809" y="1392" on="0"/>
        <pt x="782" y="1392" on="1"/>
        <pt x="774" y="1392" on="0"/>
        <pt x="770" y="1392" on="1"/>
        <pt x="547" y="1424" on="1"/>
        <pt x="544" y="1424" on="1"/>
        <pt x="531" y="1424" on="0"/>
        <pt x="502" y="1400" on="0"/>
        <pt x="493" y="1388" on="1"/>
        <pt x="484" y="1376" on="1"/>
      </contour>
      <contour>
        <pt x="750" y="1268" on="1"/>
        <pt x="1139" y="124" on="1"/>
        <pt x="1277" y="81" on="1"/>
        <pt x="1268" y="0" on="1"/>
        <pt x="753" y="0" on="1"/>
        <pt x="765" y="74" on="1"/>
        <pt x="936" y="129" on="1"/>
        <pt x="827" y="433" on="1"/>
        <pt x="408" y="433" on="1"/>
        <pt x="295" y="124" on="1"/>
        <pt x="482" y="81" on="1"/>
        <pt x="470" y="0" on="1"/>
        <pt x="2" y="0" on="1"/>
        <pt x="12" y="74" on="1"/>
        <pt x="160" y="129" on="1"/>
        <pt x="598" y="1237" on="1"/>
      </contour>
      <contour>
        <pt x="446" y="534" on="1"/>
        <pt x="798" y="534" on="1"/>
        <pt x="631" y="1034" on="1"/>
      </contour>
    </TTGlyph>
    <TTGlyph name="B" xMin="23" yMin="0" xMax="1073" yMax="1257">
      <contour>
        <pt x="616" y="605" on="1"/>
        <pt x="393" y="605" on="1"/>
        <pt x="393" y="95" on="1"/>
        <pt x="613" y="95" on="1"/>
        <pt x="736" y="95" on="0"/>
        <pt x="877" y="243" on="0"/>
        <pt x="877" y="347" on="1"/>
        <pt x="877" y="395" on="0"/>
        <pt x="844" y="485" on="0"/>
        <pt x="781" y="559" on="0"/>
        <pt x="679" y="605" on="0"/>
      </contour>
      <contour>
        <pt x="763" y="680" on="1"/>
        <pt x="763" y="672" on="1"/>
        <pt x="837" y="668" on="0"/>
        <pt x="958" y="613" on="0"/>
        <pt x="1033" y="530" on="0"/>
        <pt x="1073" y="431" on="0"/>
        <pt x="1073" y="380" on="1"/>
        <pt x="1073" y="321" on="0"/>
        <pt x="1040" y="215" on="0"/>
        <pt x="962" y="115" on="0"/>
        <pt x="843" y="44" on="0"/>
        <pt x="657" y="0" on="0"/>
        <pt x="540" y="0" on="1"/>
        <pt x="23" y="0" on="1"/>
        <pt x="33" y="74" on="1"/>
        <pt x="202" y="121" on="1"/>
        <pt x="202" y="1105" on="1"/>
        <pt x="30" y="1134" on="1"/>
        <pt x="39" y="1211" on="1"/>
        <pt x="352" y="1257" on="0"/>
        <pt x="532" y="1257" on="1"/>
        <pt x="644" y="1257" on="0"/>
        <pt x="817" y="1209" on="0"/>
        <pt x="919" y="1127" on="0"/>
        <pt x="970" y="1025" on="0"/>
        <pt x="970" y="966" on="1"/>
        <pt x="970" y="925" on="0"/>
        <pt x="948" y="846" on="0"/>
        <pt x="903" y="767" on="0"/>
        <pt x="820" y="701" on="0"/>
      </contour>
      <contour>
        <pt x="393" y="1165" on="1"/>
        <pt x="393" y="688" on="1"/>
        <pt x="651" y="688" on="1"/>
        <pt x="782" y="743" on="0"/>
        <pt x="781" y="910" on="1"/>
        <pt x="781" y="949" on="0"/>
        <pt x="764" y="1020" on="0"/>
        <pt x="720" y="1090" on="0"/>
        <pt x="652" y="1140" on="0"/>
        <pt x="542" y="1171" on="0"/>
        <pt x="472" y="1171" on="1"/>
        <pt x="428" y="1172" on="0"/>
      </contour>
    </TTGlyph>
    <TTGlyph name="C" xMin="49" yMin="-25" xMax="1103" yMax="1270">
      <contour>
        <pt x="264" y="659" on="1"/>
        <pt x="264" y="529" on="0"/>
        <pt x="339" y="317" on="0"/>
        <pt x="466" y="183" on="0"/>
        <pt x="628" y="111" on="0"/>
        <pt x="718" y="111" on="1"/>
        <pt x="813" y="111" on="0"/>
        <pt x="997" y="196" on="0"/>
        <pt x="1067" y="261" on="1"/>
        <pt x="1103" y="185" on="1"/>
        <pt x="1035" y="103" on="0"/>
        <pt x="785" y="-25" on="0"/>
        <pt x="641" y="-25" on="1"/>
        <pt x="524" y="-25" on="0"/>
        <pt x="313" y="57" on="0"/>
        <pt x="147" y="207" on="0"/>
        <pt x="49" y="445" on="0"/>
        <pt x="49" y="590" on="1"/>
        <pt x="49" y="655" on="0"/>
        <pt x="72" y="786" on="0"/>
        <pt x="123" y="921" on="0"/>
        <pt x="195" y="1042" on="0"/>
        <pt x="301" y="1148" on="0"/>
        <pt x="429" y="1226" on="0"/>
        <pt x="598" y="1270" on="0"/>
        <pt x="693" y="1270" on="1"/>
        <pt x="922" y="1270" on="0"/>
        <pt x="1055" y="1170" on="1"/>
        <pt x="1024" y="837" on="1"/>
        <pt x="936" y="850" on="1"/>
        <pt x="895" y="1070" on="1"/>
        <pt x="814" y="1174" on="0"/>
        <pt x="636" y="1175" on="1"/>
        <pt x="476" y="1175" on="0"/>
        <pt x="264" y="895" on="0"/>
      </contour>
    </TTGlyph>
    <TTGlyph name="Cacute" xMin="49" yMin="-25" xMax="1103" yMax="1711">
      <contour>
        <pt x="827" y="1671" on="1"/>
        <pt x="644" y="1354" on="1"/>
        <pt x="593" y="1386" on="1"/>
        <pt x="716" y="1711" on="1"/>
      </contour>
      <contour>
        <pt x="264" y="659" on="1"/>
        <pt x="264" y="529" on="0"/>
        <pt x="339" y="317" on="0"/>
        <pt x="466" y="183" on="0"/>
        <pt x="628" y="111" on="0"/>
        <pt x="718" y="111" on="1"/>
        <pt x="813" y="111" on="0"/>
        <pt x="997" y="196" on="0"/>
        <pt x="1067" y="261" on="1"/>
        <pt x="1103" y="185" on="1"/>
        <pt x="1035" y="103" on="0"/>
        <pt x="785" y="-25" on="0"/>
        <pt x="641" y="-25" on="1"/>
        <pt x="524" y="-25" on="0"/>
        <pt x="313" y="57" on="0"/>
        <pt x="147" y="207" on="0"/>
        <pt x="49" y="445" on="0"/>
        <pt x="49" y="590" on="1"/>
        <pt x="49" y="655" on="0"/>
        <pt x="72" y="786" on="0"/>
        <pt x="123" y="921" on="0"/>
        <pt x="195" y="1042" on="0"/>
        <pt x="301" y="1148" on="0"/>
        <pt x="429" y="1226" on="0"/>
        <pt x="598" y="1270" on="0"/>
        <pt x="693" y="1270" on="1"/>
        <pt x="922" y="1270" on="0"/>
        <pt x="1055" y="1170" on="1"/>
        <pt x="1024" y="837" on="1"/>
        <pt x="936" y="850" on="1"/>
        <pt x="895" y="1070" on="1"/>
        <pt x="814" y="1174" on="0"/>
        <pt x="636" y="1175" on="1"/>
        <pt x="476" y="1175" on="0"/>
        <pt x="264" y="895" on="0"/>
      </contour>
    </TTGlyph>
    <TTGlyph name="Ccaron" xMin="49" yMin="-25" xMax="1103" yMax="1589">
      <contour>
        <pt x="641" y="1362" on="1"/>
        <pt x="461" y="1527" on="1"/>
        <pt x="542" y="1589" on="1"/>
        <pt x="691" y="1445" on="1"/>
        <pt x="701" y="1445" on="1"/>
        <pt x="824" y="1586" on="1"/>
        <pt x="868" y="1555" on="1"/>
        <pt x="696" y="1376" on="1"/>
      </contour>
      <contour>
        <pt x="264" y="659" on="1"/>
        <pt x="264" y="529" on="0"/>
        <pt x="339" y="317" on="0"/>
        <pt x="466" y="183" on="0"/>
        <pt x="628" y="111" on="0"/>
        <pt x="718" y="111" on="1"/>
        <pt x="813" y="111" on="0"/>
        <pt x="997" y="196" on="0"/>
        <pt x="1067" y="261" on="1"/>
        <pt x="1103" y="185" on="1"/>
        <pt x="1035" y="103" on="0"/>
        <pt x="785" y="-25" on="0"/>
        <pt x="641" y="-25" on="1"/>
        <pt x="524" y="-25" on="0"/>
        <pt x="313" y="57" on="0"/>
        <pt x="147" y="207" on="0"/>
        <pt x="49" y="445" on="0"/>
        <pt x="49" y="590" on="1"/>
        <pt x="49" y="655" on="0"/>
        <pt x="72" y="786" on="0"/>
        <pt x="123" y="921" on="0"/>
        <pt x="195" y="1042" on="0"/>
        <pt x="301" y="1148" on="0"/>
        <pt x="429" y="1226" on="0"/>
        <pt x="598" y="1270" on="0"/>
        <pt x="693" y="1270" on="1"/>
        <pt x="922" y="1270" on="0"/>
        <pt x="1055" y="1170" on="1"/>
        <pt x="1024" y="837" on="1"/>
        <pt x="936" y="850" on="1"/>
        <pt x="895" y="1070" on="1"/>
        <pt x="814" y="1174" on="0"/>
        <pt x="636" y="1175" on="1"/>
        <pt x="476" y="1175" on="0"/>
        <pt x="264" y="895" on="0"/>
      </contour>
    </TTGlyph>
    <TTGlyph name="Ccedilla" xMin="49" yMin="-390" xMax="1103" yMax="1270">
      <contour>
        <pt x="692" y="-76" on="1"/>
        <pt x="781" y="-153" on="0"/>
        <pt x="781" y="-226" on="1"/>
        <pt x="781" y="-330" on="0"/>
        <pt x="581" y="-390" on="1"/>
        <pt x="561" y="-331" on="1"/>
        <pt x="602" y="-317" on="0"/>
        <pt x="647" y="-271" on="0"/>
        <pt x="647" y="-248" on="1"/>
        <pt x="647" y="-208" on="0"/>
        <pt x="574" y="-137" on="1"/>
        <pt x="652" y="-25" on="1"/>
        <pt x="641" y="-25" on="1"/>
        <pt x="524" y="-25" on="0"/>
        <pt x="313" y="57" on="0"/>
        <pt x="147" y="207" on="0"/>
        <pt x="49" y="445" on="0"/>
        <pt x="49" y="590" on="1"/>
        <pt x="49" y="655" on="0"/>
        <pt x="72" y="786" on="0"/>
        <pt x="123" y="921" on="0"/>
        <pt x="195" y="1042" on="0"/>
        <pt x="301" y="1148" on="0"/>
        <pt x="429" y="1226" on="0"/>
        <pt x="598" y="1270" on="0"/>
        <pt x="693" y="1270" on="1"/>
        <pt x="922" y="1270" on="0"/>
        <pt x="1055" y="1170" on="1"/>
        <pt x="1024" y="837" on="1"/>
        <pt x="936" y="850" on="1"/>
        <pt x="895" y="1070" on="1"/>
        <pt x="814" y="1174" on="0"/>
        <pt x="636" y="1175" on="1"/>
        <pt x="476" y="1175" on="0"/>
        <pt x="264" y="895" on="0"/>
        <pt x="264" y="659" on="1"/>
        <pt x="264" y="529" on="0"/>
        <pt x="339" y="317" on="0"/>
        <pt x="466" y="183" on="0"/>
        <pt x="628" y="111" on="0"/>
        <pt x="718" y="111" on="1"/>
        <pt x="813" y="111" on="0"/>
        <pt x="997" y="196" on="0"/>
        <pt x="1067" y="261" on="1"/>
        <pt x="1103" y="185" on="1"/>
        <pt x="1046" y="117" on="0"/>
        <pt x="849" y="1" on="0"/>
        <pt x="732" y="-17" on="1"/>
      </contour>
    </TTGlyph>
    <TTGlyph name="Cdotaccent" xMin="49" yMin="-25" xMax="1103" yMax="1592">
      <contour>
        <pt x="691" y="1592" on="1"/>
        <pt x="741" y="1592" on="0"/>
        <pt x="813" y="1526" on="0"/>
        <pt x="813" y="1478" on="1"/>
        <pt x="813" y="1428" on="0"/>
        <pt x="740" y="1355" on="0"/>
        <pt x="642" y="1355" on="0"/>
        <pt x="572" y="1429" on="0"/>
        <pt x="572" y="1480" on="1"/>
        <pt x="572" y="1528" on="0"/>
        <pt x="643" y="1592" on="0"/>
      </contour>
      <contour>
        <pt x="264" y="659" on="1"/>
        <pt x="264" y="529" on="0"/>
        <pt x="339" y="317" on="0"/>
        <pt x="466" y="183" on="0"/>
        <pt x="628" y="111" on="0"/>
        <pt x="718" y="111" on="1"/>
        <pt x="813" y="111" on="0"/>
        <pt x="997" y="196" on="0"/>
        <pt x="1067" y="261" on="1"/>
        <pt x="1103" y="185" on="1"/>
        <pt x="1035" y="103" on="0"/>
        <pt x="785" y="-25" on="0"/>
        <pt x="641" y="-25" on="1"/>
        <pt x="524" y="-25" on="0"/>
        <pt x="313" y="57" on="0"/>
        <pt x="147" y="207" on="0"/>
        <pt x="49" y="445" on="0"/>
        <pt x="49" y="590" on="1"/>
        <pt x="49" y="655" on="0"/>
        <pt x="72" y="786" on="0"/>
        <pt x="123" y="921" on="0"/>
        <pt x="195" y="1042" on="0"/>
        <pt x="301" y="1148" on="0"/>
        <pt x="429" y="1226" on="0"/>
        <pt x="598" y="1270" on="0"/>
        <pt x="693" y="1270" on="1"/>
        <pt x="922" y="1270" on="0"/>
        <pt x="1055" y="1170" on="1"/>
        <pt x="1024" y="837" on="1"/>
        <pt x="936" y="850" on="1"/>
        <pt x="895" y="1070" on="1"/>
        <pt x="814" y="1174" on="0"/>
        <pt x="636" y="1175" on="1"/>
        <pt x="476" y="1175" on="0"/>
        <pt x="264" y="895" on="0"/>
      </contour>
    </TTGlyph>
    <TTGlyph name="D" xMin="18" yMin="0" xMax="1275" yMax="1258">
      <contour>
        <pt x="395" y="1151" on="1"/>
        <pt x="395" y="104" on="1"/>
        <pt x="540" y="104" on="1"/>
        <pt x="669" y="104" on="0"/>
        <pt x="873" y="183" on="0"/>
        <pt x="999" y="319" on="0"/>
        <pt x="1063" y="496" on="0"/>
        <pt x="1063" y="598" on="1"/>
        <pt x="1063" y="691" on="0"/>
        <pt x="1021" y="856" on="0"/>
        <pt x="933" y="997" on="0"/>
        <pt x="804" y="1099" on="0"/>
        <pt x="624" y="1156" on="0"/>
        <pt x="517" y="1156" on="1"/>
        <pt x="436" y="1156" on="0"/>
      </contour>
      <contour>
        <pt x="1275" y="654" on="1"/>
        <pt x="1275" y="550" on="0"/>
        <pt x="1216" y="359" on="0"/>
        <pt x="1091" y="193" on="0"/>
        <pt x="913" y="71" on="0"/>
        <pt x="661" y="0" on="0"/>
        <pt x="512" y="0" on="1"/>
        <pt x="18" y="0" on="1"/>
        <pt x="31" y="74" on="1"/>
        <pt x="203" y="129" on="1"/>
        <pt x="203" y="1103" on="1"/>
        <pt x="31" y="1133" on="1"/>
        <pt x="39" y="1209" on="1"/>
        <pt x="349" y="1258" on="0"/>
        <pt x="554" y="1258" on="1"/>
        <pt x="672" y="1258" on="0"/>
        <pt x="869" y="1224" on="0"/>
        <pt x="1016" y="1162" on="0"/>
        <pt x="1131" y="1073" on="0"/>
        <pt x="1206" y="970" on="0"/>
        <pt x="1254" y="847" on="0"/>
        <pt x="1275" y="722" on="0"/>
      </contour>
    </TTGlyph>
    <TTGlyph name="Dcaron" xMin="18" yMin="0" xMax="1275" yMax="1589">
      <contour>
        <pt x="597" y="1362" on="1"/>
        <pt x="418" y="1527" on="1"/>
        <pt x="498" y="1589" on="1"/>
        <pt x="647" y="1445" on="1"/>
        <pt x="657" y="1445" on="1"/>
        <pt x="781" y="1586" on="1"/>
        <pt x="824" y="1555" on="1"/>
        <pt x="652" y="1376" on="1"/>
      </contour>
      <contour>
        <pt x="395" y="1151" on="1"/>
        <pt x="395" y="104" on="1"/>
        <pt x="540" y="104" on="1"/>
        <pt x="669" y="104" on="0"/>
        <pt x="873" y="183" on="0"/>
        <pt x="999" y="319" on="0"/>
        <pt x="1063" y="496" on="0"/>
        <pt x="1063" y="598" on="1"/>
        <pt x="1063" y="691" on="0"/>
        <pt x="1021" y="856" on="0"/>
        <pt x="933" y="997" on="0"/>
        <pt x="804" y="1099" on="0"/>
        <pt x="624" y="1156" on="0"/>
        <pt x="517" y="1156" on="1"/>
        <pt x="436" y="1156" on="0"/>
      </contour>
      <contour>
        <pt x="1275" y="654" on="1"/>
        <pt x="1275" y="550" on="0"/>
        <pt x="1216" y="359" on="0"/>
        <pt x="1091" y="193" on="0"/>
        <pt x="913" y="71" on="0"/>
        <pt x="661" y="0" on="0"/>
        <pt x="512" y="0" on="1"/>
        <pt x="18" y="0" on="1"/>
        <pt x="31" y="74" on="1"/>
        <pt x="203" y="129" on="1"/>
        <pt x="203" y="1103" on="1"/>
        <pt x="31" y="1133" on="1"/>
        <pt x="39" y="1209" on="1"/>
        <pt x="349" y="1258" on="0"/>
        <pt x="554" y="1258" on="1"/>
        <pt x="672" y="1258" on="0"/>
        <pt x="869" y="1224" on="0"/>
        <pt x="1016" y="1162" on="0"/>
        <pt x="1131" y="1073" on="0"/>
        <pt x="1206" y="970" on="0"/>
        <pt x="1254" y="847" on="0"/>
        <pt x="1275" y="722" on="0"/>
      </contour>
    </TTGlyph>
    <TTGlyph name="Dcroat" xMin="18" yMin="0" xMax="1288" yMax="1260">
      <contour>
        <pt x="1288" y="659" on="1"/>
        <pt x="1288" y="560" on="0"/>
        <pt x="1226" y="370" on="0"/>
        <pt x="1100" y="202" on="0"/>
        <pt x="922" y="74" on="0"/>
        <pt x="674" y="0" on="0"/>
        <pt x="531" y="0" on="1"/>
        <pt x="18" y="0" on="1"/>
        <pt x="31" y="74" on="1"/>
        <pt x="203" y="129" on="1"/>
        <pt x="203" y="570" on="1"/>
        <pt x="23" y="555" on="1"/>
        <pt x="35" y="647" on="1"/>
        <pt x="203" y="660" on="1"/>
        <pt x="203" y="1105" on="1"/>
        <pt x="31" y="1134" on="1"/>
        <pt x="39" y="1211" on="1"/>
        <pt x="349" y="1260" on="0"/>
        <pt x="554" y="1260" on="1"/>
        <pt x="718" y="1260" on="0"/>
        <pt x="973" y="1193" on="0"/>
        <pt x="1138" y="1082" on="0"/>
        <pt x="1244" y="924" on="0"/>
        <pt x="1288" y="756" on="0"/>
      </contour>
      <contour>
        <pt x="395" y="582" on="1"/>
        <pt x="395" y="104" on="1"/>
        <pt x="606" y="104" on="1"/>
        <pt x="725" y="104" on="0"/>
        <pt x="909" y="185" on="0"/>
        <pt x="1018" y="326" on="0"/>
        <pt x="1073" y="499" on="0"/>
        <pt x="1073" y="598" on="1"/>
        <pt x="1073" y="715" on="0"/>
        <pt x="1003" y="915" on="0"/>
        <pt x="868" y="1069" on="0"/>
        <pt x="653" y="1157" on="0"/>
        <pt x="517" y="1157" on="1"/>
        <pt x="450" y="1157" on="0"/>
        <pt x="395" y="1151" on="1"/>
        <pt x="395" y="672" on="1"/>
        <pt x="652" y="693" on="1"/>
        <pt x="641" y="601" on="1"/>
      </contour>
    </TTGlyph>
    <TTGlyph name="E" xMin="25" yMin="0" xMax="1077" yMax="1244">
      <contour>
        <pt x="35" y="1244" on="1"/>
        <pt x="1031" y="1244" on="1"/>
        <pt x="999" y="924" on="1"/>
        <pt x="913" y="938" on="1"/>
        <pt x="872" y="1152" on="1"/>
        <pt x="400" y="1152" on="1"/>
        <pt x="400" y="677" on="1"/>
        <pt x="690" y="677" on="1"/>
        <pt x="733" y="796" on="1"/>
        <pt x="827" y="809" on="1"/>
        <pt x="795" y="421" on="1"/>
        <pt x="708" y="408" on="1"/>
        <pt x="675" y="583" on="1"/>
        <pt x="400" y="583" on="1"/>
        <pt x="400" y="95" on="1"/>
        <pt x="897" y="95" on="1"/>
        <pt x="994" y="326" on="1"/>
        <pt x="1077" y="313" on="1"/>
        <pt x="1047" y="0" on="1"/>
        <pt x="31" y="0" on="1"/>
        <pt x="39" y="74" on="1"/>
        <pt x="206" y="121" on="1"/>
        <pt x="206" y="1126" on="1"/>
        <pt x="25" y="1168" on="1"/>
      </contour>
    </TTGlyph>
    <TTGlyph name="Eacute" xMin="25" yMin="0" xMax="1077" yMax="1711">
      <contour>
        <pt x="726" y="1671" on="1"/>
        <pt x="543" y="1354" on="1"/>
        <pt x="492" y="1386" on="1"/>
        <pt x="614" y="1711" on="1"/>
      </contour>
      <contour>
        <pt x="35" y="1244" on="1"/>
        <pt x="1031" y="1244" on="1"/>
        <pt x="999" y="924" on="1"/>
        <pt x="913" y="938" on="1"/>
        <pt x="872" y="1152" on="1"/>
        <pt x="400" y="1152" on="1"/>
        <pt x="400" y="677" on="1"/>
        <pt x="690" y="677" on="1"/>
        <pt x="733" y="796" on="1"/>
        <pt x="827" y="809" on="1"/>
        <pt x="795" y="421" on="1"/>
        <pt x="708" y="408" on="1"/>
        <pt x="675" y="583" on="1"/>
        <pt x="400" y="583" on="1"/>
        <pt x="400" y="95" on="1"/>
        <pt x="897" y="95" on="1"/>
        <pt x="994" y="326" on="1"/>
        <pt x="1077" y="313" on="1"/>
        <pt x="1047" y="0" on="1"/>
        <pt x="31" y="0" on="1"/>
        <pt x="39" y="74" on="1"/>
        <pt x="206" y="121" on="1"/>
        <pt x="206" y="1126" on="1"/>
        <pt x="25" y="1168" on="1"/>
      </contour>
    </TTGlyph>
    <TTGlyph name="Ecaron" xMin="25" yMin="0" xMax="1077" yMax="1589">
      <contour>
        <pt x="540" y="1362" on="1"/>
        <pt x="360" y="1527" on="1"/>
        <pt x="441" y="1589" on="1"/>
        <pt x="590" y="1445" on="1"/>
        <pt x="600" y="1445" on="1"/>
        <pt x="723" y="1586" on="1"/>
        <pt x="767" y="1555" on="1"/>
        <pt x="595" y="1376" on="1"/>
      </contour>
      <contour>
        <pt x="35" y="1244" on="1"/>
        <pt x="1031" y="1244" on="1"/>
        <pt x="999" y="924" on="1"/>
        <pt x="913" y="938" on="1"/>
        <pt x="872" y="1152" on="1"/>
        <pt x="400" y="1152" on="1"/>
        <pt x="400" y="677" on="1"/>
        <pt x="690" y="677" on="1"/>
        <pt x="733" y="796" on="1"/>
        <pt x="827" y="809" on="1"/>
        <pt x="795" y="421" on="1"/>
        <pt x="708" y="408" on="1"/>
        <pt x="675" y="583" on="1"/>
        <pt x="400" y="583" on="1"/>
        <pt x="400" y="95" on="1"/>
        <pt x="897" y="95" on="1"/>
        <pt x="994" y="326" on="1"/>
        <pt x="1077" y="313" on="1"/>
        <pt x="1047" y="0" on="1"/>
        <pt x="31" y="0" on="1"/>
        <pt x="39" y="74" on="1"/>
        <pt x="206" y="121" on="1"/>
        <pt x="206" y="1126" on="1"/>
        <pt x="25" y="1168" on="1"/>
      </contour>
    </TTGlyph>
    <TTGlyph name="Ecircumflex" xMin="25" yMin="0" xMax="1077" yMax="1581">
      <contour>
        <pt x="634" y="1581" on="1"/>
        <pt x="812" y="1396" on="1"/>
        <pt x="762" y="1359" on="1"/>
        <pt x="599" y="1468" on="1"/>
        <pt x="589" y="1468" on="1"/>
        <pt x="449" y="1357" on="1"/>
        <pt x="411" y="1388" on="1"/>
        <pt x="579" y="1567" on="1"/>
      </contour>
      <contour>
        <pt x="35" y="1244" on="1"/>
        <pt x="1031" y="1244" on="1"/>
        <pt x="999" y="924" on="1"/>
        <pt x="913" y="938" on="1"/>
        <pt x="872" y="1152" on="1"/>
        <pt x="400" y="1152" on="1"/>
        <pt x="400" y="677" on="1"/>
        <pt x="690" y="677" on="1"/>
        <pt x="733" y="796" on="1"/>
        <pt x="827" y="809" on="1"/>
        <pt x="795" y="421" on="1"/>
        <pt x="708" y="408" on="1"/>
        <pt x="675" y="583" on="1"/>
        <pt x="400" y="583" on="1"/>
        <pt x="400" y="95" on="1"/>
        <pt x="897" y="95" on="1"/>
        <pt x="994" y="326" on="1"/>
        <pt x="1077" y="313" on="1"/>
        <pt x="1047" y="0" on="1"/>
        <pt x="31" y="0" on="1"/>
        <pt x="39" y="74" on="1"/>
        <pt x="206" y="121" on="1"/>
        <pt x="206" y="1126" on="1"/>
        <pt x="25" y="1168" on="1"/>
      </contour>
    </TTGlyph>
    <TTGlyph name="Edieresis" xMin="25" yMin="0" xMax="1077" yMax="1531">
      <contour>
        <pt x="705" y="1531" on="1"/>
        <pt x="740" y="1531" on="0"/>
        <pt x="793" y="1487" on="0"/>
        <pt x="793" y="1453" on="1"/>
        <pt x="793" y="1418" on="0"/>
        <pt x="740" y="1373" on="0"/>
        <pt x="705" y="1373" on="1"/>
        <pt x="671" y="1373" on="0"/>
        <pt x="621" y="1418" on="0"/>
        <pt x="621" y="1488" on="0"/>
        <pt x="672" y="1531" on="0"/>
      </contour>
      <contour>
        <pt x="438" y="1531" on="1"/>
        <pt x="473" y="1531" on="0"/>
        <pt x="523" y="1487" on="0"/>
        <pt x="523" y="1453" on="1"/>
        <pt x="523" y="1418" on="0"/>
        <pt x="472" y="1373" on="0"/>
        <pt x="404" y="1373" on="0"/>
        <pt x="354" y="1418" on="0"/>
        <pt x="354" y="1488" on="0"/>
        <pt x="405" y="1531" on="0"/>
      </contour>
      <contour>
        <pt x="35" y="1244" on="1"/>
        <pt x="1031" y="1244" on="1"/>
        <pt x="999" y="924" on="1"/>
        <pt x="913" y="938" on="1"/>
        <pt x="872" y="1152" on="1"/>
        <pt x="400" y="1152" on="1"/>
        <pt x="400" y="677" on="1"/>
        <pt x="690" y="677" on="1"/>
        <pt x="733" y="796" on="1"/>
        <pt x="827" y="809" on="1"/>
        <pt x="795" y="421" on="1"/>
        <pt x="708" y="408" on="1"/>
        <pt x="675" y="583" on="1"/>
        <pt x="400" y="583" on="1"/>
        <pt x="400" y="95" on="1"/>
        <pt x="897" y="95" on="1"/>
        <pt x="994" y="326" on="1"/>
        <pt x="1077" y="313" on="1"/>
        <pt x="1047" y="0" on="1"/>
        <pt x="31" y="0" on="1"/>
        <pt x="39" y="74" on="1"/>
        <pt x="206" y="121" on="1"/>
        <pt x="206" y="1126" on="1"/>
        <pt x="25" y="1168" on="1"/>
      </contour>
    </TTGlyph>
    <TTGlyph name="Edotaccent" xMin="25" yMin="0" xMax="1077" yMax="1571">
      <contour>
        <pt x="680" y="1464" on="1"/>
        <pt x="680" y="1419" on="0"/>
        <pt x="617" y="1356" on="0"/>
        <pt x="572" y="1356" on="1"/>
        <pt x="528" y="1356" on="0"/>
        <pt x="466" y="1420" on="0"/>
        <pt x="466" y="1508" on="0"/>
        <pt x="528" y="1571" on="0"/>
        <pt x="616" y="1571" on="0"/>
        <pt x="680" y="1508" on="0"/>
      </contour>
      <contour>
        <pt x="35" y="1244" on="1"/>
        <pt x="1031" y="1244" on="1"/>
        <pt x="999" y="924" on="1"/>
        <pt x="913" y="938" on="1"/>
        <pt x="872" y="1152" on="1"/>
        <pt x="400" y="1152" on="1"/>
        <pt x="400" y="677" on="1"/>
        <pt x="690" y="677" on="1"/>
        <pt x="733" y="796" on="1"/>
        <pt x="827" y="809" on="1"/>
        <pt x="795" y="421" on="1"/>
        <pt x="708" y="408" on="1"/>
        <pt x="675" y="583" on="1"/>
        <pt x="400" y="583" on="1"/>
        <pt x="400" y="95" on="1"/>
        <pt x="897" y="95" on="1"/>
        <pt x="994" y="326" on="1"/>
        <pt x="1077" y="313" on="1"/>
        <pt x="1047" y="0" on="1"/>
        <pt x="31" y="0" on="1"/>
        <pt x="39" y="74" on="1"/>
        <pt x="206" y="121" on="1"/>
        <pt x="206" y="1126" on="1"/>
        <pt x="25" y="1168" on="1"/>
      </contour>
    </TTGlyph>
    <TTGlyph name="Egrave" xMin="25" yMin="0" xMax="1077" yMax="1703">
      <contour>
        <pt x="418" y="1665" on="1"/>
        <pt x="533" y="1703" on="1"/>
        <pt x="665" y="1369" on="1"/>
        <pt x="608" y="1334" on="1"/>
      </contour>
      <contour>
        <pt x="35" y="1244" on="1"/>
        <pt x="1031" y="1244" on="1"/>
        <pt x="999" y="924" on="1"/>
        <pt x="913" y="938" on="1"/>
        <pt x="872" y="1152" on="1"/>
        <pt x="400" y="1152" on="1"/>
        <pt x="400" y="677" on="1"/>
        <pt x="690" y="677" on="1"/>
        <pt x="733" y="796" on="1"/>
        <pt x="827" y="809" on="1"/>
        <pt x="795" y="421" on="1"/>
        <pt x="708" y="408" on="1"/>
        <pt x="675" y="583" on="1"/>
        <pt x="400" y="583" on="1"/>
        <pt x="400" y="95" on="1"/>
        <pt x="897" y="95" on="1"/>
        <pt x="994" y="326" on="1"/>
        <pt x="1077" y="313" on="1"/>
        <pt x="1047" y="0" on="1"/>
        <pt x="31" y="0" on="1"/>
        <pt x="39" y="74" on="1"/>
        <pt x="206" y="121" on="1"/>
        <pt x="206" y="1126" on="1"/>
        <pt x="25" y="1168" on="1"/>
      </contour>
    </TTGlyph>
    <TTGlyph name="Emacron" xMin="25" yMin="0" xMax="1077" yMax="1485">
      <contour>
        <pt x="360" y="1485" on="1"/>
        <pt x="801" y="1485" on="1"/>
        <pt x="788" y="1384" on="1"/>
        <pt x="347" y="1384" on="1"/>
      </contour>
      <contour>
        <pt x="35" y="1244" on="1"/>
        <pt x="1031" y="1244" on="1"/>
        <pt x="999" y="924" on="1"/>
        <pt x="913" y="938" on="1"/>
        <pt x="872" y="1152" on="1"/>
        <pt x="400" y="1152" on="1"/>
        <pt x="400" y="677" on="1"/>
        <pt x="690" y="677" on="1"/>
        <pt x="733" y="796" on="1"/>
        <pt x="827" y="809" on="1"/>
        <pt x="795" y="421" on="1"/>
        <pt x="708" y="408" on="1"/>
        <pt x="675" y="583" on="1"/>
        <pt x="400" y="583" on="1"/>
        <pt x="400" y="95" on="1"/>
        <pt x="897" y="95" on="1"/>
        <pt x="994" y="326" on="1"/>
        <pt x="1077" y="313" on="1"/>
        <pt x="1047" y="0" on="1"/>
        <pt x="31" y="0" on="1"/>
        <pt x="39" y="74" on="1"/>
        <pt x="206" y="121" on="1"/>
        <pt x="206" y="1126" on="1"/>
        <pt x="25" y="1168" on="1"/>
      </contour>
    </TTGlyph>
    <TTGlyph name="Eng" xMin="25" yMin="-383" xMax="1331" yMax="1244">
      <contour>
        <pt x="855" y="1244" on="1"/>
        <pt x="1331" y="1244" on="1"/>
        <pt x="1318" y="1168" on="1"/>
        <pt x="1151" y="1129" on="1"/>
        <pt x="1151" y="151" on="1"/>
        <pt x="1151" y="69" on="0"/>
        <pt x="1118" y="-74" on="0"/>
        <pt x="1063" y="-178" on="0"/>
        <pt x="985" y="-269" on="0"/>
        <pt x="904" y="-331" on="0"/>
        <pt x="855" y="-359" on="1"/>
        <pt x="810" y="-383" on="1"/>
        <pt x="761" y="-295" on="1"/>
        <pt x="838" y="-238" on="0"/>
        <pt x="943" y="-95" on="0"/>
        <pt x="967" y="16" on="1"/>
        <pt x="334" y="961" on="1"/>
        <pt x="334" y="114" on="1"/>
        <pt x="517" y="81" on="1"/>
        <pt x="507" y="0" on="1"/>
        <pt x="31" y="0" on="1"/>
        <pt x="39" y="74" on="1"/>
        <pt x="206" y="121" on="1"/>
        <pt x="206" y="1118" on="1"/>
        <pt x="25" y="1168" on="1"/>
        <pt x="35" y="1244" on="1"/>
        <pt x="387" y="1244" on="1"/>
        <pt x="1029" y="272" on="1"/>
        <pt x="1029" y="1126" on="1"/>
        <pt x="844" y="1168" on="1"/>
      </contour>
    </TTGlyph>
    <TTGlyph name="Eogonek" xMin="25" yMin="-387" xMax="1077" yMax="1244">
      <contour>
        <pt x="926" y="-149" on="1"/>
        <pt x="926" y="-200" on="0"/>
        <pt x="986" y="-299" on="0"/>
        <pt x="1050" y="-336" on="1"/>
        <pt x="1016" y="-387" on="1"/>
        <pt x="910" y="-376" on="0"/>
        <pt x="778" y="-274" on="0"/>
        <pt x="778" y="-208" on="1"/>
        <pt x="778" y="-163" on="0"/>
        <pt x="831" y="-72" on="0"/>
        <pt x="912" y="0" on="1"/>
        <pt x="31" y="0" on="1"/>
        <pt x="39" y="74" on="1"/>
        <pt x="206" y="121" on="1"/>
        <pt x="206" y="1126" on="1"/>
        <pt x="25" y="1168" on="1"/>
        <pt x="35" y="1244" on="1"/>
        <pt x="1031" y="1244" on="1"/>
        <pt x="999" y="924" on="1"/>
        <pt x="913" y="938" on="1"/>
        <pt x="872" y="1152" on="1"/>
        <pt x="400" y="1152" on="1"/>
        <pt x="400" y="677" on="1"/>
        <pt x="690" y="677" on="1"/>
        <pt x="733" y="796" on="1"/>
        <pt x="827" y="809" on="1"/>
        <pt x="795" y="421" on="1"/>
        <pt x="708" y="408" on="1"/>
        <pt x="675" y="583" on="1"/>
        <pt x="400" y="583" on="1"/>
        <pt x="400" y="95" on="1"/>
        <pt x="897" y="95" on="1"/>
        <pt x="994" y="326" on="1"/>
        <pt x="1077" y="313" on="1"/>
        <pt x="1047" y="0" on="1"/>
        <pt x="986" y="0" on="1"/>
        <pt x="926" y="-99" on="0"/>
      </contour>
    </TTGlyph>
    <TTGlyph name="Eth" xMin="18" yMin="0" xMax="1288" yMax="1260">
      <contour>
        <pt x="1288" y="659" on="1"/>
        <pt x="1288" y="560" on="0"/>
        <pt x="1226" y="370" on="0"/>
        <pt x="1100" y="202" on="0"/>
        <pt x="922" y="74" on="0"/>
        <pt x="674" y="0" on="0"/>
        <pt x="531" y="0" on="1"/>
        <pt x="18" y="0" on="1"/>
        <pt x="31" y="74" on="1"/>
        <pt x="203" y="129" on="1"/>
        <pt x="203" y="570" on="1"/>
        <pt x="23" y="555" on="1"/>
        <pt x="35" y="647" on="1"/>
        <pt x="203" y="660" on="1"/>
        <pt x="203" y="1105" on="1"/>
        <pt x="31" y="1134" on="1"/>
        <pt x="39" y="1211" on="1"/>
        <pt x="349" y="1260" on="0"/>
        <pt x="554" y="1260" on="1"/>
        <pt x="718" y="1260" on="0"/>
        <pt x="973" y="1193" on="0"/>
        <pt x="1138" y="1082" on="0"/>
        <pt x="1244" y="924" on="0"/>
        <pt x="1288" y="756" on="0"/>
      </contour>
      <contour>
        <pt x="395" y="582" on="1"/>
        <pt x="395" y="104" on="1"/>
        <pt x="606" y="104" on="1"/>
        <pt x="725" y="104" on="0"/>
        <pt x="909" y="185" on="0"/>
        <pt x="1018" y="326" on="0"/>
        <pt x="1073" y="499" on="0"/>
        <pt x="1073" y="598" on="1"/>
        <pt x="1073" y="715" on="0"/>
        <pt x="1003" y="915" on="0"/>
        <pt x="868" y="1069" on="0"/>
        <pt x="653" y="1157" on="0"/>
        <pt x="517" y="1157" on="1"/>
        <pt x="450" y="1157" on="0"/>
        <pt x="395" y="1151" on="1"/>
        <pt x="395" y="672" on="1"/>
        <pt x="652" y="693" on="1"/>
        <pt x="641" y="601" on="1"/>
      </contour>
    </TTGlyph>
    <TTGlyph name="Euro" xMin="-46" yMin="-25" xMax="1006" yMax="1270">
      <contour>
        <pt x="846" y="174" on="1"/>
        <pt x="887" y="393" on="1"/>
        <pt x="975" y="406" on="1"/>
        <pt x="1006" y="111" on="1"/>
        <pt x="911" y="37" on="0"/>
        <pt x="734" y="-25" on="0"/>
        <pt x="611" y="-25" on="1"/>
        <pt x="470" y="-25" on="0"/>
        <pt x="235" y="90" on="0"/>
        <pt x="75" y="324" on="0"/>
        <pt x="56" y="485" on="1"/>
        <pt x="-46" y="485" on="1"/>
        <pt x="-28" y="591" on="1"/>
        <pt x="49" y="591" on="1"/>
        <pt x="49" y="614" on="0"/>
        <pt x="53" y="660" on="1"/>
        <pt x="-39" y="660" on="1"/>
        <pt x="-21" y="767" on="1"/>
        <pt x="67" y="767" on="1"/>
        <pt x="83" y="846" on="0"/>
        <pt x="142" y="987" on="0"/>
        <pt x="242" y="1119" on="0"/>
        <pt x="371" y="1213" on="0"/>
        <pt x="553" y="1270" on="0"/>
        <pt x="660" y="1270" on="1"/>
        <pt x="761" y="1270" on="0"/>
        <pt x="919" y="1223" on="0"/>
        <pt x="989" y="1170" on="1"/>
        <pt x="958" y="837" on="1"/>
        <pt x="870" y="850" on="1"/>
        <pt x="829" y="1070" on="1"/>
        <pt x="789" y="1122" on="0"/>
        <pt x="692" y="1175" on="0"/>
        <pt x="603" y="1175" on="1"/>
        <pt x="466" y="1175" on="0"/>
        <pt x="289" y="959" on="0"/>
        <pt x="269" y="767" on="1"/>
        <pt x="814" y="767" on="1"/>
        <pt x="785" y="660" on="1"/>
        <pt x="264" y="660" on="1"/>
        <pt x="264" y="659" on="1"/>
        <pt x="264" y="613" on="0"/>
        <pt x="266" y="591" on="1"/>
        <pt x="768" y="591" on="1"/>
        <pt x="739" y="485" on="1"/>
        <pt x="277" y="485" on="1"/>
        <pt x="307" y="290" on="0"/>
        <pt x="509" y="84" on="0"/>
        <pt x="660" y="84" on="1"/>
        <pt x="712" y="84" on="0"/>
        <pt x="812" y="128" on="0"/>
      </contour>
    </TTGlyph>
    <TTGlyph name="F" xMin="25" yMin="0" xMax="1029" yMax="1244">
      <contour>
        <pt x="35" y="1244" on="1"/>
        <pt x="1029" y="1244" on="1"/>
        <pt x="988" y="923" on="1"/>
        <pt x="900" y="936" on="1"/>
        <pt x="865" y="1152" on="1"/>
        <pt x="400" y="1152" on="1"/>
        <pt x="400" y="670" on="1"/>
        <pt x="687" y="670" on="1"/>
        <pt x="730" y="791" on="1"/>
        <pt x="819" y="804" on="1"/>
        <pt x="793" y="413" on="1"/>
        <pt x="705" y="398" on="1"/>
        <pt x="674" y="578" on="1"/>
        <pt x="400" y="578" on="1"/>
        <pt x="398" y="123" on="1"/>
        <pt x="636" y="84" on="1"/>
        <pt x="623" y="0" on="1"/>
        <pt x="31" y="0" on="1"/>
        <pt x="39" y="74" on="1"/>
        <pt x="206" y="121" on="1"/>
        <pt x="206" y="1126" on="1"/>
        <pt x="25" y="1168" on="1"/>
      </contour>
    </TTGlyph>
    <TTGlyph name="G" xMin="49" yMin="-31" xMax="1265" yMax="1260">
      <contour>
        <pt x="1129" y="1163" on="1"/>
        <pt x="1105" y="841" on="1"/>
        <pt x="1017" y="855" on="1"/>
        <pt x="981" y="1047" on="1"/>
        <pt x="938" y="1090" on="0"/>
        <pt x="763" y="1161" on="0"/>
        <pt x="657" y="1161" on="1"/>
        <pt x="596" y="1161" on="0"/>
        <pt x="485" y="1126" on="0"/>
        <pt x="384" y="1045" on="0"/>
        <pt x="309" y="929" on="0"/>
        <pt x="266" y="754" on="0"/>
        <pt x="266" y="647" on="1"/>
        <pt x="266" y="534" on="0"/>
        <pt x="332" y="331" on="0"/>
        <pt x="454" y="172" on="0"/>
        <pt x="645" y="77" on="0"/>
        <pt x="760" y="77" on="1"/>
        <pt x="861" y="77" on="0"/>
        <pt x="933" y="119" on="1"/>
        <pt x="933" y="434" on="1"/>
        <pt x="697" y="472" on="1"/>
        <pt x="708" y="555" on="1"/>
        <pt x="1265" y="555" on="1"/>
        <pt x="1253" y="480" on="1"/>
        <pt x="1129" y="439" on="1"/>
        <pt x="1129" y="79" on="1"/>
        <pt x="1031" y="21" on="0"/>
        <pt x="799" y="-31" on="0"/>
        <pt x="647" y="-31" on="1"/>
        <pt x="529" y="-31" on="0"/>
        <pt x="332" y="30" on="0"/>
        <pt x="192" y="140" on="0"/>
        <pt x="95" y="293" on="0"/>
        <pt x="49" y="475" on="0"/>
        <pt x="49" y="578" on="1"/>
        <pt x="49" y="733" on="0"/>
        <pt x="161" y="996" on="0"/>
        <pt x="346" y="1166" on="0"/>
        <pt x="581" y="1260" on="0"/>
        <pt x="707" y="1260" on="1"/>
        <pt x="967" y="1260" on="0"/>
      </contour>
    </TTGlyph>
    <TTGlyph name="Gbreve" xMin="49" yMin="-31" xMax="1265" yMax="1591">
      <contour>
        <pt x="550" y="1557" on="1"/>
        <pt x="596" y="1589" on="1"/>
        <pt x="605" y="1572" on="1"/>
        <pt x="622" y="1538" on="0"/>
        <pt x="693" y="1488" on="0"/>
        <pt x="739" y="1488" on="1"/>
        <pt x="829" y="1488" on="0"/>
        <pt x="882" y="1573" on="1"/>
        <pt x="892" y="1591" on="1"/>
        <pt x="933" y="1562" on="1"/>
        <pt x="926" y="1542" on="1"/>
        <pt x="903" y="1473" on="0"/>
        <pt x="808" y="1379" on="0"/>
        <pt x="739" y="1379" on="1"/>
        <pt x="665" y="1379" on="0"/>
        <pt x="572" y="1471" on="0"/>
        <pt x="555" y="1537" on="1"/>
      </contour>
      <contour>
        <pt x="1129" y="1163" on="1"/>
        <pt x="1105" y="841" on="1"/>
        <pt x="1017" y="855" on="1"/>
        <pt x="981" y="1047" on="1"/>
        <pt x="938" y="1090" on="0"/>
        <pt x="763" y="1161" on="0"/>
        <pt x="657" y="1161" on="1"/>
        <pt x="596" y="1161" on="0"/>
        <pt x="485" y="1126" on="0"/>
        <pt x="384" y="1045" on="0"/>
        <pt x="309" y="929" on="0"/>
        <pt x="266" y="754" on="0"/>
        <pt x="266" y="647" on="1"/>
        <pt x="266" y="534" on="0"/>
        <pt x="332" y="331" on="0"/>
        <pt x="454" y="172" on="0"/>
        <pt x="645" y="77" on="0"/>
        <pt x="760" y="77" on="1"/>
        <pt x="861" y="77" on="0"/>
        <pt x="933" y="119" on="1"/>
        <pt x="933" y="434" on="1"/>
        <pt x="697" y="472" on="1"/>
        <pt x="708" y="555" on="1"/>
        <pt x="1265" y="555" on="1"/>
        <pt x="1253" y="480" on="1"/>
        <pt x="1129" y="439" on="1"/>
        <pt x="1129" y="79" on="1"/>
        <pt x="1031" y="21" on="0"/>
        <pt x="799" y="-31" on="0"/>
        <pt x="647" y="-31" on="1"/>
        <pt x="529" y="-31" on="0"/>
        <pt x="332" y="30" on="0"/>
        <pt x="192" y="140" on="0"/>
        <pt x="95" y="293" on="0"/>
        <pt x="49" y="475" on="0"/>
        <pt x="49" y="578" on="1"/>
        <pt x="49" y="733" on="0"/>
        <pt x="161" y="996" on="0"/>
        <pt x="346" y="1166" on="0"/>
        <pt x="581" y="1260" on="0"/>
        <pt x="707" y="1260" on="1"/>
        <pt x="967" y="1260" on="0"/>
      </contour>
    </TTGlyph>
    <TTGlyph name="Gcommaaccent" xMin="49" yMin="-390" xMax="1265" yMax="1260">
      <contour>
        <pt x="706" y="-85" on="1"/>
        <pt x="743" y="-85" on="0"/>
        <pt x="807" y="-143" on="0"/>
        <pt x="807" y="-203" on="1"/>
        <pt x="807" y="-226" on="0"/>
        <pt x="790" y="-276" on="0"/>
        <pt x="751" y="-331" on="0"/>
        <pt x="674" y="-378" on="0"/>
        <pt x="622" y="-390" on="1"/>
        <pt x="604" y="-336" on="1"/>
        <pt x="697" y="-313" on="0"/>
        <pt x="697" y="-247" on="1"/>
        <pt x="697" y="-224" on="0"/>
        <pt x="636" y="-170" on="0"/>
        <pt x="617" y="-168" on="1"/>
        <pt x="624" y="-133" on="0"/>
        <pt x="672" y="-85" on="0"/>
      </contour>
      <contour>
        <pt x="1129" y="1163" on="1"/>
        <pt x="1105" y="841" on="1"/>
        <pt x="1017" y="855" on="1"/>
        <pt x="981" y="1047" on="1"/>
        <pt x="938" y="1090" on="0"/>
        <pt x="763" y="1161" on="0"/>
        <pt x="657" y="1161" on="1"/>
        <pt x="596" y="1161" on="0"/>
        <pt x="485" y="1126" on="0"/>
        <pt x="384" y="1045" on="0"/>
        <pt x="309" y="929" on="0"/>
        <pt x="266" y="754" on="0"/>
        <pt x="266" y="647" on="1"/>
        <pt x="266" y="534" on="0"/>
        <pt x="332" y="331" on="0"/>
        <pt x="454" y="172" on="0"/>
        <pt x="645" y="77" on="0"/>
        <pt x="760" y="77" on="1"/>
        <pt x="861" y="77" on="0"/>
        <pt x="933" y="119" on="1"/>
        <pt x="933" y="434" on="1"/>
        <pt x="697" y="472" on="1"/>
        <pt x="708" y="555" on="1"/>
        <pt x="1265" y="555" on="1"/>
        <pt x="1253" y="480" on="1"/>
        <pt x="1129" y="439" on="1"/>
        <pt x="1129" y="79" on="1"/>
        <pt x="1031" y="21" on="0"/>
        <pt x="799" y="-31" on="0"/>
        <pt x="647" y="-31" on="1"/>
        <pt x="529" y="-31" on="0"/>
        <pt x="332" y="30" on="0"/>
        <pt x="192" y="140" on="0"/>
        <pt x="95" y="293" on="0"/>
        <pt x="49" y="475" on="0"/>
        <pt x="49" y="578" on="1"/>
        <pt x="49" y="733" on="0"/>
        <pt x="161" y="996" on="0"/>
        <pt x="346" y="1166" on="0"/>
        <pt x="581" y="1260" on="0"/>
        <pt x="707" y="1260" on="1"/>
        <pt x="967" y="1260" on="0"/>
      </contour>
    </TTGlyph>
    <TTGlyph name="Gdotaccent" xMin="49" yMin="-31" xMax="1265" yMax="1592">
      <contour>
        <pt x="703" y="1592" on="1"/>
        <pt x="753" y="1592" on="0"/>
        <pt x="826" y="1526" on="0"/>
        <pt x="826" y="1478" on="1"/>
        <pt x="826" y="1428" on="0"/>
        <pt x="753" y="1355" on="0"/>
        <pt x="654" y="1355" on="0"/>
        <pt x="585" y="1429" on="0"/>
        <pt x="585" y="1480" on="1"/>
        <pt x="585" y="1528" on="0"/>
        <pt x="655" y="1592" on="0"/>
      </contour>
      <contour>
        <pt x="1129" y="1163" on="1"/>
        <pt x="1105" y="841" on="1"/>
        <pt x="1017" y="855" on="1"/>
        <pt x="981" y="1047" on="1"/>
        <pt x="938" y="1090" on="0"/>
        <pt x="763" y="1161" on="0"/>
        <pt x="657" y="1161" on="1"/>
        <pt x="596" y="1161" on="0"/>
        <pt x="485" y="1126" on="0"/>
        <pt x="384" y="1045" on="0"/>
        <pt x="309" y="929" on="0"/>
        <pt x="266" y="754" on="0"/>
        <pt x="266" y="647" on="1"/>
        <pt x="266" y="534" on="0"/>
        <pt x="332" y="331" on="0"/>
        <pt x="454" y="172" on="0"/>
        <pt x="645" y="77" on="0"/>
        <pt x="760" y="77" on="1"/>
        <pt x="861" y="77" on="0"/>
        <pt x="933" y="119" on="1"/>
        <pt x="933" y="434" on="1"/>
        <pt x="697" y="472" on="1"/>
        <pt x="708" y="555" on="1"/>
        <pt x="1265" y="555" on="1"/>
        <pt x="1253" y="480" on="1"/>
        <pt x="1129" y="439" on="1"/>
        <pt x="1129" y="79" on="1"/>
        <pt x="1031" y="21" on="0"/>
        <pt x="799" y="-31" on="0"/>
        <pt x="647" y="-31" on="1"/>
        <pt x="529" y="-31" on="0"/>
        <pt x="332" y="30" on="0"/>
        <pt x="192" y="140" on="0"/>
        <pt x="95" y="293" on="0"/>
        <pt x="49" y="475" on="0"/>
        <pt x="49" y="578" on="1"/>
        <pt x="49" y="733" on="0"/>
        <pt x="161" y="996" on="0"/>
        <pt x="346" y="1166" on="0"/>
        <pt x="581" y="1260" on="0"/>
        <pt x="707" y="1260" on="1"/>
        <pt x="967" y="1260" on="0"/>
      </contour>
    </TTGlyph>
    <TTGlyph name="Germandbls" xMin="30" yMin="-25" xMax="1255" yMax="1270">
      <contour>
        <pt x="878" y="1129" on="1"/>
        <pt x="812" y="1129" on="0"/>
        <pt x="705" y="1017" on="0"/>
        <pt x="705" y="943" on="1"/>
        <pt x="705" y="896" on="0"/>
        <pt x="743" y="817" on="0"/>
        <pt x="806" y="758" on="0"/>
        <pt x="889" y="707" on="0"/>
        <pt x="980" y="660" on="0"/>
        <pt x="1071" y="611" on="0"/>
        <pt x="1154" y="550" on="0"/>
        <pt x="1217" y="480" on="0"/>
        <pt x="1255" y="380" on="0"/>
        <pt x="1255" y="321" on="1"/>
        <pt x="1255" y="237" on="0"/>
        <pt x="1190" y="104" on="0"/>
        <pt x="1077" y="20" on="0"/>
        <pt x="929" y="-25" on="0"/>
        <pt x="842" y="-25" on="1"/>
        <pt x="732" y="-25" on="0"/>
        <pt x="546" y="54" on="0"/>
        <pt x="505" y="123" on="1"/>
        <pt x="518" y="382" on="1"/>
        <pt x="614" y="367" on="1"/>
        <pt x="651" y="187" on="1"/>
        <pt x="680" y="142" on="0"/>
        <pt x="798" y="77" on="0"/>
        <pt x="865" y="77" on="1"/>
        <pt x="1070" y="77" on="0"/>
        <pt x="1070" y="254" on="1"/>
        <pt x="1070" y="306" on="0"/>
        <pt x="1011" y="390" on="0"/>
        <pt x="916" y="449" on="0"/>
        <pt x="801" y="506" on="0"/>
        <pt x="686" y="571" on="0"/>
        <pt x="591" y="649" on="0"/>
        <pt x="532" y="768" on="0"/>
        <pt x="532" y="842" on="1"/>
        <pt x="532" y="965" on="0"/>
        <pt x="669" y="1148" on="0"/>
        <pt x="776" y="1173" on="1"/>
        <pt x="778" y="1176" on="1"/>
        <pt x="739" y="1179" on="0"/>
        <pt x="690" y="1179" on="1"/>
        <pt x="396" y="1179" on="0"/>
        <pt x="396" y="786" on="1"/>
        <pt x="398" y="0" on="1"/>
        <pt x="30" y="0" on="1"/>
        <pt x="38" y="74" on="1"/>
        <pt x="205" y="121" on="1"/>
        <pt x="205" y="763" on="1"/>
        <pt x="205" y="895" on="0"/>
        <pt x="276" y="1091" on="0"/>
        <pt x="408" y="1212" on="0"/>
        <pt x="589" y="1270" on="0"/>
        <pt x="703" y="1270" on="1"/>
        <pt x="765" y="1270" on="0"/>
        <pt x="888" y="1258" on="0"/>
        <pt x="1023" y="1228" on="0"/>
        <pt x="1124" y="1180" on="0"/>
        <pt x="1191" y="1100" on="0"/>
        <pt x="1191" y="1049" on="1"/>
        <pt x="1191" y="994" on="0"/>
        <pt x="1132" y="933" on="0"/>
        <pt x="1068" y="911" on="1"/>
        <pt x="1056" y="947" on="0"/>
        <pt x="1043" y="984" on="0"/>
        <pt x="1016" y="1045" on="0"/>
        <pt x="990" y="1077" on="0"/>
        <pt x="953" y="1114" on="0"/>
        <pt x="906" y="1129" on="0"/>
      </contour>
    </TTGlyph>
    <TTGlyph name="Germandbls.alt" xMin="30" yMin="-25" xMax="1255" yMax="1270">
      <contour>
        <pt x="852" y="763" on="1"/>
        <pt x="869" y="751" on="0"/>
        <pt x="956" y="706" on="0"/>
        <pt x="1038" y="663" on="0"/>
        <pt x="1135" y="591" on="0"/>
        <pt x="1207" y="514" on="0"/>
        <pt x="1255" y="401" on="0"/>
        <pt x="1255" y="337" on="1"/>
        <pt x="1255" y="225" on="0"/>
        <pt x="1143" y="59" on="0"/>
        <pt x="957" y="-25" on="0"/>
        <pt x="842" y="-25" on="1"/>
        <pt x="734" y="-25" on="0"/>
        <pt x="547" y="62" on="0"/>
        <pt x="505" y="131" on="1"/>
        <pt x="518" y="398" on="1"/>
        <pt x="621" y="383" on="1"/>
        <pt x="660" y="195" on="1"/>
        <pt x="690" y="146" on="0"/>
        <pt x="799" y="77" on="0"/>
        <pt x="865" y="77" on="1"/>
        <pt x="953" y="77" on="0"/>
        <pt x="1070" y="171" on="0"/>
        <pt x="1070" y="271" on="1"/>
        <pt x="1070" y="311" on="0"/>
        <pt x="1024" y="392" on="0"/>
        <pt x="960" y="452" on="0"/>
        <pt x="855" y="523" on="0"/>
        <pt x="772" y="568" on="0"/>
        <pt x="651" y="632" on="0"/>
        <pt x="623" y="649" on="1"/>
        <pt x="600" y="698" on="1"/>
        <pt x="924" y="1142" on="1"/>
        <pt x="924" y="1147" on="1"/>
        <pt x="896" y="1159" on="0"/>
        <pt x="717" y="1179" on="0"/>
        <pt x="690" y="1179" on="1"/>
        <pt x="587" y="1179" on="0"/>
        <pt x="462" y="1096" on="0"/>
        <pt x="396" y="888" on="0"/>
        <pt x="396" y="711" on="1"/>
        <pt x="398" y="0" on="1"/>
        <pt x="30" y="0" on="1"/>
        <pt x="38" y="74" on="1"/>
        <pt x="205" y="121" on="1"/>
        <pt x="205" y="688" on="1"/>
        <pt x="205" y="819" on="0"/>
        <pt x="252" y="1019" on="0"/>
        <pt x="336" y="1151" on="0"/>
        <pt x="461" y="1235" on="0"/>
        <pt x="610" y="1270" on="0"/>
        <pt x="703" y="1270" on="1"/>
        <pt x="829" y="1270" on="0"/>
        <pt x="1112" y="1247" on="0"/>
        <pt x="1156" y="1232" on="1"/>
        <pt x="1157" y="1160" on="1"/>
      </contour>
    </TTGlyph>
    <TTGlyph name="Germandbls.alt2" xMin="30" yMin="-25" xMax="1255" yMax="1270">
      <contour>
        <pt x="1021" y="1080" on="1"/>
        <pt x="955" y="1131" on="0"/>
        <pt x="870" y="1131" on="1"/>
        <pt x="811" y="1131" on="0"/>
        <pt x="705" y="1032" on="0"/>
        <pt x="705" y="960" on="1"/>
        <pt x="705" y="900" on="0"/>
        <pt x="766" y="803" on="0"/>
        <pt x="863" y="734" on="0"/>
        <pt x="980" y="670" on="0"/>
        <pt x="1097" y="599" on="0"/>
        <pt x="1194" y="517" on="0"/>
        <pt x="1255" y="396" on="0"/>
        <pt x="1255" y="321" on="1"/>
        <pt x="1255" y="237" on="0"/>
        <pt x="1190" y="104" on="0"/>
        <pt x="1077" y="20" on="0"/>
        <pt x="929" y="-25" on="0"/>
        <pt x="842" y="-25" on="1"/>
        <pt x="732" y="-25" on="0"/>
        <pt x="546" y="54" on="0"/>
        <pt x="505" y="123" on="1"/>
        <pt x="518" y="390" on="1"/>
        <pt x="621" y="375" on="1"/>
        <pt x="660" y="187" on="1"/>
        <pt x="690" y="140" on="0"/>
        <pt x="799" y="77" on="0"/>
        <pt x="865" y="77" on="1"/>
        <pt x="1070" y="77" on="0"/>
        <pt x="1070" y="254" on="1"/>
        <pt x="1070" y="295" on="0"/>
        <pt x="1033" y="365" on="0"/>
        <pt x="971" y="419" on="0"/>
        <pt x="890" y="468" on="0"/>
        <pt x="801" y="515" on="0"/>
        <pt x="712" y="565" on="0"/>
        <pt x="631" y="628" on="0"/>
        <pt x="569" y="700" on="0"/>
        <pt x="532" y="800" on="0"/>
        <pt x="532" y="859" on="1"/>
        <pt x="532" y="980" on="0"/>
        <pt x="667" y="1147" on="0"/>
        <pt x="776" y="1173" on="1"/>
        <pt x="778" y="1176" on="1"/>
        <pt x="739" y="1179" on="0"/>
        <pt x="690" y="1179" on="1"/>
        <pt x="396" y="1179" on="0"/>
        <pt x="396" y="786" on="1"/>
        <pt x="398" y="0" on="1"/>
        <pt x="30" y="0" on="1"/>
        <pt x="38" y="74" on="1"/>
        <pt x="205" y="121" on="1"/>
        <pt x="205" y="763" on="1"/>
        <pt x="205" y="895" on="0"/>
        <pt x="276" y="1091" on="0"/>
        <pt x="408" y="1212" on="0"/>
        <pt x="589" y="1270" on="0"/>
        <pt x="703" y="1270" on="1"/>
        <pt x="844" y="1270" on="0"/>
        <pt x="1095" y="1216" on="0"/>
        <pt x="1166" y="1170" on="1"/>
        <pt x="1146" y="887" on="1"/>
        <pt x="1047" y="898" on="1"/>
      </contour>
    </TTGlyph>
    <TTGlyph name="H" xMin="25" yMin="0" xMax="1406" yMax="1244">
      <contour>
        <pt x="573" y="0" on="1"/>
        <pt x="31" y="0" on="1"/>
        <pt x="39" y="74" on="1"/>
        <pt x="206" y="121" on="1"/>
        <pt x="206" y="1126" on="1"/>
        <pt x="25" y="1168" on="1"/>
        <pt x="35" y="1244" on="1"/>
        <pt x="580" y="1244" on="1"/>
        <pt x="570" y="1168" on="1"/>
        <pt x="401" y="1129" on="1"/>
        <pt x="401" y="692" on="1"/>
        <pt x="1029" y="692" on="1"/>
        <pt x="1029" y="1126" on="1"/>
        <pt x="846" y="1168" on="1"/>
        <pt x="857" y="1244" on="1"/>
        <pt x="1402" y="1244" on="1"/>
        <pt x="1391" y="1168" on="1"/>
        <pt x="1224" y="1129" on="1"/>
        <pt x="1224" y="114" on="1"/>
        <pt x="1406" y="81" on="1"/>
        <pt x="1396" y="0" on="1"/>
        <pt x="852" y="0" on="1"/>
        <pt x="864" y="74" on="1"/>
        <pt x="1029" y="121" on="1"/>
        <pt x="1029" y="591" on="1"/>
        <pt x="401" y="590" on="1"/>
        <pt x="401" y="114" on="1"/>
        <pt x="586" y="81" on="1"/>
      </contour>
    </TTGlyph>
    <TTGlyph name="Hbar" xMin="25" yMin="0" xMax="1406" yMax="1244">
      <contour>
        <pt x="94" y="870" on="1"/>
        <pt x="102" y="966" on="1"/>
        <pt x="206" y="966" on="1"/>
        <pt x="206" y="1126" on="1"/>
        <pt x="25" y="1168" on="1"/>
        <pt x="35" y="1244" on="1"/>
        <pt x="580" y="1244" on="1"/>
        <pt x="570" y="1168" on="1"/>
        <pt x="401" y="1129" on="1"/>
        <pt x="401" y="966" on="1"/>
        <pt x="1029" y="966" on="1"/>
        <pt x="1029" y="1126" on="1"/>
        <pt x="846" y="1168" on="1"/>
        <pt x="857" y="1244" on="1"/>
        <pt x="1402" y="1244" on="1"/>
        <pt x="1391" y="1168" on="1"/>
        <pt x="1224" y="1129" on="1"/>
        <pt x="1224" y="966" on="1"/>
        <pt x="1328" y="966" on="1"/>
        <pt x="1320" y="870" on="1"/>
        <pt x="1224" y="870" on="1"/>
        <pt x="1224" y="114" on="1"/>
        <pt x="1406" y="81" on="1"/>
        <pt x="1396" y="0" on="1"/>
        <pt x="852" y="0" on="1"/>
        <pt x="864" y="74" on="1"/>
        <pt x="1029" y="121" on="1"/>
        <pt x="1029" y="591" on="1"/>
        <pt x="401" y="590" on="1"/>
        <pt x="401" y="114" on="1"/>
        <pt x="586" y="81" on="1"/>
        <pt x="573" y="0" on="1"/>
        <pt x="31" y="0" on="1"/>
        <pt x="39" y="74" on="1"/>
        <pt x="206" y="121" on="1"/>
        <pt x="206" y="870" on="1"/>
      </contour>
      <contour>
        <pt x="1029" y="870" on="1"/>
        <pt x="401" y="870" on="1"/>
        <pt x="401" y="692" on="1"/>
        <pt x="1029" y="692" on="1"/>
      </contour>
    </TTGlyph>
    <TTGlyph name="I" xMin="25" yMin="0" xMax="582" yMax="1244">
      <contour>
        <pt x="572" y="0" on="1"/>
        <pt x="31" y="0" on="1"/>
        <pt x="39" y="74" on="1"/>
        <pt x="206" y="121" on="1"/>
        <pt x="206" y="1126" on="1"/>
        <pt x="25" y="1168" on="1"/>
        <pt x="35" y="1244" on="1"/>
        <pt x="580" y="1244" on="1"/>
        <pt x="570" y="1168" on="1"/>
        <pt x="400" y="1129" on="1"/>
        <pt x="400" y="114" on="1"/>
        <pt x="582" y="81" on="1"/>
      </contour>
    </TTGlyph>
    <TTGlyph name="Iacute" xMin="25" yMin="0" xMax="582" yMax="1711">
      <contour>
        <pt x="498" y="1671" on="1"/>
        <pt x="315" y="1354" on="1"/>
        <pt x="264" y="1386" on="1"/>
        <pt x="387" y="1711" on="1"/>
      </contour>
      <contour>
        <pt x="572" y="0" on="1"/>
        <pt x="31" y="0" on="1"/>
        <pt x="39" y="74" on="1"/>
        <pt x="206" y="121" on="1"/>
        <pt x="206" y="1126" on="1"/>
        <pt x="25" y="1168" on="1"/>
        <pt x="35" y="1244" on="1"/>
        <pt x="580" y="1244" on="1"/>
        <pt x="570" y="1168" on="1"/>
        <pt x="400" y="1129" on="1"/>
        <pt x="400" y="114" on="1"/>
        <pt x="582" y="81" on="1"/>
      </contour>
    </TTGlyph>
    <TTGlyph name="Icaron" xMin="25" yMin="0" xMax="582" yMax="1589">
      <contour>
        <pt x="271" y="1362" on="1"/>
        <pt x="91" y="1527" on="1"/>
        <pt x="172" y="1589" on="1"/>
        <pt x="321" y="1445" on="1"/>
        <pt x="331" y="1445" on="1"/>
        <pt x="454" y="1586" on="1"/>
        <pt x="498" y="1555" on="1"/>
        <pt x="326" y="1376" on="1"/>
      </contour>
      <contour>
        <pt x="572" y="0" on="1"/>
        <pt x="31" y="0" on="1"/>
        <pt x="39" y="74" on="1"/>
        <pt x="206" y="121" on="1"/>
        <pt x="206" y="1126" on="1"/>
        <pt x="25" y="1168" on="1"/>
        <pt x="35" y="1244" on="1"/>
        <pt x="580" y="1244" on="1"/>
        <pt x="570" y="1168" on="1"/>
        <pt x="400" y="1129" on="1"/>
        <pt x="400" y="114" on="1"/>
        <pt x="582" y="81" on="1"/>
      </contour>
    </TTGlyph>
    <TTGlyph name="Icircumflex" xMin="25" yMin="0" xMax="582" yMax="1586">
      <contour>
        <pt x="329" y="1586" on="1"/>
        <pt x="507" y="1401" on="1"/>
        <pt x="457" y="1364" on="1"/>
        <pt x="294" y="1473" on="1"/>
        <pt x="284" y="1473" on="1"/>
        <pt x="144" y="1362" on="1"/>
        <pt x="106" y="1392" on="1"/>
        <pt x="274" y="1572" on="1"/>
      </contour>
      <contour>
        <pt x="572" y="0" on="1"/>
        <pt x="31" y="0" on="1"/>
        <pt x="39" y="74" on="1"/>
        <pt x="206" y="121" on="1"/>
        <pt x="206" y="1126" on="1"/>
        <pt x="25" y="1168" on="1"/>
        <pt x="35" y="1244" on="1"/>
        <pt x="580" y="1244" on="1"/>
        <pt x="570" y="1168" on="1"/>
        <pt x="400" y="1129" on="1"/>
        <pt x="400" y="114" on="1"/>
        <pt x="582" y="81" on="1"/>
      </contour>
    </TTGlyph>
    <TTGlyph name="Idieresis" xMin="25" yMin="0" xMax="582" yMax="1531">
      <contour>
        <pt x="436" y="1531" on="1"/>
        <pt x="471" y="1531" on="0"/>
        <pt x="524" y="1487" on="0"/>
        <pt x="524" y="1453" on="1"/>
        <pt x="524" y="1418" on="0"/>
        <pt x="471" y="1373" on="0"/>
        <pt x="436" y="1373" on="1"/>
        <pt x="402" y="1373" on="0"/>
        <pt x="352" y="1418" on="0"/>
        <pt x="352" y="1488" on="0"/>
        <pt x="403" y="1531" on="0"/>
      </contour>
      <contour>
        <pt x="169" y="1531" on="1"/>
        <pt x="204" y="1531" on="0"/>
        <pt x="254" y="1487" on="0"/>
        <pt x="254" y="1453" on="1"/>
        <pt x="254" y="1418" on="0"/>
        <pt x="203" y="1373" on="0"/>
        <pt x="135" y="1373" on="0"/>
        <pt x="85" y="1418" on="0"/>
        <pt x="85" y="1488" on="0"/>
        <pt x="136" y="1531" on="0"/>
      </contour>
      <contour>
        <pt x="572" y="0" on="1"/>
        <pt x="31" y="0" on="1"/>
        <pt x="39" y="74" on="1"/>
        <pt x="206" y="121" on="1"/>
        <pt x="206" y="1126" on="1"/>
        <pt x="25" y="1168" on="1"/>
        <pt x="35" y="1244" on="1"/>
        <pt x="580" y="1244" on="1"/>
        <pt x="570" y="1168" on="1"/>
        <pt x="400" y="1129" on="1"/>
        <pt x="400" y="114" on="1"/>
        <pt x="582" y="81" on="1"/>
      </contour>
    </TTGlyph>
    <TTGlyph name="Idotaccent" xMin="25" yMin="0" xMax="582" yMax="1597">
      <contour>
        <pt x="300" y="1597" on="1"/>
        <pt x="350" y="1597" on="0"/>
        <pt x="423" y="1531" on="0"/>
        <pt x="423" y="1483" on="1"/>
        <pt x="423" y="1433" on="0"/>
        <pt x="350" y="1360" on="0"/>
        <pt x="251" y="1360" on="0"/>
        <pt x="182" y="1434" on="0"/>
        <pt x="182" y="1485" on="1"/>
        <pt x="182" y="1533" on="0"/>
        <pt x="252" y="1597" on="0"/>
      </contour>
      <contour>
        <pt x="572" y="0" on="1"/>
        <pt x="31" y="0" on="1"/>
        <pt x="39" y="74" on="1"/>
        <pt x="206" y="121" on="1"/>
        <pt x="206" y="1126" on="1"/>
        <pt x="25" y="1168" on="1"/>
        <pt x="35" y="1244" on="1"/>
        <pt x="580" y="1244" on="1"/>
        <pt x="570" y="1168" on="1"/>
        <pt x="400" y="1129" on="1"/>
        <pt x="400" y="114" on="1"/>
        <pt x="582" y="81" on="1"/>
      </contour>
    </TTGlyph>
    <TTGlyph name="Igrave" xMin="25" yMin="0" xMax="582" yMax="1703">
      <contour>
        <pt x="108" y="1665" on="1"/>
        <pt x="223" y="1703" on="1"/>
        <pt x="355" y="1369" on="1"/>
        <pt x="298" y="1334" on="1"/>
      </contour>
      <contour>
        <pt x="572" y="0" on="1"/>
        <pt x="31" y="0" on="1"/>
        <pt x="39" y="74" on="1"/>
        <pt x="206" y="121" on="1"/>
        <pt x="206" y="1126" on="1"/>
        <pt x="25" y="1168" on="1"/>
        <pt x="35" y="1244" on="1"/>
        <pt x="580" y="1244" on="1"/>
        <pt x="570" y="1168" on="1"/>
        <pt x="400" y="1129" on="1"/>
        <pt x="400" y="114" on="1"/>
        <pt x="582" y="81" on="1"/>
      </contour>
    </TTGlyph>
    <TTGlyph name="Imacron" xMin="25" yMin="0" xMax="582" yMax="1485">
      <contour>
        <pt x="91" y="1485" on="1"/>
        <pt x="532" y="1485" on="1"/>
        <pt x="519" y="1384" on="1"/>
        <pt x="78" y="1384" on="1"/>
      </contour>
      <contour>
        <pt x="572" y="0" on="1"/>
        <pt x="31" y="0" on="1"/>
        <pt x="39" y="74" on="1"/>
        <pt x="206" y="121" on="1"/>
        <pt x="206" y="1126" on="1"/>
        <pt x="25" y="1168" on="1"/>
        <pt x="35" y="1244" on="1"/>
        <pt x="580" y="1244" on="1"/>
        <pt x="570" y="1168" on="1"/>
        <pt x="400" y="1129" on="1"/>
        <pt x="400" y="114" on="1"/>
        <pt x="582" y="81" on="1"/>
      </contour>
    </TTGlyph>
    <TTGlyph name="Iogonek" xMin="25" yMin="-387" xMax="621" yMax="1244">
      <contour>
        <pt x="497" y="-149" on="1"/>
        <pt x="497" y="-200" on="0"/>
        <pt x="557" y="-299" on="0"/>
        <pt x="621" y="-336" on="1"/>
        <pt x="586" y="-387" on="1"/>
        <pt x="480" y="-376" on="0"/>
        <pt x="349" y="-274" on="0"/>
        <pt x="349" y="-208" on="1"/>
        <pt x="349" y="-163" on="0"/>
        <pt x="401" y="-72" on="0"/>
        <pt x="483" y="0" on="1"/>
        <pt x="31" y="0" on="1"/>
        <pt x="39" y="74" on="1"/>
        <pt x="206" y="121" on="1"/>
        <pt x="206" y="1126" on="1"/>
        <pt x="25" y="1168" on="1"/>
        <pt x="35" y="1244" on="1"/>
        <pt x="580" y="1244" on="1"/>
        <pt x="570" y="1168" on="1"/>
        <pt x="400" y="1129" on="1"/>
        <pt x="400" y="114" on="1"/>
        <pt x="582" y="81" on="1"/>
        <pt x="572" y="0" on="1"/>
        <pt x="557" y="0" on="1"/>
        <pt x="497" y="-99" on="0"/>
      </contour>
    </TTGlyph>
    <TTGlyph name="J" xMin="-31" yMin="-326" xMax="580" yMax="1244">
      <contour>
        <pt x="23" y="-326" on="1"/>
        <pt x="-31" y="-238" on="1"/>
        <pt x="91" y="-123" on="0"/>
        <pt x="205" y="81" on="0"/>
        <pt x="205" y="197" on="1"/>
        <pt x="206" y="1126" on="1"/>
        <pt x="25" y="1168" on="1"/>
        <pt x="35" y="1244" on="1"/>
        <pt x="580" y="1244" on="1"/>
        <pt x="570" y="1168" on="1"/>
        <pt x="400" y="1129" on="1"/>
        <pt x="398" y="385" on="1"/>
        <pt x="397" y="260" on="0"/>
        <pt x="373" y="81" on="0"/>
        <pt x="325" y="-55" on="0"/>
        <pt x="230" y="-171" on="0"/>
        <pt x="116" y="-265" on="0"/>
      </contour>
    </TTGlyph>
    <TTGlyph name="K" xMin="18" yMin="-21" xMax="1222" yMax="1244">
      <contour>
        <pt x="18" y="1168" on="1"/>
        <pt x="31" y="1244" on="1"/>
        <pt x="582" y="1244" on="1"/>
        <pt x="572" y="1168" on="1"/>
        <pt x="400" y="1121" on="1"/>
        <pt x="400" y="124" on="1"/>
        <pt x="590" y="81" on="1"/>
        <pt x="578" y="0" on="1"/>
        <pt x="25" y="0" on="1"/>
        <pt x="35" y="74" on="1"/>
        <pt x="206" y="129" on="1"/>
        <pt x="206" y="1118" on="1"/>
      </contour>
      <contour>
        <pt x="424" y="626" on="1"/>
        <pt x="448" y="650" on="0"/>
        <pt x="555" y="769" on="0"/>
        <pt x="577" y="798" on="1"/>
        <pt x="822" y="1121" on="1"/>
        <pt x="667" y="1168" on="1"/>
        <pt x="675" y="1244" on="1"/>
        <pt x="1168" y="1244" on="1"/>
        <pt x="1156" y="1168" on="1"/>
        <pt x="980" y="1121" on="1"/>
        <pt x="606" y="654" on="1"/>
        <pt x="834" y="385" on="1"/>
        <pt x="891" y="318" on="0"/>
        <pt x="945" y="256" on="0"/>
        <pt x="1024" y="173" on="0"/>
        <pt x="1077" y="132" on="0"/>
        <pt x="1147" y="94" on="0"/>
        <pt x="1184" y="82" on="1"/>
        <pt x="1222" y="71" on="1"/>
        <pt x="1211" y="2" on="1"/>
        <pt x="1147" y="-21" on="0"/>
        <pt x="1080" y="-21" on="1"/>
        <pt x="1020" y="-21" on="0"/>
        <pt x="908" y="21" on="0"/>
        <pt x="808" y="103" on="0"/>
        <pt x="724" y="196" on="0"/>
        <pt x="677" y="261" on="1"/>
        <pt x="426" y="605" on="1"/>
      </contour>
    </TTGlyph>
    <TTGlyph name="Kcommaaccent" xMin="18" yMin="-410" xMax="1222" yMax="1244">
      <contour>
        <pt x="718" y="-105" on="1"/>
        <pt x="755" y="-105" on="0"/>
        <pt x="819" y="-164" on="0"/>
        <pt x="819" y="-224" on="1"/>
        <pt x="819" y="-247" on="0"/>
        <pt x="802" y="-296" on="0"/>
        <pt x="763" y="-351" on="0"/>
        <pt x="687" y="-398" on="0"/>
        <pt x="634" y="-410" on="1"/>
        <pt x="616" y="-357" on="1"/>
        <pt x="709" y="-334" on="0"/>
        <pt x="709" y="-267" on="1"/>
        <pt x="709" y="-244" on="0"/>
        <pt x="648" y="-191" on="0"/>
        <pt x="629" y="-188" on="1"/>
        <pt x="636" y="-153" on="0"/>
        <pt x="684" y="-105" on="0"/>
      </contour>
      <contour>
        <pt x="426" y="605" on="1"/>
        <pt x="424" y="626" on="1"/>
        <pt x="448" y="650" on="0"/>
        <pt x="555" y="769" on="0"/>
        <pt x="577" y="798" on="1"/>
        <pt x="822" y="1121" on="1"/>
        <pt x="667" y="1168" on="1"/>
        <pt x="675" y="1244" on="1"/>
        <pt x="1168" y="1244" on="1"/>
        <pt x="1156" y="1168" on="1"/>
        <pt x="980" y="1121" on="1"/>
        <pt x="606" y="654" on="1"/>
        <pt x="834" y="385" on="1"/>
        <pt x="891" y="318" on="0"/>
        <pt x="945" y="256" on="0"/>
        <pt x="1024" y="173" on="0"/>
        <pt x="1077" y="132" on="0"/>
        <pt x="1147" y="94" on="0"/>
        <pt x="1184" y="82" on="1"/>
        <pt x="1222" y="71" on="1"/>
        <pt x="1211" y="2" on="1"/>
        <pt x="1147" y="-21" on="0"/>
        <pt x="1080" y="-21" on="1"/>
        <pt x="1020" y="-21" on="0"/>
        <pt x="908" y="21" on="0"/>
        <pt x="808" y="103" on="0"/>
        <pt x="724" y="196" on="0"/>
        <pt x="677" y="261" on="1"/>
      </contour>
      <contour>
        <pt x="400" y="124" on="1"/>
        <pt x="590" y="81" on="1"/>
        <pt x="578" y="0" on="1"/>
        <pt x="25" y="0" on="1"/>
        <pt x="35" y="74" on="1"/>
        <pt x="206" y="129" on="1"/>
        <pt x="206" y="1118" on="1"/>
        <pt x="18" y="1168" on="1"/>
        <pt x="31" y="1244" on="1"/>
        <pt x="582" y="1244" on="1"/>
        <pt x="572" y="1168" on="1"/>
        <pt x="400" y="1121" on="1"/>
      </contour>
    </TTGlyph>
    <TTGlyph name="L" xMin="25" yMin="0" xMax="1065" yMax="1244">
      <contour>
        <pt x="588" y="1244" on="1"/>
        <pt x="578" y="1168" on="1"/>
        <pt x="406" y="1121" on="1"/>
        <pt x="406" y="95" on="1"/>
        <pt x="849" y="95" on="1"/>
        <pt x="980" y="344" on="1"/>
        <pt x="1065" y="331" on="1"/>
        <pt x="1027" y="0" on="1"/>
        <pt x="38" y="0" on="1"/>
        <pt x="46" y="74" on="1"/>
        <pt x="213" y="121" on="1"/>
        <pt x="213" y="1118" on="1"/>
        <pt x="25" y="1168" on="1"/>
        <pt x="38" y="1244" on="1"/>
      </contour>
    </TTGlyph>
    <TTGlyph name="Lacute" xMin="25" yMin="0" xMax="1065" yMax="1711">
      <contour>
        <pt x="474" y="1671" on="1"/>
        <pt x="290" y="1354" on="1"/>
        <pt x="239" y="1386" on="1"/>
        <pt x="362" y="1711" on="1"/>
      </contour>
      <contour>
        <pt x="588" y="1244" on="1"/>
        <pt x="578" y="1168" on="1"/>
        <pt x="406" y="1121" on="1"/>
        <pt x="406" y="95" on="1"/>
        <pt x="849" y="95" on="1"/>
        <pt x="980" y="344" on="1"/>
        <pt x="1065" y="331" on="1"/>
        <pt x="1027" y="0" on="1"/>
        <pt x="38" y="0" on="1"/>
        <pt x="46" y="74" on="1"/>
        <pt x="213" y="121" on="1"/>
        <pt x="213" y="1118" on="1"/>
        <pt x="25" y="1168" on="1"/>
        <pt x="38" y="1244" on="1"/>
      </contour>
    </TTGlyph>
    <TTGlyph name="Lcaron" xMin="25" yMin="0" xMax="1065" yMax="1281">
      <contour>
        <pt x="642" y="819" on="1"/>
        <pt x="734" y="843" on="0"/>
        <pt x="824" y="939" on="0"/>
        <pt x="824" y="993" on="1"/>
        <pt x="824" y="1037" on="0"/>
        <pt x="759" y="1100" on="0"/>
        <pt x="708" y="1100" on="1"/>
        <pt x="688" y="1100" on="0"/>
        <pt x="679" y="1098" on="1"/>
        <pt x="664" y="1137" on="0"/>
        <pt x="664" y="1161" on="1"/>
        <pt x="664" y="1217" on="0"/>
        <pt x="742" y="1281" on="0"/>
        <pt x="786" y="1281" on="1"/>
        <pt x="814" y="1281" on="0"/>
        <pt x="872" y="1258" on="0"/>
        <pt x="927" y="1211" on="0"/>
        <pt x="961" y="1127" on="0"/>
        <pt x="961" y="1073" on="1"/>
        <pt x="961" y="1040" on="0"/>
        <pt x="951" y="980" on="0"/>
        <pt x="914" y="899" on="0"/>
        <pt x="853" y="833" on="0"/>
        <pt x="740" y="770" on="0"/>
        <pt x="665" y="750" on="1"/>
      </contour>
      <contour>
        <pt x="588" y="1244" on="1"/>
        <pt x="578" y="1168" on="1"/>
        <pt x="406" y="1121" on="1"/>
        <pt x="406" y="95" on="1"/>
        <pt x="849" y="95" on="1"/>
        <pt x="980" y="344" on="1"/>
        <pt x="1065" y="331" on="1"/>
        <pt x="1027" y="0" on="1"/>
        <pt x="38" y="0" on="1"/>
        <pt x="46" y="74" on="1"/>
        <pt x="213" y="121" on="1"/>
        <pt x="213" y="1118" on="1"/>
        <pt x="25" y="1168" on="1"/>
        <pt x="38" y="1244" on="1"/>
      </contour>
    </TTGlyph>
    <TTGlyph name="Lcommaaccent" xMin="25" yMin="-373" xMax="1065" yMax="1244">
      <contour>
        <pt x="546" y="-68" on="1"/>
        <pt x="583" y="-68" on="0"/>
        <pt x="647" y="-127" on="0"/>
        <pt x="647" y="-187" on="1"/>
        <pt x="647" y="-210" on="0"/>
        <pt x="630" y="-259" on="0"/>
        <pt x="591" y="-314" on="0"/>
        <pt x="515" y="-361" on="0"/>
        <pt x="462" y="-373" on="1"/>
        <pt x="444" y="-320" on="1"/>
        <pt x="537" y="-297" on="0"/>
        <pt x="537" y="-230" on="1"/>
        <pt x="537" y="-207" on="0"/>
        <pt x="476" y="-154" on="0"/>
        <pt x="457" y="-151" on="1"/>
        <pt x="464" y="-116" on="0"/>
        <pt x="512" y="-68" on="0"/>
      </contour>
      <contour>
        <pt x="588" y="1244" on="1"/>
        <pt x="578" y="1168" on="1"/>
        <pt x="406" y="1121" on="1"/>
        <pt x="406" y="95" on="1"/>
        <pt x="849" y="95" on="1"/>
        <pt x="980" y="344" on="1"/>
        <pt x="1065" y="331" on="1"/>
        <pt x="1027" y="0" on="1"/>
        <pt x="38" y="0" on="1"/>
        <pt x="46" y="74" on="1"/>
        <pt x="213" y="121" on="1"/>
        <pt x="213" y="1118" on="1"/>
        <pt x="25" y="1168" on="1"/>
        <pt x="38" y="1244" on="1"/>
      </contour>
    </TTGlyph>
    <TTGlyph name="Lslash" xMin="25" yMin="0" xMax="1065" yMax="1244">
      <contour>
        <pt x="588" y="1244" on="1"/>
        <pt x="578" y="1168" on="1"/>
        <pt x="406" y="1121" on="1"/>
        <pt x="406" y="825" on="1"/>
        <pt x="549" y="908" on="1"/>
        <pt x="549" y="796" on="1"/>
        <pt x="406" y="711" on="1"/>
        <pt x="406" y="95" on="1"/>
        <pt x="849" y="95" on="1"/>
        <pt x="980" y="344" on="1"/>
        <pt x="1065" y="331" on="1"/>
        <pt x="1027" y="0" on="1"/>
        <pt x="38" y="0" on="1"/>
        <pt x="46" y="74" on="1"/>
        <pt x="213" y="121" on="1"/>
        <pt x="213" y="597" on="1"/>
        <pt x="59" y="507" on="1"/>
        <pt x="58" y="622" on="1"/>
        <pt x="213" y="712" on="1"/>
        <pt x="213" y="1118" on="1"/>
        <pt x="25" y="1168" on="1"/>
        <pt x="38" y="1244" on="1"/>
      </contour>
    </TTGlyph>
    <TTGlyph name="M" xMin="12" yMin="0" xMax="1661" yMax="1244">
      <contour>
        <pt x="728" y="31" on="1"/>
        <pt x="385" y="966" on="1"/>
        <pt x="321" y="114" on="1"/>
        <pt x="505" y="81" on="1"/>
        <pt x="492" y="0" on="1"/>
        <pt x="12" y="0" on="1"/>
        <pt x="23" y="74" on="1"/>
        <pt x="190" y="121" on="1"/>
        <pt x="262" y="1126" on="1"/>
        <pt x="79" y="1168" on="1"/>
        <pt x="90" y="1244" on="1"/>
        <pt x="490" y="1244" on="1"/>
        <pt x="570" y="1050" on="1"/>
        <pt x="831" y="308" on="1"/>
        <pt x="1141" y="1083" on="1"/>
        <pt x="1211" y="1244" on="1"/>
        <pt x="1606" y="1244" on="1"/>
        <pt x="1596" y="1168" on="1"/>
        <pt x="1427" y="1129" on="1"/>
        <pt x="1480" y="114" on="1"/>
        <pt x="1661" y="81" on="1"/>
        <pt x="1652" y="0" on="1"/>
        <pt x="1116" y="0" on="1"/>
        <pt x="1128" y="74" on="1"/>
        <pt x="1293" y="121" on="1"/>
        <pt x="1237" y="1004" on="1"/>
        <pt x="855" y="51" on="1"/>
      </contour>
    </TTGlyph>
    <TTGlyph name="N" xMin="25" yMin="-30" xMax="1331" yMax="1244">
      <contour>
        <pt x="998" y="-30" on="1"/>
        <pt x="334" y="961" on="1"/>
        <pt x="334" y="114" on="1"/>
        <pt x="517" y="81" on="1"/>
        <pt x="507" y="0" on="1"/>
        <pt x="31" y="0" on="1"/>
        <pt x="39" y="74" on="1"/>
        <pt x="206" y="121" on="1"/>
        <pt x="206" y="1118" on="1"/>
        <pt x="25" y="1168" on="1"/>
        <pt x="35" y="1244" on="1"/>
        <pt x="387" y="1244" on="1"/>
        <pt x="1029" y="272" on="1"/>
        <pt x="1029" y="1126" on="1"/>
        <pt x="844" y="1168" on="1"/>
        <pt x="855" y="1244" on="1"/>
        <pt x="1331" y="1244" on="1"/>
        <pt x="1318" y="1168" on="1"/>
        <pt x="1151" y="1129" on="1"/>
        <pt x="1151" y="2" on="1"/>
      </contour>
    </TTGlyph>
    <TTGlyph name="Nacute" xMin="25" yMin="-30" xMax="1331" yMax="1711">
      <contour>
        <pt x="808" y="1671" on="1"/>
        <pt x="624" y="1354" on="1"/>
        <pt x="573" y="1386" on="1"/>
        <pt x="696" y="1711" on="1"/>
      </contour>
      <contour>
        <pt x="998" y="-30" on="1"/>
        <pt x="334" y="961" on="1"/>
        <pt x="334" y="114" on="1"/>
        <pt x="517" y="81" on="1"/>
        <pt x="507" y="0" on="1"/>
        <pt x="31" y="0" on="1"/>
        <pt x="39" y="74" on="1"/>
        <pt x="206" y="121" on="1"/>
        <pt x="206" y="1118" on="1"/>
        <pt x="25" y="1168" on="1"/>
        <pt x="35" y="1244" on="1"/>
        <pt x="387" y="1244" on="1"/>
        <pt x="1029" y="272" on="1"/>
        <pt x="1029" y="1126" on="1"/>
        <pt x="844" y="1168" on="1"/>
        <pt x="855" y="1244" on="1"/>
        <pt x="1331" y="1244" on="1"/>
        <pt x="1318" y="1168" on="1"/>
        <pt x="1151" y="1129" on="1"/>
        <pt x="1151" y="2" on="1"/>
      </contour>
    </TTGlyph>
    <TTGlyph name="Ncaron" xMin="25" yMin="-30" xMax="1331" yMax="1589">
      <contour>
        <pt x="621" y="1362" on="1"/>
        <pt x="442" y="1527" on="1"/>
        <pt x="522" y="1589" on="1"/>
        <pt x="671" y="1445" on="1"/>
        <pt x="681" y="1445" on="1"/>
        <pt x="804" y="1586" on="1"/>
        <pt x="848" y="1555" on="1"/>
        <pt x="676" y="1376" on="1"/>
      </contour>
      <contour>
        <pt x="998" y="-30" on="1"/>
        <pt x="334" y="961" on="1"/>
        <pt x="334" y="114" on="1"/>
        <pt x="517" y="81" on="1"/>
        <pt x="507" y="0" on="1"/>
        <pt x="31" y="0" on="1"/>
        <pt x="39" y="74" on="1"/>
        <pt x="206" y="121" on="1"/>
        <pt x="206" y="1118" on="1"/>
        <pt x="25" y="1168" on="1"/>
        <pt x="35" y="1244" on="1"/>
        <pt x="387" y="1244" on="1"/>
        <pt x="1029" y="272" on="1"/>
        <pt x="1029" y="1126" on="1"/>
        <pt x="844" y="1168" on="1"/>
        <pt x="855" y="1244" on="1"/>
        <pt x="1331" y="1244" on="1"/>
        <pt x="1318" y="1168" on="1"/>
        <pt x="1151" y="1129" on="1"/>
        <pt x="1151" y="2" on="1"/>
      </contour>
    </TTGlyph>
    <TTGlyph name="Ncommaaccent" xMin="25" yMin="-390" xMax="1331" yMax="1244">
      <contour>
        <pt x="679" y="-85" on="1"/>
        <pt x="716" y="-85" on="0"/>
        <pt x="781" y="-143" on="0"/>
        <pt x="781" y="-203" on="1"/>
        <pt x="781" y="-226" on="0"/>
        <pt x="763" y="-276" on="0"/>
        <pt x="725" y="-331" on="0"/>
        <pt x="648" y="-378" on="0"/>
        <pt x="595" y="-390" on="1"/>
        <pt x="577" y="-336" on="1"/>
        <pt x="670" y="-313" on="0"/>
        <pt x="670" y="-247" on="1"/>
        <pt x="670" y="-224" on="0"/>
        <pt x="609" y="-170" on="0"/>
        <pt x="591" y="-168" on="1"/>
        <pt x="598" y="-133" on="0"/>
        <pt x="645" y="-85" on="0"/>
      </contour>
      <contour>
        <pt x="998" y="-30" on="1"/>
        <pt x="334" y="961" on="1"/>
        <pt x="334" y="114" on="1"/>
        <pt x="517" y="81" on="1"/>
        <pt x="507" y="0" on="1"/>
        <pt x="31" y="0" on="1"/>
        <pt x="39" y="74" on="1"/>
        <pt x="206" y="121" on="1"/>
        <pt x="206" y="1118" on="1"/>
        <pt x="25" y="1168" on="1"/>
        <pt x="35" y="1244" on="1"/>
        <pt x="387" y="1244" on="1"/>
        <pt x="1029" y="272" on="1"/>
        <pt x="1029" y="1126" on="1"/>
        <pt x="844" y="1168" on="1"/>
        <pt x="855" y="1244" on="1"/>
        <pt x="1331" y="1244" on="1"/>
        <pt x="1318" y="1168" on="1"/>
        <pt x="1151" y="1129" on="1"/>
        <pt x="1151" y="2" on="1"/>
      </contour>
    </TTGlyph>
    <TTGlyph name="Ntilde" xMin="25" yMin="-30" xMax="1331" yMax="1537">
      <contour>
        <pt x="419" y="1384" on="1"/>
        <pt x="421" y="1390" on="0"/>
        <pt x="426" y="1409" on="0"/>
        <pt x="447" y="1458" on="0"/>
        <pt x="473" y="1496" on="0"/>
        <pt x="517" y="1527" on="0"/>
        <pt x="541" y="1527" on="1"/>
        <pt x="550" y="1527" on="0"/>
        <pt x="554" y="1526" on="1"/>
        <pt x="777" y="1496" on="1"/>
        <pt x="781" y="1496" on="1"/>
        <pt x="793" y="1496" on="0"/>
        <pt x="821" y="1517" on="0"/>
        <pt x="829" y="1527" on="1"/>
        <pt x="837" y="1537" on="1"/>
        <pt x="885" y="1536" on="1"/>
        <pt x="883" y="1530" on="0"/>
        <pt x="878" y="1510" on="0"/>
        <pt x="855" y="1461" on="0"/>
        <pt x="827" y="1423" on="0"/>
        <pt x="781" y="1392" on="0"/>
        <pt x="755" y="1392" on="1"/>
        <pt x="747" y="1392" on="0"/>
        <pt x="743" y="1392" on="1"/>
        <pt x="520" y="1424" on="1"/>
        <pt x="517" y="1424" on="1"/>
        <pt x="504" y="1424" on="0"/>
        <pt x="475" y="1400" on="0"/>
        <pt x="466" y="1388" on="1"/>
        <pt x="457" y="1376" on="1"/>
      </contour>
      <contour>
        <pt x="998" y="-30" on="1"/>
        <pt x="334" y="961" on="1"/>
        <pt x="334" y="114" on="1"/>
        <pt x="517" y="81" on="1"/>
        <pt x="507" y="0" on="1"/>
        <pt x="31" y="0" on="1"/>
        <pt x="39" y="74" on="1"/>
        <pt x="206" y="121" on="1"/>
        <pt x="206" y="1118" on="1"/>
        <pt x="25" y="1168" on="1"/>
        <pt x="35" y="1244" on="1"/>
        <pt x="387" y="1244" on="1"/>
        <pt x="1029" y="272" on="1"/>
        <pt x="1029" y="1126" on="1"/>
        <pt x="844" y="1168" on="1"/>
        <pt x="855" y="1244" on="1"/>
        <pt x="1331" y="1244" on="1"/>
        <pt x="1318" y="1168" on="1"/>
        <pt x="1151" y="1129" on="1"/>
        <pt x="1151" y="2" on="1"/>
      </contour>
    </TTGlyph>
    <TTGlyph name="O" xMin="49" yMin="-26" xMax="1273" yMax="1273">
      <contour>
        <pt x="647" y="1176" on="1"/>
        <pt x="272" y="1176" on="0"/>
        <pt x="272" y="677" on="1"/>
        <pt x="272" y="587" on="0"/>
        <pt x="300" y="418" on="0"/>
        <pt x="363" y="262" on="0"/>
        <pt x="454" y="147" on="0"/>
        <pt x="591" y="79" on="0"/>
        <pt x="675" y="79" on="1"/>
        <pt x="763" y="79" on="0"/>
        <pt x="898" y="137" on="0"/>
        <pt x="980" y="229" on="0"/>
        <pt x="1031" y="361" on="0"/>
        <pt x="1050" y="495" on="0"/>
        <pt x="1050" y="573" on="1"/>
        <pt x="1050" y="661" on="0"/>
        <pt x="1022" y="829" on="0"/>
        <pt x="959" y="987" on="0"/>
        <pt x="868" y="1105" on="0"/>
        <pt x="730" y="1176" on="0"/>
      </contour>
      <contour>
        <pt x="1273" y="619" on="1"/>
        <pt x="1273" y="488" on="0"/>
        <pt x="1187" y="257" on="0"/>
        <pt x="1026" y="78" on="0"/>
        <pt x="777" y="-26" on="0"/>
        <pt x="626" y="-26" on="1"/>
        <pt x="457" y="-26" on="0"/>
        <pt x="192" y="146" on="0"/>
        <pt x="49" y="439" on="0"/>
        <pt x="49" y="619" on="1"/>
        <pt x="49" y="811" on="0"/>
        <pt x="205" y="1107" on="0"/>
        <pt x="499" y="1273" on="0"/>
        <pt x="695" y="1273" on="1"/>
        <pt x="801" y="1273" on="0"/>
        <pt x="986" y="1205" on="0"/>
        <pt x="1124" y="1083" on="0"/>
        <pt x="1223" y="919" on="0"/>
        <pt x="1273" y="724" on="0"/>
      </contour>
    </TTGlyph>
    <TTGlyph name="OE" xMin="49" yMin="-26" xMax="1655" yMax="1273">
      <contour>
        <pt x="49" y="619" on="1"/>
        <pt x="49" y="909" on="0"/>
        <pt x="200" y="1093" on="1"/>
        <pt x="347" y="1273" on="0"/>
        <pt x="646" y="1273" on="1"/>
        <pt x="752" y="1273" on="0"/>
        <pt x="831" y="1244" on="1"/>
        <pt x="1609" y="1244" on="1"/>
        <pt x="1577" y="924" on="1"/>
        <pt x="1491" y="938" on="1"/>
        <pt x="1450" y="1152" on="1"/>
        <pt x="981" y="1152" on="1"/>
        <pt x="981" y="677" on="1"/>
        <pt x="1268" y="677" on="1"/>
        <pt x="1311" y="796" on="1"/>
        <pt x="1406" y="809" on="1"/>
        <pt x="1373" y="421" on="1"/>
        <pt x="1286" y="408" on="1"/>
        <pt x="1253" y="583" on="1"/>
        <pt x="981" y="583" on="1"/>
        <pt x="981" y="95" on="1"/>
        <pt x="1475" y="95" on="1"/>
        <pt x="1572" y="326" on="1"/>
        <pt x="1655" y="313" on="1"/>
        <pt x="1625" y="0" on="1"/>
        <pt x="785" y="0" on="1"/>
        <pt x="680" y="-26" on="0"/>
        <pt x="577" y="-26" on="1"/>
        <pt x="477" y="-26" on="0"/>
        <pt x="307" y="36" on="0"/>
        <pt x="182" y="151" on="0"/>
        <pt x="94" y="311" on="0"/>
        <pt x="49" y="507" on="0"/>
      </contour>
      <contour>
        <pt x="619" y="79" on="1"/>
        <pt x="710" y="79" on="0"/>
        <pt x="788" y="123" on="1"/>
        <pt x="788" y="1126" on="1"/>
        <pt x="702" y="1176" on="0"/>
        <pt x="598" y="1176" on="1"/>
        <pt x="272" y="1176" on="0"/>
        <pt x="272" y="677" on="1"/>
        <pt x="272" y="595" on="0"/>
        <pt x="294" y="434" on="0"/>
        <pt x="346" y="274" on="0"/>
        <pt x="424" y="154" on="0"/>
        <pt x="544" y="79" on="0"/>
      </contour>
    </TTGlyph>
    <TTGlyph name="Oacute" xMin="49" yMin="-26" xMax="1273" yMax="1706">
      <contour>
        <pt x="855" y="1666" on="1"/>
        <pt x="671" y="1349" on="1"/>
        <pt x="620" y="1381" on="1"/>
        <pt x="743" y="1706" on="1"/>
      </contour>
      <contour>
        <pt x="1273" y="619" on="1"/>
        <pt x="1273" y="488" on="0"/>
        <pt x="1187" y="257" on="0"/>
        <pt x="1026" y="78" on="0"/>
        <pt x="777" y="-26" on="0"/>
        <pt x="626" y="-26" on="1"/>
        <pt x="457" y="-26" on="0"/>
        <pt x="192" y="146" on="0"/>
        <pt x="49" y="439" on="0"/>
        <pt x="49" y="619" on="1"/>
        <pt x="49" y="811" on="0"/>
        <pt x="205" y="1107" on="0"/>
        <pt x="499" y="1273" on="0"/>
        <pt x="695" y="1273" on="1"/>
        <pt x="801" y="1273" on="0"/>
        <pt x="986" y="1205" on="0"/>
        <pt x="1124" y="1083" on="0"/>
        <pt x="1223" y="919" on="0"/>
        <pt x="1273" y="724" on="0"/>
      </contour>
      <contour>
        <pt x="647" y="1176" on="1"/>
        <pt x="272" y="1176" on="0"/>
        <pt x="272" y="677" on="1"/>
        <pt x="272" y="587" on="0"/>
        <pt x="300" y="418" on="0"/>
        <pt x="363" y="262" on="0"/>
        <pt x="454" y="147" on="0"/>
        <pt x="591" y="79" on="0"/>
        <pt x="675" y="79" on="1"/>
        <pt x="763" y="79" on="0"/>
        <pt x="898" y="137" on="0"/>
        <pt x="980" y="229" on="0"/>
        <pt x="1031" y="361" on="0"/>
        <pt x="1050" y="495" on="0"/>
        <pt x="1050" y="573" on="1"/>
        <pt x="1050" y="661" on="0"/>
        <pt x="1022" y="829" on="0"/>
        <pt x="959" y="987" on="0"/>
        <pt x="868" y="1105" on="0"/>
        <pt x="730" y="1176" on="0"/>
      </contour>
    </TTGlyph>
    <TTGlyph name="Ocaron" xMin="49" yMin="-26" xMax="1273" yMax="1589">
      <contour>
        <pt x="637" y="1362" on="1"/>
        <pt x="458" y="1527" on="1"/>
        <pt x="539" y="1589" on="1"/>
        <pt x="688" y="1445" on="1"/>
        <pt x="697" y="1445" on="1"/>
        <pt x="821" y="1586" on="1"/>
        <pt x="864" y="1555" on="1"/>
        <pt x="693" y="1376" on="1"/>
      </contour>
      <contour>
        <pt x="647" y="1176" on="1"/>
        <pt x="272" y="1176" on="0"/>
        <pt x="272" y="677" on="1"/>
        <pt x="272" y="587" on="0"/>
        <pt x="300" y="418" on="0"/>
        <pt x="363" y="262" on="0"/>
        <pt x="454" y="147" on="0"/>
        <pt x="591" y="79" on="0"/>
        <pt x="675" y="79" on="1"/>
        <pt x="763" y="79" on="0"/>
        <pt x="898" y="137" on="0"/>
        <pt x="980" y="229" on="0"/>
        <pt x="1031" y="361" on="0"/>
        <pt x="1050" y="495" on="0"/>
        <pt x="1050" y="573" on="1"/>
        <pt x="1050" y="661" on="0"/>
        <pt x="1022" y="829" on="0"/>
        <pt x="959" y="987" on="0"/>
        <pt x="868" y="1105" on="0"/>
        <pt x="730" y="1176" on="0"/>
      </contour>
      <contour>
        <pt x="1273" y="619" on="1"/>
        <pt x="1273" y="488" on="0"/>
        <pt x="1187" y="257" on="0"/>
        <pt x="1026" y="78" on="0"/>
        <pt x="777" y="-26" on="0"/>
        <pt x="626" y="-26" on="1"/>
        <pt x="457" y="-26" on="0"/>
        <pt x="192" y="146" on="0"/>
        <pt x="49" y="439" on="0"/>
        <pt x="49" y="619" on="1"/>
        <pt x="49" y="811" on="0"/>
        <pt x="205" y="1107" on="0"/>
        <pt x="499" y="1273" on="0"/>
        <pt x="695" y="1273" on="1"/>
        <pt x="801" y="1273" on="0"/>
        <pt x="986" y="1205" on="0"/>
        <pt x="1124" y="1083" on="0"/>
        <pt x="1223" y="919" on="0"/>
        <pt x="1273" y="724" on="0"/>
      </contour>
    </TTGlyph>
    <TTGlyph name="Ocircumflex" xMin="49" yMin="-26" xMax="1273" yMax="1586">
      <contour>
        <pt x="696" y="1586" on="1"/>
        <pt x="873" y="1401" on="1"/>
        <pt x="824" y="1364" on="1"/>
        <pt x="660" y="1473" on="1"/>
        <pt x="651" y="1473" on="1"/>
        <pt x="511" y="1362" on="1"/>
        <pt x="473" y="1392" on="1"/>
        <pt x="641" y="1572" on="1"/>
      </contour>
      <contour>
        <pt x="647" y="1176" on="1"/>
        <pt x="272" y="1176" on="0"/>
        <pt x="272" y="677" on="1"/>
        <pt x="272" y="587" on="0"/>
        <pt x="300" y="418" on="0"/>
        <pt x="363" y="262" on="0"/>
        <pt x="454" y="147" on="0"/>
        <pt x="591" y="79" on="0"/>
        <pt x="675" y="79" on="1"/>
        <pt x="763" y="79" on="0"/>
        <pt x="898" y="137" on="0"/>
        <pt x="980" y="229" on="0"/>
        <pt x="1031" y="361" on="0"/>
        <pt x="1050" y="495" on="0"/>
        <pt x="1050" y="573" on="1"/>
        <pt x="1050" y="661" on="0"/>
        <pt x="1022" y="829" on="0"/>
        <pt x="959" y="987" on="0"/>
        <pt x="868" y="1105" on="0"/>
        <pt x="730" y="1176" on="0"/>
      </contour>
      <contour>
        <pt x="1273" y="619" on="1"/>
        <pt x="1273" y="488" on="0"/>
        <pt x="1187" y="257" on="0"/>
        <pt x="1026" y="78" on="0"/>
        <pt x="777" y="-26" on="0"/>
        <pt x="626" y="-26" on="1"/>
        <pt x="457" y="-26" on="0"/>
        <pt x="192" y="146" on="0"/>
        <pt x="49" y="439" on="0"/>
        <pt x="49" y="619" on="1"/>
        <pt x="49" y="811" on="0"/>
        <pt x="205" y="1107" on="0"/>
        <pt x="499" y="1273" on="0"/>
        <pt x="695" y="1273" on="1"/>
        <pt x="801" y="1273" on="0"/>
        <pt x="986" y="1205" on="0"/>
        <pt x="1124" y="1083" on="0"/>
        <pt x="1223" y="919" on="0"/>
        <pt x="1273" y="724" on="0"/>
      </contour>
    </TTGlyph>
    <TTGlyph name="Odieresis" xMin="49" yMin="-26" xMax="1273" yMax="1531">
      <contour>
        <pt x="803" y="1531" on="1"/>
        <pt x="838" y="1531" on="0"/>
        <pt x="891" y="1487" on="0"/>
        <pt x="891" y="1453" on="1"/>
        <pt x="891" y="1418" on="0"/>
        <pt x="838" y="1373" on="0"/>
        <pt x="803" y="1373" on="1"/>
        <pt x="769" y="1373" on="0"/>
        <pt x="719" y="1418" on="0"/>
        <pt x="719" y="1488" on="0"/>
        <pt x="770" y="1531" on="0"/>
      </contour>
      <contour>
        <pt x="535" y="1531" on="1"/>
        <pt x="570" y="1531" on="0"/>
        <pt x="621" y="1487" on="0"/>
        <pt x="621" y="1453" on="1"/>
        <pt x="621" y="1418" on="0"/>
        <pt x="570" y="1373" on="0"/>
        <pt x="535" y="1373" on="1"/>
        <pt x="501" y="1373" on="0"/>
        <pt x="452" y="1418" on="0"/>
        <pt x="452" y="1488" on="0"/>
        <pt x="502" y="1531" on="0"/>
      </contour>
      <contour>
        <pt x="647" y="1176" on="1"/>
        <pt x="272" y="1176" on="0"/>
        <pt x="272" y="677" on="1"/>
        <pt x="272" y="587" on="0"/>
        <pt x="300" y="418" on="0"/>
        <pt x="363" y="262" on="0"/>
        <pt x="454" y="147" on="0"/>
        <pt x="591" y="79" on="0"/>
        <pt x="675" y="79" on="1"/>
        <pt x="763" y="79" on="0"/>
        <pt x="898" y="137" on="0"/>
        <pt x="980" y="229" on="0"/>
        <pt x="1031" y="361" on="0"/>
        <pt x="1050" y="495" on="0"/>
        <pt x="1050" y="573" on="1"/>
        <pt x="1050" y="661" on="0"/>
        <pt x="1022" y="829" on="0"/>
        <pt x="959" y="987" on="0"/>
        <pt x="868" y="1105" on="0"/>
        <pt x="730" y="1176" on="0"/>
      </contour>
      <contour>
        <pt x="1273" y="619" on="1"/>
        <pt x="1273" y="488" on="0"/>
        <pt x="1187" y="257" on="0"/>
        <pt x="1026" y="78" on="0"/>
        <pt x="777" y="-26" on="0"/>
        <pt x="626" y="-26" on="1"/>
        <pt x="457" y="-26" on="0"/>
        <pt x="192" y="146" on="0"/>
        <pt x="49" y="439" on="0"/>
        <pt x="49" y="619" on="1"/>
        <pt x="49" y="811" on="0"/>
        <pt x="205" y="1107" on="0"/>
        <pt x="499" y="1273" on="0"/>
        <pt x="695" y="1273" on="1"/>
        <pt x="801" y="1273" on="0"/>
        <pt x="986" y="1205" on="0"/>
        <pt x="1124" y="1083" on="0"/>
        <pt x="1223" y="919" on="0"/>
        <pt x="1273" y="724" on="0"/>
      </contour>
    </TTGlyph>
    <TTGlyph name="Ograve" xMin="49" yMin="-26" xMax="1273" yMax="1703">
      <contour>
        <pt x="516" y="1665" on="1"/>
        <pt x="631" y="1703" on="1"/>
        <pt x="763" y="1369" on="1"/>
        <pt x="706" y="1334" on="1"/>
      </contour>
      <contour>
        <pt x="647" y="1176" on="1"/>
        <pt x="272" y="1176" on="0"/>
        <pt x="272" y="677" on="1"/>
        <pt x="272" y="587" on="0"/>
        <pt x="300" y="418" on="0"/>
        <pt x="363" y="262" on="0"/>
        <pt x="454" y="147" on="0"/>
        <pt x="591" y="79" on="0"/>
        <pt x="675" y="79" on="1"/>
        <pt x="763" y="79" on="0"/>
        <pt x="898" y="137" on="0"/>
        <pt x="980" y="229" on="0"/>
        <pt x="1031" y="361" on="0"/>
        <pt x="1050" y="495" on="0"/>
        <pt x="1050" y="573" on="1"/>
        <pt x="1050" y="661" on="0"/>
        <pt x="1022" y="829" on="0"/>
        <pt x="959" y="987" on="0"/>
        <pt x="868" y="1105" on="0"/>
        <pt x="730" y="1176" on="0"/>
      </contour>
      <contour>
        <pt x="1273" y="619" on="1"/>
        <pt x="1273" y="488" on="0"/>
        <pt x="1187" y="257" on="0"/>
        <pt x="1026" y="78" on="0"/>
        <pt x="777" y="-26" on="0"/>
        <pt x="626" y="-26" on="1"/>
        <pt x="457" y="-26" on="0"/>
        <pt x="192" y="146" on="0"/>
        <pt x="49" y="439" on="0"/>
        <pt x="49" y="619" on="1"/>
        <pt x="49" y="811" on="0"/>
        <pt x="205" y="1107" on="0"/>
        <pt x="499" y="1273" on="0"/>
        <pt x="695" y="1273" on="1"/>
        <pt x="801" y="1273" on="0"/>
        <pt x="986" y="1205" on="0"/>
        <pt x="1124" y="1083" on="0"/>
        <pt x="1223" y="919" on="0"/>
        <pt x="1273" y="724" on="0"/>
      </contour>
    </TTGlyph>
    <TTGlyph name="Ohungarumlaut" xMin="49" yMin="-26" xMax="1273" yMax="1622">
      <contour>
        <pt x="1024" y="1531" on="1"/>
        <pt x="734" y="1364" on="1"/>
        <pt x="706" y="1414" on="1"/>
        <pt x="952" y="1614" on="1"/>
      </contour>
      <contour>
        <pt x="822" y="1536" on="1"/>
        <pt x="522" y="1364" on="1"/>
        <pt x="494" y="1414" on="1"/>
        <pt x="748" y="1622" on="1"/>
      </contour>
      <contour>
        <pt x="647" y="1176" on="1"/>
        <pt x="272" y="1176" on="0"/>
        <pt x="272" y="677" on="1"/>
        <pt x="272" y="587" on="0"/>
        <pt x="300" y="418" on="0"/>
        <pt x="363" y="262" on="0"/>
        <pt x="454" y="147" on="0"/>
        <pt x="591" y="79" on="0"/>
        <pt x="675" y="79" on="1"/>
        <pt x="763" y="79" on="0"/>
        <pt x="898" y="137" on="0"/>
        <pt x="980" y="229" on="0"/>
        <pt x="1031" y="361" on="0"/>
        <pt x="1050" y="495" on="0"/>
        <pt x="1050" y="573" on="1"/>
        <pt x="1050" y="661" on="0"/>
        <pt x="1022" y="829" on="0"/>
        <pt x="959" y="987" on="0"/>
        <pt x="868" y="1105" on="0"/>
        <pt x="730" y="1176" on="0"/>
      </contour>
      <contour>
        <pt x="1273" y="619" on="1"/>
        <pt x="1273" y="488" on="0"/>
        <pt x="1187" y="257" on="0"/>
        <pt x="1026" y="78" on="0"/>
        <pt x="777" y="-26" on="0"/>
        <pt x="626" y="-26" on="1"/>
        <pt x="457" y="-26" on="0"/>
        <pt x="192" y="146" on="0"/>
        <pt x="49" y="439" on="0"/>
        <pt x="49" y="619" on="1"/>
        <pt x="49" y="811" on="0"/>
        <pt x="205" y="1107" on="0"/>
        <pt x="499" y="1273" on="0"/>
        <pt x="695" y="1273" on="1"/>
        <pt x="801" y="1273" on="0"/>
        <pt x="986" y="1205" on="0"/>
        <pt x="1124" y="1083" on="0"/>
        <pt x="1223" y="919" on="0"/>
        <pt x="1273" y="724" on="0"/>
      </contour>
    </TTGlyph>
    <TTGlyph name="Omacron" xMin="49" yMin="-26" xMax="1273" yMax="1485">
      <contour>
        <pt x="458" y="1485" on="1"/>
        <pt x="899" y="1485" on="1"/>
        <pt x="886" y="1384" on="1"/>
        <pt x="445" y="1384" on="1"/>
      </contour>
      <contour>
        <pt x="647" y="1176" on="1"/>
        <pt x="272" y="1176" on="0"/>
        <pt x="272" y="677" on="1"/>
        <pt x="272" y="587" on="0"/>
        <pt x="300" y="418" on="0"/>
        <pt x="363" y="262" on="0"/>
        <pt x="454" y="147" on="0"/>
        <pt x="591" y="79" on="0"/>
        <pt x="675" y="79" on="1"/>
        <pt x="763" y="79" on="0"/>
        <pt x="898" y="137" on="0"/>
        <pt x="980" y="229" on="0"/>
        <pt x="1031" y="361" on="0"/>
        <pt x="1050" y="495" on="0"/>
        <pt x="1050" y="573" on="1"/>
        <pt x="1050" y="661" on="0"/>
        <pt x="1022" y="829" on="0"/>
        <pt x="959" y="987" on="0"/>
        <pt x="868" y="1105" on="0"/>
        <pt x="730" y="1176" on="0"/>
      </contour>
      <contour>
        <pt x="1273" y="619" on="1"/>
        <pt x="1273" y="488" on="0"/>
        <pt x="1187" y="257" on="0"/>
        <pt x="1026" y="78" on="0"/>
        <pt x="777" y="-26" on="0"/>
        <pt x="626" y="-26" on="1"/>
        <pt x="457" y="-26" on="0"/>
        <pt x="192" y="146" on="0"/>
        <pt x="49" y="439" on="0"/>
        <pt x="49" y="619" on="1"/>
        <pt x="49" y="811" on="0"/>
        <pt x="205" y="1107" on="0"/>
        <pt x="499" y="1273" on="0"/>
        <pt x="695" y="1273" on="1"/>
        <pt x="801" y="1273" on="0"/>
        <pt x="986" y="1205" on="0"/>
        <pt x="1124" y="1083" on="0"/>
        <pt x="1223" y="919" on="0"/>
        <pt x="1273" y="724" on="0"/>
      </contour>
    </TTGlyph>
    <TTGlyph name="Oslash" xMin="49" yMin="-111" xMax="1273" yMax="1313">
      <contour>
        <pt x="1273" y="619" on="1"/>
        <pt x="1273" y="488" on="0"/>
        <pt x="1187" y="257" on="0"/>
        <pt x="1026" y="78" on="0"/>
        <pt x="777" y="-26" on="0"/>
        <pt x="626" y="-26" on="1"/>
        <pt x="521" y="-26" on="0"/>
        <pt x="424" y="10" on="1"/>
        <pt x="364" y="-103" on="1"/>
        <pt x="216" y="-111" on="1"/>
        <pt x="312" y="68" on="1"/>
        <pt x="188" y="153" on="0"/>
        <pt x="49" y="442" on="0"/>
        <pt x="49" y="619" on="1"/>
        <pt x="49" y="811" on="0"/>
        <pt x="205" y="1107" on="0"/>
        <pt x="499" y="1273" on="0"/>
        <pt x="695" y="1273" on="1"/>
        <pt x="821" y="1273" on="0"/>
        <pt x="930" y="1224" on="1"/>
        <pt x="973" y="1304" on="1"/>
        <pt x="1124" y="1313" on="1"/>
        <pt x="1040" y="1156" on="1"/>
        <pt x="1151" y="1066" on="0"/>
        <pt x="1273" y="783" on="0"/>
      </contour>
      <contour>
        <pt x="647" y="1176" on="1"/>
        <pt x="272" y="1176" on="0"/>
        <pt x="272" y="677" on="1"/>
        <pt x="272" y="536" on="0"/>
        <pt x="341" y="285" on="0"/>
        <pt x="412" y="202" on="1"/>
        <pt x="882" y="1081" on="1"/>
        <pt x="784" y="1176" on="0"/>
      </contour>
      <contour>
        <pt x="936" y="1015" on="1"/>
        <pt x="469" y="146" on="1"/>
        <pt x="556" y="79" on="0"/>
        <pt x="675" y="79" on="1"/>
        <pt x="763" y="79" on="0"/>
        <pt x="898" y="137" on="0"/>
        <pt x="980" y="229" on="0"/>
        <pt x="1031" y="361" on="0"/>
        <pt x="1050" y="495" on="0"/>
        <pt x="1050" y="573" on="1"/>
        <pt x="1050" y="696" on="0"/>
        <pt x="994" y="929" on="0"/>
      </contour>
    </TTGlyph>
    <TTGlyph name="Otilde" xMin="49" yMin="-26" xMax="1273" yMax="1537">
      <contour>
        <pt x="436" y="1384" on="1"/>
        <pt x="438" y="1390" on="0"/>
        <pt x="442" y="1409" on="0"/>
        <pt x="464" y="1458" on="0"/>
        <pt x="489" y="1496" on="0"/>
        <pt x="533" y="1527" on="0"/>
        <pt x="558" y="1527" on="1"/>
        <pt x="567" y="1527" on="0"/>
        <pt x="571" y="1526" on="1"/>
        <pt x="794" y="1496" on="1"/>
        <pt x="798" y="1496" on="1"/>
        <pt x="810" y="1496" on="0"/>
        <pt x="837" y="1517" on="0"/>
        <pt x="846" y="1527" on="1"/>
        <pt x="854" y="1537" on="1"/>
        <pt x="901" y="1536" on="1"/>
        <pt x="899" y="1530" on="0"/>
        <pt x="894" y="1510" on="0"/>
        <pt x="871" y="1461" on="0"/>
        <pt x="844" y="1423" on="0"/>
        <pt x="798" y="1392" on="0"/>
        <pt x="771" y="1392" on="1"/>
        <pt x="763" y="1392" on="0"/>
        <pt x="759" y="1392" on="1"/>
        <pt x="536" y="1424" on="1"/>
        <pt x="534" y="1424" on="1"/>
        <pt x="521" y="1424" on="0"/>
        <pt x="491" y="1400" on="0"/>
        <pt x="482" y="1388" on="1"/>
        <pt x="474" y="1376" on="1"/>
      </contour>
      <contour>
        <pt x="647" y="1176" on="1"/>
        <pt x="272" y="1176" on="0"/>
        <pt x="272" y="677" on="1"/>
        <pt x="272" y="587" on="0"/>
        <pt x="300" y="418" on="0"/>
        <pt x="363" y="262" on="0"/>
        <pt x="454" y="147" on="0"/>
        <pt x="591" y="79" on="0"/>
        <pt x="675" y="79" on="1"/>
        <pt x="763" y="79" on="0"/>
        <pt x="898" y="137" on="0"/>
        <pt x="980" y="229" on="0"/>
        <pt x="1031" y="361" on="0"/>
        <pt x="1050" y="495" on="0"/>
        <pt x="1050" y="573" on="1"/>
        <pt x="1050" y="661" on="0"/>
        <pt x="1022" y="829" on="0"/>
        <pt x="959" y="987" on="0"/>
        <pt x="868" y="1105" on="0"/>
        <pt x="730" y="1176" on="0"/>
      </contour>
      <contour>
        <pt x="1273" y="619" on="1"/>
        <pt x="1273" y="488" on="0"/>
        <pt x="1187" y="257" on="0"/>
        <pt x="1026" y="78" on="0"/>
        <pt x="777" y="-26" on="0"/>
        <pt x="626" y="-26" on="1"/>
        <pt x="457" y="-26" on="0"/>
        <pt x="192" y="146" on="0"/>
        <pt x="49" y="439" on="0"/>
        <pt x="49" y="619" on="1"/>
        <pt x="49" y="811" on="0"/>
        <pt x="205" y="1107" on="0"/>
        <pt x="499" y="1273" on="0"/>
        <pt x="695" y="1273" on="1"/>
        <pt x="801" y="1273" on="0"/>
        <pt x="986" y="1205" on="0"/>
        <pt x="1124" y="1083" on="0"/>
        <pt x="1223" y="919" on="0"/>
        <pt x="1273" y="724" on="0"/>
      </contour>
    </TTGlyph>
    <TTGlyph name="P" xMin="23" yMin="0" xMax="1017" yMax="1255">
      <contour>
        <pt x="1017" y="892" on="1"/>
        <pt x="1017" y="806" on="0"/>
        <pt x="942" y="654" on="0"/>
        <pt x="815" y="552" on="0"/>
        <pt x="647" y="493" on="0"/>
        <pt x="557" y="493" on="1"/>
        <pt x="520" y="493" on="0"/>
        <pt x="457" y="497" on="1"/>
        <pt x="439" y="580" on="1"/>
        <pt x="492" y="582" on="1"/>
        <pt x="653" y="587" on="0"/>
        <pt x="811" y="721" on="0"/>
        <pt x="811" y="855" on="1"/>
        <pt x="811" y="921" on="0"/>
        <pt x="776" y="1033" on="0"/>
        <pt x="702" y="1123" on="0"/>
        <pt x="577" y="1173" on="0"/>
        <pt x="495" y="1173" on="1"/>
        <pt x="393" y="1166" on="1"/>
        <pt x="393" y="123" on="1"/>
        <pt x="629" y="84" on="1"/>
        <pt x="616" y="0" on="1"/>
        <pt x="23" y="0" on="1"/>
        <pt x="33" y="74" on="1"/>
        <pt x="202" y="121" on="1"/>
        <pt x="202" y="1105" on="1"/>
        <pt x="30" y="1134" on="1"/>
        <pt x="39" y="1211" on="1"/>
        <pt x="329" y="1255" on="0"/>
        <pt x="517" y="1255" on="1"/>
        <pt x="1017" y="1256" on="0"/>
      </contour>
    </TTGlyph>
    <TTGlyph name="Q" xMin="61" yMin="-385" xMax="1300" yMax="1273">
      <contour>
        <pt x="665" y="1168" on="1"/>
        <pt x="476" y="1168" on="0"/>
        <pt x="264" y="912" on="0"/>
        <pt x="264" y="680" on="1"/>
        <pt x="264" y="603" on="0"/>
        <pt x="291" y="449" on="0"/>
        <pt x="361" y="286" on="0"/>
        <pt x="467" y="160" on="0"/>
        <pt x="641" y="73" on="0"/>
        <pt x="750" y="67" on="1"/>
        <pt x="848" y="92" on="0"/>
        <pt x="985" y="189" on="0"/>
        <pt x="1060" y="325" on="0"/>
        <pt x="1093" y="473" on="0"/>
        <pt x="1093" y="563" on="1"/>
        <pt x="1093" y="674" on="0"/>
        <pt x="1032" y="889" on="0"/>
        <pt x="925" y="1062" on="0"/>
        <pt x="760" y="1168" on="0"/>
      </contour>
      <contour>
        <pt x="703" y="-21" on="1"/>
        <pt x="688" y="-26" on="0"/>
        <pt x="639" y="-26" on="1"/>
        <pt x="470" y="-26" on="0"/>
        <pt x="205" y="140" on="0"/>
        <pt x="61" y="428" on="0"/>
        <pt x="61" y="608" on="1"/>
        <pt x="61" y="800" on="0"/>
        <pt x="225" y="1102" on="0"/>
        <pt x="526" y="1273" on="0"/>
        <pt x="721" y="1273" on="1"/>
        <pt x="895" y="1273" on="0"/>
        <pt x="1161" y="1096" on="0"/>
        <pt x="1300" y="805" on="0"/>
        <pt x="1300" y="629" on="1"/>
        <pt x="1300" y="481" on="0"/>
        <pt x="1188" y="220" on="0"/>
        <pt x="967" y="30" on="0"/>
        <pt x="819" y="-7" on="1"/>
        <pt x="843" y="-62" on="0"/>
        <pt x="901" y="-138" on="0"/>
        <pt x="998" y="-208" on="0"/>
        <pt x="1147" y="-258" on="0"/>
        <pt x="1252" y="-276" on="1"/>
        <pt x="1252" y="-324" on="0"/>
        <pt x="1242" y="-350" on="1"/>
        <pt x="1169" y="-385" on="0"/>
        <pt x="1065" y="-385" on="1"/>
        <pt x="973" y="-385" on="0"/>
        <pt x="817" y="-299" on="0"/>
        <pt x="712" y="-131" on="0"/>
      </contour>
    </TTGlyph>
    <TTGlyph name="R" xMin="23" yMin="-21" xMax="1217" yMax="1253">
      <contour>
        <pt x="998" y="943" on="1"/>
        <pt x="998" y="841" on="0"/>
        <pt x="847" y="648" on="0"/>
        <pt x="711" y="600" on="1"/>
        <pt x="711" y="598" on="1"/>
        <pt x="892" y="349" on="1"/>
        <pt x="931" y="296" on="0"/>
        <pt x="963" y="252" on="0"/>
        <pt x="1020" y="180" on="0"/>
        <pt x="1053" y="150" on="0"/>
        <pt x="1104" y="109" on="0"/>
        <pt x="1153" y="86" on="0"/>
        <pt x="1184" y="77" on="1"/>
        <pt x="1217" y="67" on="1"/>
        <pt x="1202" y="-2" on="1"/>
        <pt x="1145" y="-22" on="0"/>
        <pt x="1082" y="-21" on="1"/>
        <pt x="971" y="-21" on="0"/>
        <pt x="799" y="123" on="0"/>
        <pt x="726" y="253" on="1"/>
        <pt x="567" y="537" on="1"/>
        <pt x="393" y="537" on="1"/>
        <pt x="393" y="126" on="1"/>
        <pt x="582" y="82" on="1"/>
        <pt x="572" y="0" on="1"/>
        <pt x="23" y="0" on="1"/>
        <pt x="33" y="74" on="1"/>
        <pt x="202" y="121" on="1"/>
        <pt x="202" y="1101" on="1"/>
        <pt x="30" y="1131" on="1"/>
        <pt x="39" y="1207" on="1"/>
        <pt x="333" y="1253" on="0"/>
        <pt x="497" y="1253" on="1"/>
        <pt x="612" y="1253" on="0"/>
        <pt x="790" y="1221" on="0"/>
        <pt x="926" y="1150" on="0"/>
        <pt x="998" y="1029" on="0"/>
      </contour>
      <contour>
        <pt x="591" y="628" on="1"/>
        <pt x="675" y="656" on="0"/>
        <pt x="791" y="788" on="0"/>
        <pt x="791" y="887" on="1"/>
        <pt x="791" y="1013" on="0"/>
        <pt x="643" y="1170" on="0"/>
        <pt x="513" y="1170" on="1"/>
        <pt x="482" y="1170" on="0"/>
        <pt x="422" y="1167" on="0"/>
        <pt x="408" y="1166" on="1"/>
        <pt x="393" y="1165" on="1"/>
        <pt x="393" y="628" on="1"/>
      </contour>
    </TTGlyph>
    <TTGlyph name="Racute" xMin="23" yMin="-21" xMax="1217" yMax="1711">
      <contour>
        <pt x="713" y="1671" on="1"/>
        <pt x="530" y="1354" on="1"/>
        <pt x="479" y="1386" on="1"/>
        <pt x="601" y="1711" on="1"/>
      </contour>
      <contour>
        <pt x="998" y="943" on="1"/>
        <pt x="998" y="841" on="0"/>
        <pt x="847" y="648" on="0"/>
        <pt x="711" y="600" on="1"/>
        <pt x="711" y="598" on="1"/>
        <pt x="892" y="349" on="1"/>
        <pt x="931" y="296" on="0"/>
        <pt x="963" y="252" on="0"/>
        <pt x="1020" y="180" on="0"/>
        <pt x="1053" y="150" on="0"/>
        <pt x="1104" y="109" on="0"/>
        <pt x="1153" y="86" on="0"/>
        <pt x="1184" y="77" on="1"/>
        <pt x="1217" y="67" on="1"/>
        <pt x="1202" y="-2" on="1"/>
        <pt x="1145" y="-22" on="0"/>
        <pt x="1082" y="-21" on="1"/>
        <pt x="971" y="-21" on="0"/>
        <pt x="799" y="123" on="0"/>
        <pt x="726" y="253" on="1"/>
        <pt x="567" y="537" on="1"/>
        <pt x="393" y="537" on="1"/>
        <pt x="393" y="126" on="1"/>
        <pt x="582" y="82" on="1"/>
        <pt x="572" y="0" on="1"/>
        <pt x="23" y="0" on="1"/>
        <pt x="33" y="74" on="1"/>
        <pt x="202" y="121" on="1"/>
        <pt x="202" y="1101" on="1"/>
        <pt x="30" y="1131" on="1"/>
        <pt x="39" y="1207" on="1"/>
        <pt x="333" y="1253" on="0"/>
        <pt x="497" y="1253" on="1"/>
        <pt x="612" y="1253" on="0"/>
        <pt x="790" y="1221" on="0"/>
        <pt x="926" y="1150" on="0"/>
        <pt x="998" y="1029" on="0"/>
      </contour>
      <contour>
        <pt x="591" y="628" on="1"/>
        <pt x="675" y="656" on="0"/>
        <pt x="791" y="788" on="0"/>
        <pt x="791" y="887" on="1"/>
        <pt x="791" y="1013" on="0"/>
        <pt x="643" y="1170" on="0"/>
        <pt x="513" y="1170" on="1"/>
        <pt x="482" y="1170" on="0"/>
        <pt x="422" y="1167" on="0"/>
        <pt x="408" y="1166" on="1"/>
        <pt x="393" y="1165" on="1"/>
        <pt x="393" y="628" on="1"/>
      </contour>
    </TTGlyph>
    <TTGlyph name="Rcaron" xMin="23" yMin="-21" xMax="1217" yMax="1589">
      <contour>
        <pt x="526" y="1362" on="1"/>
        <pt x="347" y="1527" on="1"/>
        <pt x="428" y="1589" on="1"/>
        <pt x="577" y="1445" on="1"/>
        <pt x="586" y="1445" on="1"/>
        <pt x="710" y="1586" on="1"/>
        <pt x="753" y="1555" on="1"/>
        <pt x="582" y="1376" on="1"/>
      </contour>
      <contour>
        <pt x="998" y="943" on="1"/>
        <pt x="998" y="841" on="0"/>
        <pt x="847" y="648" on="0"/>
        <pt x="711" y="600" on="1"/>
        <pt x="711" y="598" on="1"/>
        <pt x="892" y="349" on="1"/>
        <pt x="931" y="296" on="0"/>
        <pt x="963" y="252" on="0"/>
        <pt x="1020" y="180" on="0"/>
        <pt x="1053" y="150" on="0"/>
        <pt x="1104" y="109" on="0"/>
        <pt x="1153" y="86" on="0"/>
        <pt x="1184" y="77" on="1"/>
        <pt x="1217" y="67" on="1"/>
        <pt x="1202" y="-2" on="1"/>
        <pt x="1145" y="-22" on="0"/>
        <pt x="1082" y="-21" on="1"/>
        <pt x="971" y="-21" on="0"/>
        <pt x="799" y="123" on="0"/>
        <pt x="726" y="253" on="1"/>
        <pt x="567" y="537" on="1"/>
        <pt x="393" y="537" on="1"/>
        <pt x="393" y="126" on="1"/>
        <pt x="582" y="82" on="1"/>
        <pt x="572" y="0" on="1"/>
        <pt x="23" y="0" on="1"/>
        <pt x="33" y="74" on="1"/>
        <pt x="202" y="121" on="1"/>
        <pt x="202" y="1101" on="1"/>
        <pt x="30" y="1131" on="1"/>
        <pt x="39" y="1207" on="1"/>
        <pt x="333" y="1253" on="0"/>
        <pt x="497" y="1253" on="1"/>
        <pt x="612" y="1253" on="0"/>
        <pt x="790" y="1221" on="0"/>
        <pt x="926" y="1150" on="0"/>
        <pt x="998" y="1029" on="0"/>
      </contour>
      <contour>
        <pt x="591" y="628" on="1"/>
        <pt x="675" y="656" on="0"/>
        <pt x="791" y="788" on="0"/>
        <pt x="791" y="887" on="1"/>
        <pt x="791" y="1013" on="0"/>
        <pt x="643" y="1170" on="0"/>
        <pt x="513" y="1170" on="1"/>
        <pt x="482" y="1170" on="0"/>
        <pt x="422" y="1167" on="0"/>
        <pt x="408" y="1166" on="1"/>
        <pt x="393" y="1165" on="1"/>
        <pt x="393" y="628" on="1"/>
      </contour>
    </TTGlyph>
    <TTGlyph name="Rcommaaccent" xMin="23" yMin="-390" xMax="1217" yMax="1253">
      <contour>
        <pt x="714" y="-85" on="1"/>
        <pt x="751" y="-85" on="0"/>
        <pt x="815" y="-143" on="0"/>
        <pt x="815" y="-203" on="1"/>
        <pt x="815" y="-226" on="0"/>
        <pt x="798" y="-276" on="0"/>
        <pt x="759" y="-331" on="0"/>
        <pt x="683" y="-378" on="0"/>
        <pt x="630" y="-390" on="1"/>
        <pt x="612" y="-336" on="1"/>
        <pt x="705" y="-313" on="0"/>
        <pt x="705" y="-247" on="1"/>
        <pt x="705" y="-224" on="0"/>
        <pt x="644" y="-170" on="0"/>
        <pt x="625" y="-168" on="1"/>
        <pt x="632" y="-133" on="0"/>
        <pt x="680" y="-85" on="0"/>
      </contour>
      <contour>
        <pt x="998" y="943" on="1"/>
        <pt x="998" y="841" on="0"/>
        <pt x="847" y="648" on="0"/>
        <pt x="711" y="600" on="1"/>
        <pt x="711" y="598" on="1"/>
        <pt x="892" y="349" on="1"/>
        <pt x="931" y="296" on="0"/>
        <pt x="963" y="252" on="0"/>
        <pt x="1020" y="180" on="0"/>
        <pt x="1053" y="150" on="0"/>
        <pt x="1104" y="109" on="0"/>
        <pt x="1153" y="86" on="0"/>
        <pt x="1184" y="77" on="1"/>
        <pt x="1217" y="67" on="1"/>
        <pt x="1202" y="-2" on="1"/>
        <pt x="1145" y="-22" on="0"/>
        <pt x="1082" y="-21" on="1"/>
        <pt x="971" y="-21" on="0"/>
        <pt x="799" y="123" on="0"/>
        <pt x="726" y="253" on="1"/>
        <pt x="567" y="537" on="1"/>
        <pt x="393" y="537" on="1"/>
        <pt x="393" y="126" on="1"/>
        <pt x="582" y="82" on="1"/>
        <pt x="572" y="0" on="1"/>
        <pt x="23" y="0" on="1"/>
        <pt x="33" y="74" on="1"/>
        <pt x="202" y="121" on="1"/>
        <pt x="202" y="1101" on="1"/>
        <pt x="30" y="1131" on="1"/>
        <pt x="39" y="1207" on="1"/>
        <pt x="333" y="1253" on="0"/>
        <pt x="497" y="1253" on="1"/>
        <pt x="612" y="1253" on="0"/>
        <pt x="790" y="1221" on="0"/>
        <pt x="926" y="1150" on="0"/>
        <pt x="998" y="1029" on="0"/>
      </contour>
      <contour>
        <pt x="591" y="628" on="1"/>
        <pt x="675" y="656" on="0"/>
        <pt x="791" y="788" on="0"/>
        <pt x="791" y="887" on="1"/>
        <pt x="791" y="1013" on="0"/>
        <pt x="643" y="1170" on="0"/>
        <pt x="513" y="1170" on="1"/>
        <pt x="482" y="1170" on="0"/>
        <pt x="422" y="1167" on="0"/>
        <pt x="408" y="1166" on="1"/>
        <pt x="393" y="1165" on="1"/>
        <pt x="393" y="628" on="1"/>
      </contour>
    </TTGlyph>
    <TTGlyph name="S" xMin="44" yMin="-25" xMax="826" yMax="1270">
      <contour>
        <pt x="718" y="887" on="1"/>
        <pt x="619" y="898" on="1"/>
        <pt x="593" y="1090" on="1"/>
        <pt x="577" y="1122" on="0"/>
        <pt x="480" y="1184" on="0"/>
        <pt x="424" y="1184" on="1"/>
        <pt x="343" y="1184" on="0"/>
        <pt x="241" y="1089" on="0"/>
        <pt x="241" y="996" on="1"/>
        <pt x="241" y="950" on="0"/>
        <pt x="281" y="872" on="0"/>
        <pt x="349" y="813" on="0"/>
        <pt x="437" y="759" on="0"/>
        <pt x="533" y="709" on="0"/>
        <pt x="630" y="656" on="0"/>
        <pt x="718" y="591" on="0"/>
        <pt x="785" y="517" on="0"/>
        <pt x="826" y="414" on="0"/>
        <pt x="826" y="354" on="1"/>
        <pt x="826" y="270" on="0"/>
        <pt x="751" y="126" on="0"/>
        <pt x="628" y="30" on="0"/>
        <pt x="467" y="-25" on="0"/>
        <pt x="382" y="-25" on="1"/>
        <pt x="278" y="-25" on="0"/>
        <pt x="95" y="60" on="0"/>
        <pt x="44" y="123" on="1"/>
        <pt x="58" y="390" on="1"/>
        <pt x="160" y="375" on="1"/>
        <pt x="198" y="187" on="1"/>
        <pt x="227" y="141" on="0"/>
        <pt x="338" y="77" on="0"/>
        <pt x="405" y="77" on="1"/>
        <pt x="447" y="77" on="0"/>
        <pt x="527" y="102" on="0"/>
        <pt x="599" y="150" on="0"/>
        <pt x="642" y="234" on="0"/>
        <pt x="642" y="340" on="0"/>
        <pt x="579" y="428" on="0"/>
        <pt x="478" y="493" on="0"/>
        <pt x="356" y="558" on="0"/>
        <pt x="234" y="631" on="0"/>
        <pt x="132" y="716" on="0"/>
        <pt x="69" y="841" on="0"/>
        <pt x="69" y="916" on="1"/>
        <pt x="69" y="1025" on="0"/>
        <pt x="183" y="1189" on="0"/>
        <pt x="357" y="1270" on="0"/>
        <pt x="457" y="1270" on="1"/>
        <pt x="620" y="1270" on="0"/>
        <pt x="740" y="1170" on="1"/>
      </contour>
    </TTGlyph>
    <TTGlyph name="Sacute" xMin="44" yMin="-25" xMax="826" yMax="1709">
      <contour>
        <pt x="600" y="1670" on="1"/>
        <pt x="416" y="1352" on="1"/>
        <pt x="365" y="1384" on="1"/>
        <pt x="488" y="1709" on="1"/>
      </contour>
      <contour>
        <pt x="718" y="887" on="1"/>
        <pt x="619" y="898" on="1"/>
        <pt x="593" y="1090" on="1"/>
        <pt x="577" y="1122" on="0"/>
        <pt x="480" y="1184" on="0"/>
        <pt x="424" y="1184" on="1"/>
        <pt x="343" y="1184" on="0"/>
        <pt x="241" y="1089" on="0"/>
        <pt x="241" y="996" on="1"/>
        <pt x="241" y="950" on="0"/>
        <pt x="281" y="872" on="0"/>
        <pt x="349" y="813" on="0"/>
        <pt x="437" y="759" on="0"/>
        <pt x="533" y="709" on="0"/>
        <pt x="630" y="656" on="0"/>
        <pt x="718" y="591" on="0"/>
        <pt x="785" y="517" on="0"/>
        <pt x="826" y="414" on="0"/>
        <pt x="826" y="354" on="1"/>
        <pt x="826" y="270" on="0"/>
        <pt x="751" y="126" on="0"/>
        <pt x="628" y="30" on="0"/>
        <pt x="467" y="-25" on="0"/>
        <pt x="382" y="-25" on="1"/>
        <pt x="278" y="-25" on="0"/>
        <pt x="95" y="60" on="0"/>
        <pt x="44" y="123" on="1"/>
        <pt x="58" y="390" on="1"/>
        <pt x="160" y="375" on="1"/>
        <pt x="198" y="187" on="1"/>
        <pt x="227" y="141" on="0"/>
        <pt x="338" y="77" on="0"/>
        <pt x="405" y="77" on="1"/>
        <pt x="447" y="77" on="0"/>
        <pt x="527" y="102" on="0"/>
        <pt x="599" y="150" on="0"/>
        <pt x="642" y="234" on="0"/>
        <pt x="642" y="340" on="0"/>
        <pt x="579" y="428" on="0"/>
        <pt x="478" y="493" on="0"/>
        <pt x="356" y="558" on="0"/>
        <pt x="234" y="631" on="0"/>
        <pt x="132" y="716" on="0"/>
        <pt x="69" y="841" on="0"/>
        <pt x="69" y="916" on="1"/>
        <pt x="69" y="1025" on="0"/>
        <pt x="183" y="1189" on="0"/>
        <pt x="357" y="1270" on="0"/>
        <pt x="457" y="1270" on="1"/>
        <pt x="620" y="1270" on="0"/>
        <pt x="740" y="1170" on="1"/>
      </contour>
    </TTGlyph>
    <TTGlyph name="Scaron" xMin="44" yMin="-25" xMax="826" yMax="1587">
      <contour>
        <pt x="413" y="1360" on="1"/>
        <pt x="234" y="1526" on="1"/>
        <pt x="314" y="1587" on="1"/>
        <pt x="463" y="1443" on="1"/>
        <pt x="473" y="1443" on="1"/>
        <pt x="596" y="1584" on="1"/>
        <pt x="640" y="1554" on="1"/>
        <pt x="468" y="1374" on="1"/>
      </contour>
      <contour>
        <pt x="718" y="887" on="1"/>
        <pt x="619" y="898" on="1"/>
        <pt x="593" y="1090" on="1"/>
        <pt x="577" y="1122" on="0"/>
        <pt x="480" y="1184" on="0"/>
        <pt x="424" y="1184" on="1"/>
        <pt x="343" y="1184" on="0"/>
        <pt x="241" y="1089" on="0"/>
        <pt x="241" y="996" on="1"/>
        <pt x="241" y="950" on="0"/>
        <pt x="281" y="872" on="0"/>
        <pt x="349" y="813" on="0"/>
        <pt x="437" y="759" on="0"/>
        <pt x="533" y="709" on="0"/>
        <pt x="630" y="656" on="0"/>
        <pt x="718" y="591" on="0"/>
        <pt x="785" y="517" on="0"/>
        <pt x="826" y="414" on="0"/>
        <pt x="826" y="354" on="1"/>
        <pt x="826" y="270" on="0"/>
        <pt x="751" y="126" on="0"/>
        <pt x="628" y="30" on="0"/>
        <pt x="467" y="-25" on="0"/>
        <pt x="382" y="-25" on="1"/>
        <pt x="278" y="-25" on="0"/>
        <pt x="95" y="60" on="0"/>
        <pt x="44" y="123" on="1"/>
        <pt x="58" y="390" on="1"/>
        <pt x="160" y="375" on="1"/>
        <pt x="198" y="187" on="1"/>
        <pt x="227" y="141" on="0"/>
        <pt x="338" y="77" on="0"/>
        <pt x="405" y="77" on="1"/>
        <pt x="447" y="77" on="0"/>
        <pt x="527" y="102" on="0"/>
        <pt x="599" y="150" on="0"/>
        <pt x="642" y="234" on="0"/>
        <pt x="642" y="340" on="0"/>
        <pt x="579" y="428" on="0"/>
        <pt x="478" y="493" on="0"/>
        <pt x="356" y="558" on="0"/>
        <pt x="234" y="631" on="0"/>
        <pt x="132" y="716" on="0"/>
        <pt x="69" y="841" on="0"/>
        <pt x="69" y="916" on="1"/>
        <pt x="69" y="1025" on="0"/>
        <pt x="183" y="1189" on="0"/>
        <pt x="357" y="1270" on="0"/>
        <pt x="457" y="1270" on="1"/>
        <pt x="620" y="1270" on="0"/>
        <pt x="740" y="1170" on="1"/>
      </contour>
    </TTGlyph>
    <TTGlyph name="Scedilla" xMin="44" yMin="-390" xMax="826" yMax="1270">
      <contour>
        <pt x="429" y="-76" on="1"/>
        <pt x="518" y="-153" on="0"/>
        <pt x="518" y="-226" on="1"/>
        <pt x="518" y="-330" on="0"/>
        <pt x="318" y="-390" on="1"/>
        <pt x="299" y="-331" on="1"/>
        <pt x="340" y="-317" on="0"/>
        <pt x="385" y="-271" on="0"/>
        <pt x="385" y="-248" on="1"/>
        <pt x="385" y="-208" on="0"/>
        <pt x="312" y="-137" on="1"/>
        <pt x="390" y="-25" on="1"/>
        <pt x="382" y="-25" on="1"/>
        <pt x="278" y="-25" on="0"/>
        <pt x="95" y="60" on="0"/>
        <pt x="44" y="123" on="1"/>
        <pt x="58" y="390" on="1"/>
        <pt x="160" y="375" on="1"/>
        <pt x="198" y="187" on="1"/>
        <pt x="227" y="141" on="0"/>
        <pt x="338" y="77" on="0"/>
        <pt x="405" y="77" on="1"/>
        <pt x="447" y="77" on="0"/>
        <pt x="527" y="102" on="0"/>
        <pt x="599" y="150" on="0"/>
        <pt x="642" y="234" on="0"/>
        <pt x="642" y="340" on="0"/>
        <pt x="579" y="428" on="0"/>
        <pt x="478" y="493" on="0"/>
        <pt x="356" y="558" on="0"/>
        <pt x="234" y="631" on="0"/>
        <pt x="132" y="716" on="0"/>
        <pt x="69" y="841" on="0"/>
        <pt x="69" y="916" on="1"/>
        <pt x="69" y="1025" on="0"/>
        <pt x="183" y="1189" on="0"/>
        <pt x="357" y="1270" on="0"/>
        <pt x="457" y="1270" on="1"/>
        <pt x="620" y="1270" on="0"/>
        <pt x="740" y="1170" on="1"/>
        <pt x="718" y="887" on="1"/>
        <pt x="619" y="898" on="1"/>
        <pt x="593" y="1090" on="1"/>
        <pt x="577" y="1122" on="0"/>
        <pt x="480" y="1184" on="0"/>
        <pt x="424" y="1184" on="1"/>
        <pt x="343" y="1184" on="0"/>
        <pt x="241" y="1089" on="0"/>
        <pt x="241" y="996" on="1"/>
        <pt x="241" y="950" on="0"/>
        <pt x="281" y="872" on="0"/>
        <pt x="349" y="813" on="0"/>
        <pt x="437" y="759" on="0"/>
        <pt x="533" y="709" on="0"/>
        <pt x="630" y="656" on="0"/>
        <pt x="718" y="591" on="0"/>
        <pt x="785" y="517" on="0"/>
        <pt x="826" y="414" on="0"/>
        <pt x="826" y="354" on="1"/>
        <pt x="826" y="257" on="0"/>
        <pt x="727" y="97" on="0"/>
        <pt x="568" y="-1" on="0"/>
        <pt x="470" y="-17" on="1"/>
      </contour>
    </TTGlyph>
    <TTGlyph name="Scommaaccent" xMin="44" yMin="-386" xMax="826" yMax="1270">
      <contour>
        <pt x="410" y="-81" on="1"/>
        <pt x="447" y="-81" on="0"/>
        <pt x="511" y="-139" on="0"/>
        <pt x="511" y="-199" on="1"/>
        <pt x="511" y="-222" on="0"/>
        <pt x="493" y="-271" on="0"/>
        <pt x="455" y="-327" on="0"/>
        <pt x="378" y="-373" on="0"/>
        <pt x="326" y="-386" on="1"/>
        <pt x="308" y="-332" on="1"/>
        <pt x="401" y="-309" on="0"/>
        <pt x="401" y="-243" on="1"/>
        <pt x="401" y="-220" on="0"/>
        <pt x="340" y="-166" on="0"/>
        <pt x="321" y="-164" on="1"/>
        <pt x="328" y="-129" on="0"/>
        <pt x="376" y="-81" on="0"/>
      </contour>
      <contour>
        <pt x="718" y="887" on="1"/>
        <pt x="619" y="898" on="1"/>
        <pt x="593" y="1090" on="1"/>
        <pt x="577" y="1122" on="0"/>
        <pt x="480" y="1184" on="0"/>
        <pt x="424" y="1184" on="1"/>
        <pt x="343" y="1184" on="0"/>
        <pt x="241" y="1089" on="0"/>
        <pt x="241" y="996" on="1"/>
        <pt x="241" y="950" on="0"/>
        <pt x="281" y="872" on="0"/>
        <pt x="349" y="813" on="0"/>
        <pt x="437" y="759" on="0"/>
        <pt x="533" y="709" on="0"/>
        <pt x="630" y="656" on="0"/>
        <pt x="718" y="591" on="0"/>
        <pt x="785" y="517" on="0"/>
        <pt x="826" y="414" on="0"/>
        <pt x="826" y="354" on="1"/>
        <pt x="826" y="270" on="0"/>
        <pt x="751" y="126" on="0"/>
        <pt x="628" y="30" on="0"/>
        <pt x="467" y="-25" on="0"/>
        <pt x="382" y="-25" on="1"/>
        <pt x="278" y="-25" on="0"/>
        <pt x="95" y="60" on="0"/>
        <pt x="44" y="123" on="1"/>
        <pt x="58" y="390" on="1"/>
        <pt x="160" y="375" on="1"/>
        <pt x="198" y="187" on="1"/>
        <pt x="227" y="141" on="0"/>
        <pt x="338" y="77" on="0"/>
        <pt x="405" y="77" on="1"/>
        <pt x="447" y="77" on="0"/>
        <pt x="527" y="102" on="0"/>
        <pt x="599" y="150" on="0"/>
        <pt x="642" y="234" on="0"/>
        <pt x="642" y="340" on="0"/>
        <pt x="579" y="428" on="0"/>
        <pt x="478" y="493" on="0"/>
        <pt x="356" y="558" on="0"/>
        <pt x="234" y="631" on="0"/>
        <pt x="132" y="716" on="0"/>
        <pt x="69" y="841" on="0"/>
        <pt x="69" y="916" on="1"/>
        <pt x="69" y="1025" on="0"/>
        <pt x="183" y="1189" on="0"/>
        <pt x="357" y="1270" on="0"/>
        <pt x="457" y="1270" on="1"/>
        <pt x="620" y="1270" on="0"/>
        <pt x="740" y="1170" on="1"/>
      </contour>
    </TTGlyph>
    <TTGlyph name="T" xMin="8" yMin="0" xMax="1119" yMax="1244">
      <contour>
        <pt x="8" y="1244" on="1"/>
        <pt x="1119" y="1244" on="1"/>
        <pt x="1085" y="906" on="1"/>
        <pt x="991" y="921" on="1"/>
        <pt x="952" y="1152" on="1"/>
        <pt x="647" y="1152" on="1"/>
        <pt x="647" y="114" on="1"/>
        <pt x="832" y="81" on="1"/>
        <pt x="819" y="0" on="1"/>
        <pt x="279" y="0" on="1"/>
        <pt x="287" y="74" on="1"/>
        <pt x="456" y="121" on="1"/>
        <pt x="456" y="1152" on="1"/>
        <pt x="160" y="1152" on="1"/>
        <pt x="108" y="910" on="1"/>
        <pt x="16" y="923" on="1"/>
      </contour>
    </TTGlyph>
    <TTGlyph name="Tbar" xMin="8" yMin="0" xMax="1119" yMax="1480">
      <contour>
        <pt x="346" y="1480" on="1"/>
        <pt x="787" y="1480" on="1"/>
        <pt x="774" y="1379" on="1"/>
        <pt x="333" y="1379" on="1"/>
      </contour>
      <contour>
        <pt x="8" y="1244" on="1"/>
        <pt x="1119" y="1244" on="1"/>
        <pt x="1085" y="906" on="1"/>
        <pt x="991" y="921" on="1"/>
        <pt x="952" y="1152" on="1"/>
        <pt x="647" y="1152" on="1"/>
        <pt x="647" y="114" on="1"/>
        <pt x="832" y="81" on="1"/>
        <pt x="819" y="0" on="1"/>
        <pt x="279" y="0" on="1"/>
        <pt x="287" y="74" on="1"/>
        <pt x="456" y="121" on="1"/>
        <pt x="456" y="1152" on="1"/>
        <pt x="160" y="1152" on="1"/>
        <pt x="108" y="910" on="1"/>
        <pt x="16" y="923" on="1"/>
      </contour>
    </TTGlyph>
    <TTGlyph name="Tcaron" xMin="8" yMin="0" xMax="1119" yMax="1589">
      <contour>
        <pt x="512" y="1362" on="1"/>
        <pt x="332" y="1527" on="1"/>
        <pt x="413" y="1589" on="1"/>
        <pt x="562" y="1445" on="1"/>
        <pt x="572" y="1445" on="1"/>
        <pt x="695" y="1586" on="1"/>
        <pt x="739" y="1555" on="1"/>
        <pt x="567" y="1376" on="1"/>
      </contour>
      <contour>
        <pt x="8" y="1244" on="1"/>
        <pt x="1119" y="1244" on="1"/>
        <pt x="1085" y="906" on="1"/>
        <pt x="991" y="921" on="1"/>
        <pt x="952" y="1152" on="1"/>
        <pt x="647" y="1152" on="1"/>
        <pt x="647" y="114" on="1"/>
        <pt x="832" y="81" on="1"/>
        <pt x="819" y="0" on="1"/>
        <pt x="279" y="0" on="1"/>
        <pt x="287" y="74" on="1"/>
        <pt x="456" y="121" on="1"/>
        <pt x="456" y="1152" on="1"/>
        <pt x="160" y="1152" on="1"/>
        <pt x="108" y="910" on="1"/>
        <pt x="16" y="923" on="1"/>
      </contour>
    </TTGlyph>
    <TTGlyph name="Tcedilla" xMin="8" yMin="-390" xMax="1119" yMax="1244">
      <contour>
        <pt x="580" y="-76" on="1"/>
        <pt x="669" y="-153" on="0"/>
        <pt x="669" y="-226" on="1"/>
        <pt x="669" y="-330" on="0"/>
        <pt x="469" y="-390" on="1"/>
        <pt x="449" y="-331" on="1"/>
        <pt x="490" y="-317" on="0"/>
        <pt x="535" y="-271" on="0"/>
        <pt x="535" y="-248" on="1"/>
        <pt x="535" y="-208" on="0"/>
        <pt x="462" y="-137" on="1"/>
        <pt x="558" y="0" on="1"/>
        <pt x="279" y="0" on="1"/>
        <pt x="287" y="74" on="1"/>
        <pt x="456" y="121" on="1"/>
        <pt x="456" y="1152" on="1"/>
        <pt x="160" y="1152" on="1"/>
        <pt x="108" y="910" on="1"/>
        <pt x="16" y="923" on="1"/>
        <pt x="8" y="1244" on="1"/>
        <pt x="1119" y="1244" on="1"/>
        <pt x="1085" y="906" on="1"/>
        <pt x="991" y="921" on="1"/>
        <pt x="952" y="1152" on="1"/>
        <pt x="647" y="1152" on="1"/>
        <pt x="647" y="114" on="1"/>
        <pt x="832" y="81" on="1"/>
        <pt x="819" y="0" on="1"/>
        <pt x="632" y="0" on="1"/>
      </contour>
    </TTGlyph>
    <TTGlyph name="Tcommaaccent" xMin="8" yMin="-390" xMax="1119" yMax="1244">
      <contour>
        <pt x="537" y="-85" on="1"/>
        <pt x="574" y="-85" on="0"/>
        <pt x="638" y="-143" on="0"/>
        <pt x="638" y="-203" on="1"/>
        <pt x="638" y="-226" on="0"/>
        <pt x="621" y="-276" on="0"/>
        <pt x="582" y="-331" on="0"/>
        <pt x="506" y="-378" on="0"/>
        <pt x="453" y="-390" on="1"/>
        <pt x="435" y="-336" on="1"/>
        <pt x="528" y="-313" on="0"/>
        <pt x="528" y="-247" on="1"/>
        <pt x="528" y="-224" on="0"/>
        <pt x="467" y="-170" on="0"/>
        <pt x="448" y="-168" on="1"/>
        <pt x="455" y="-133" on="0"/>
        <pt x="503" y="-85" on="0"/>
      </contour>
      <contour>
        <pt x="8" y="1244" on="1"/>
        <pt x="1119" y="1244" on="1"/>
        <pt x="1085" y="906" on="1"/>
        <pt x="991" y="921" on="1"/>
        <pt x="952" y="1152" on="1"/>
        <pt x="647" y="1152" on="1"/>
        <pt x="647" y="114" on="1"/>
        <pt x="832" y="81" on="1"/>
        <pt x="819" y="0" on="1"/>
        <pt x="279" y="0" on="1"/>
        <pt x="287" y="74" on="1"/>
        <pt x="456" y="121" on="1"/>
        <pt x="456" y="1152" on="1"/>
        <pt x="160" y="1152" on="1"/>
        <pt x="108" y="910" on="1"/>
        <pt x="16" y="923" on="1"/>
      </contour>
    </TTGlyph>
    <TTGlyph name="Thorn" xMin="20" yMin="-2" xMax="1017" yMax="1244">
      <contour>
        <pt x="202" y="119" on="1"/>
        <pt x="202" y="1126" on="1"/>
        <pt x="20" y="1168" on="1"/>
        <pt x="30" y="1244" on="1"/>
        <pt x="573" y="1244" on="1"/>
        <pt x="563" y="1168" on="1"/>
        <pt x="393" y="1129" on="1"/>
        <pt x="393" y="1021" on="1"/>
        <pt x="475" y="1024" on="0"/>
        <pt x="517" y="1024" on="1"/>
        <pt x="1018" y="1024" on="0"/>
        <pt x="1017" y="660" on="1"/>
        <pt x="1017" y="544" on="0"/>
        <pt x="897" y="359" on="0"/>
        <pt x="694" y="259" on="0"/>
        <pt x="573" y="259" on="1"/>
        <pt x="512" y="259" on="0"/>
        <pt x="457" y="266" on="1"/>
        <pt x="441" y="315" on="0"/>
        <pt x="441" y="350" on="1"/>
        <pt x="453" y="349" on="0"/>
        <pt x="464" y="350" on="0"/>
        <pt x="486" y="350" on="0"/>
        <pt x="492" y="350" on="1"/>
        <pt x="811" y="350" on="0"/>
        <pt x="811" y="624" on="1"/>
        <pt x="811" y="760" on="0"/>
        <pt x="655" y="926" on="0"/>
        <pt x="498" y="926" on="1"/>
        <pt x="393" y="920" on="1"/>
        <pt x="393" y="121" on="1"/>
        <pt x="629" y="82" on="1"/>
        <pt x="616" y="-2" on="1"/>
        <pt x="23" y="-2" on="1"/>
        <pt x="33" y="72" on="1"/>
      </contour>
    </TTGlyph>
    <TTGlyph name="U" xMin="8" yMin="-26" xMax="1367" yMax="1244">
      <contour>
        <pt x="733" y="106" on="1"/>
        <pt x="888" y="106" on="0"/>
        <pt x="1058" y="291" on="0"/>
        <pt x="1059" y="482" on="1"/>
        <pt x="1060" y="1126" on="1"/>
        <pt x="878" y="1168" on="1"/>
        <pt x="888" y="1244" on="1"/>
        <pt x="1367" y="1244" on="1"/>
        <pt x="1355" y="1168" on="1"/>
        <pt x="1189" y="1129" on="1"/>
        <pt x="1184" y="515" on="1"/>
        <pt x="1182" y="241" on="0"/>
        <pt x="941" y="-26" on="0"/>
        <pt x="683" y="-26" on="1"/>
        <pt x="607" y="-26" on="0"/>
        <pt x="480" y="-5" on="0"/>
        <pt x="345" y="59" on="0"/>
        <pt x="253" y="165" on="0"/>
        <pt x="193" y="347" on="0"/>
        <pt x="193" y="469" on="1"/>
        <pt x="193" y="1126" on="1"/>
        <pt x="8" y="1168" on="1"/>
        <pt x="21" y="1244" on="1"/>
        <pt x="563" y="1244" on="1"/>
        <pt x="554" y="1168" on="1"/>
        <pt x="385" y="1129" on="1"/>
        <pt x="385" y="510" on="1"/>
        <pt x="385" y="304" on="0"/>
        <pt x="572" y="106" on="0"/>
      </contour>
    </TTGlyph>
    <TTGlyph name="Uacute" xMin="8" yMin="-26" xMax="1367" yMax="1706">
      <contour>
        <pt x="733" y="106" on="1"/>
        <pt x="888" y="106" on="0"/>
        <pt x="1058" y="291" on="0"/>
        <pt x="1059" y="482" on="1"/>
        <pt x="1060" y="1126" on="1"/>
        <pt x="878" y="1168" on="1"/>
        <pt x="888" y="1244" on="1"/>
        <pt x="1367" y="1244" on="1"/>
        <pt x="1355" y="1168" on="1"/>
        <pt x="1189" y="1129" on="1"/>
        <pt x="1184" y="515" on="1"/>
        <pt x="1182" y="241" on="0"/>
        <pt x="941" y="-26" on="0"/>
        <pt x="683" y="-26" on="1"/>
        <pt x="607" y="-26" on="0"/>
        <pt x="480" y="-5" on="0"/>
        <pt x="345" y="59" on="0"/>
        <pt x="253" y="165" on="0"/>
        <pt x="193" y="347" on="0"/>
        <pt x="193" y="469" on="1"/>
        <pt x="193" y="1126" on="1"/>
        <pt x="8" y="1168" on="1"/>
        <pt x="21" y="1244" on="1"/>
        <pt x="563" y="1244" on="1"/>
        <pt x="554" y="1168" on="1"/>
        <pt x="385" y="1129" on="1"/>
        <pt x="385" y="510" on="1"/>
        <pt x="385" y="304" on="0"/>
        <pt x="572" y="106" on="0"/>
      </contour>
      <contour>
        <pt x="799" y="1706" on="1"/>
        <pt x="910" y="1666" on="1"/>
        <pt x="727" y="1349" on="1"/>
        <pt x="676" y="1381" on="1"/>
      </contour>
    </TTGlyph>
    <TTGlyph name="Ucaron" xMin="8" yMin="-26" xMax="1367" yMax="1589">
      <contour>
        <pt x="687" y="1362" on="1"/>
        <pt x="507" y="1527" on="1"/>
        <pt x="588" y="1589" on="1"/>
        <pt x="737" y="1445" on="1"/>
        <pt x="747" y="1445" on="1"/>
        <pt x="870" y="1586" on="1"/>
        <pt x="914" y="1555" on="1"/>
        <pt x="742" y="1376" on="1"/>
      </contour>
      <contour>
        <pt x="733" y="106" on="1"/>
        <pt x="888" y="106" on="0"/>
        <pt x="1058" y="291" on="0"/>
        <pt x="1059" y="482" on="1"/>
        <pt x="1060" y="1126" on="1"/>
        <pt x="878" y="1168" on="1"/>
        <pt x="888" y="1244" on="1"/>
        <pt x="1367" y="1244" on="1"/>
        <pt x="1355" y="1168" on="1"/>
        <pt x="1189" y="1129" on="1"/>
        <pt x="1184" y="515" on="1"/>
        <pt x="1182" y="241" on="0"/>
        <pt x="941" y="-26" on="0"/>
        <pt x="683" y="-26" on="1"/>
        <pt x="607" y="-26" on="0"/>
        <pt x="480" y="-5" on="0"/>
        <pt x="345" y="59" on="0"/>
        <pt x="253" y="165" on="0"/>
        <pt x="193" y="347" on="0"/>
        <pt x="193" y="469" on="1"/>
        <pt x="193" y="1126" on="1"/>
        <pt x="8" y="1168" on="1"/>
        <pt x="21" y="1244" on="1"/>
        <pt x="563" y="1244" on="1"/>
        <pt x="554" y="1168" on="1"/>
        <pt x="385" y="1129" on="1"/>
        <pt x="385" y="510" on="1"/>
        <pt x="385" y="304" on="0"/>
        <pt x="572" y="106" on="0"/>
      </contour>
    </TTGlyph>
    <TTGlyph name="Ucircumflex" xMin="8" yMin="-26" xMax="1367" yMax="1586">
      <contour>
        <pt x="745" y="1586" on="1"/>
        <pt x="923" y="1401" on="1"/>
        <pt x="873" y="1364" on="1"/>
        <pt x="710" y="1473" on="1"/>
        <pt x="700" y="1473" on="1"/>
        <pt x="560" y="1362" on="1"/>
        <pt x="522" y="1392" on="1"/>
        <pt x="690" y="1572" on="1"/>
      </contour>
      <contour>
        <pt x="733" y="106" on="1"/>
        <pt x="888" y="106" on="0"/>
        <pt x="1058" y="291" on="0"/>
        <pt x="1059" y="482" on="1"/>
        <pt x="1060" y="1126" on="1"/>
        <pt x="878" y="1168" on="1"/>
        <pt x="888" y="1244" on="1"/>
        <pt x="1367" y="1244" on="1"/>
        <pt x="1355" y="1168" on="1"/>
        <pt x="1189" y="1129" on="1"/>
        <pt x="1184" y="515" on="1"/>
        <pt x="1182" y="241" on="0"/>
        <pt x="941" y="-26" on="0"/>
        <pt x="683" y="-26" on="1"/>
        <pt x="607" y="-26" on="0"/>
        <pt x="480" y="-5" on="0"/>
        <pt x="345" y="59" on="0"/>
        <pt x="253" y="165" on="0"/>
        <pt x="193" y="347" on="0"/>
        <pt x="193" y="469" on="1"/>
        <pt x="193" y="1126" on="1"/>
        <pt x="8" y="1168" on="1"/>
        <pt x="21" y="1244" on="1"/>
        <pt x="563" y="1244" on="1"/>
        <pt x="554" y="1168" on="1"/>
        <pt x="385" y="1129" on="1"/>
        <pt x="385" y="510" on="1"/>
        <pt x="385" y="304" on="0"/>
        <pt x="572" y="106" on="0"/>
      </contour>
    </TTGlyph>
    <TTGlyph name="Udieresis" xMin="8" yMin="-26" xMax="1367" yMax="1531">
      <contour>
        <pt x="852" y="1531" on="1"/>
        <pt x="887" y="1531" on="0"/>
        <pt x="940" y="1487" on="0"/>
        <pt x="940" y="1453" on="1"/>
        <pt x="940" y="1418" on="0"/>
        <pt x="887" y="1373" on="0"/>
        <pt x="852" y="1373" on="1"/>
        <pt x="818" y="1373" on="0"/>
        <pt x="768" y="1418" on="0"/>
        <pt x="768" y="1488" on="0"/>
        <pt x="819" y="1531" on="0"/>
      </contour>
      <contour>
        <pt x="585" y="1531" on="1"/>
        <pt x="620" y="1531" on="0"/>
        <pt x="670" y="1487" on="0"/>
        <pt x="670" y="1453" on="1"/>
        <pt x="670" y="1418" on="0"/>
        <pt x="619" y="1373" on="0"/>
        <pt x="551" y="1373" on="0"/>
        <pt x="501" y="1418" on="0"/>
        <pt x="501" y="1488" on="0"/>
        <pt x="552" y="1531" on="0"/>
      </contour>
      <contour>
        <pt x="733" y="106" on="1"/>
        <pt x="888" y="106" on="0"/>
        <pt x="1058" y="291" on="0"/>
        <pt x="1059" y="482" on="1"/>
        <pt x="1060" y="1126" on="1"/>
        <pt x="878" y="1168" on="1"/>
        <pt x="888" y="1244" on="1"/>
        <pt x="1367" y="1244" on="1"/>
        <pt x="1355" y="1168" on="1"/>
        <pt x="1189" y="1129" on="1"/>
        <pt x="1184" y="515" on="1"/>
        <pt x="1182" y="241" on="0"/>
        <pt x="941" y="-26" on="0"/>
        <pt x="683" y="-26" on="1"/>
        <pt x="607" y="-26" on="0"/>
        <pt x="480" y="-5" on="0"/>
        <pt x="345" y="59" on="0"/>
        <pt x="253" y="165" on="0"/>
        <pt x="193" y="347" on="0"/>
        <pt x="193" y="469" on="1"/>
        <pt x="193" y="1126" on="1"/>
        <pt x="8" y="1168" on="1"/>
        <pt x="21" y="1244" on="1"/>
        <pt x="563" y="1244" on="1"/>
        <pt x="554" y="1168" on="1"/>
        <pt x="385" y="1129" on="1"/>
        <pt x="385" y="510" on="1"/>
        <pt x="385" y="304" on="0"/>
        <pt x="572" y="106" on="0"/>
      </contour>
    </TTGlyph>
    <TTGlyph name="Udieresisacute" xMin="8" yMin="-26" xMax="1367" yMax="1866">
      <contour>
        <pt x="733" y="106" on="1"/>
        <pt x="888" y="106" on="0"/>
        <pt x="1058" y="291" on="0"/>
        <pt x="1059" y="482" on="1"/>
        <pt x="1060" y="1126" on="1"/>
        <pt x="878" y="1168" on="1"/>
        <pt x="888" y="1244" on="1"/>
        <pt x="1367" y="1244" on="1"/>
        <pt x="1355" y="1168" on="1"/>
        <pt x="1189" y="1129" on="1"/>
        <pt x="1184" y="515" on="1"/>
        <pt x="1182" y="241" on="0"/>
        <pt x="941" y="-26" on="0"/>
        <pt x="683" y="-26" on="1"/>
        <pt x="607" y="-26" on="0"/>
        <pt x="480" y="-5" on="0"/>
        <pt x="345" y="59" on="0"/>
        <pt x="253" y="165" on="0"/>
        <pt x="193" y="347" on="0"/>
        <pt x="193" y="469" on="1"/>
        <pt x="193" y="1126" on="1"/>
        <pt x="8" y="1168" on="1"/>
        <pt x="21" y="1244" on="1"/>
        <pt x="563" y="1244" on="1"/>
        <pt x="554" y="1168" on="1"/>
        <pt x="385" y="1129" on="1"/>
        <pt x="385" y="510" on="1"/>
        <pt x="385" y="304" on="0"/>
        <pt x="572" y="106" on="0"/>
      </contour>
      <contour>
        <pt x="852" y="1514" on="1"/>
        <pt x="887" y="1514" on="0"/>
        <pt x="940" y="1471" on="0"/>
        <pt x="940" y="1437" on="1"/>
        <pt x="940" y="1402" on="0"/>
        <pt x="887" y="1356" on="0"/>
        <pt x="852" y="1356" on="1"/>
        <pt x="818" y="1356" on="0"/>
        <pt x="768" y="1402" on="0"/>
        <pt x="768" y="1472" on="0"/>
        <pt x="819" y="1514" on="0"/>
      </contour>
      <contour>
        <pt x="585" y="1514" on="1"/>
        <pt x="620" y="1514" on="0"/>
        <pt x="670" y="1471" on="0"/>
        <pt x="670" y="1437" on="1"/>
        <pt x="670" y="1402" on="0"/>
        <pt x="619" y="1356" on="0"/>
        <pt x="551" y="1356" on="0"/>
        <pt x="501" y="1402" on="0"/>
        <pt x="501" y="1472" on="0"/>
        <pt x="552" y="1514" on="0"/>
      </contour>
      <contour>
        <pt x="906" y="1827" on="1"/>
        <pt x="723" y="1509" on="1"/>
        <pt x="672" y="1541" on="1"/>
        <pt x="795" y="1866" on="1"/>
      </contour>
    </TTGlyph>
    <TTGlyph name="Udieresiscaron" xMin="8" yMin="-26" xMax="1367" yMax="1717">
      <contour>
        <pt x="733" y="106" on="1"/>
        <pt x="888" y="106" on="0"/>
        <pt x="1058" y="291" on="0"/>
        <pt x="1059" y="482" on="1"/>
        <pt x="1060" y="1126" on="1"/>
        <pt x="878" y="1168" on="1"/>
        <pt x="888" y="1244" on="1"/>
        <pt x="1367" y="1244" on="1"/>
        <pt x="1355" y="1168" on="1"/>
        <pt x="1189" y="1129" on="1"/>
        <pt x="1184" y="515" on="1"/>
        <pt x="1182" y="241" on="0"/>
        <pt x="941" y="-26" on="0"/>
        <pt x="683" y="-26" on="1"/>
        <pt x="607" y="-26" on="0"/>
        <pt x="480" y="-5" on="0"/>
        <pt x="345" y="59" on="0"/>
        <pt x="253" y="165" on="0"/>
        <pt x="193" y="347" on="0"/>
        <pt x="193" y="469" on="1"/>
        <pt x="193" y="1126" on="1"/>
        <pt x="8" y="1168" on="1"/>
        <pt x="21" y="1244" on="1"/>
        <pt x="563" y="1244" on="1"/>
        <pt x="554" y="1168" on="1"/>
        <pt x="385" y="1129" on="1"/>
        <pt x="385" y="510" on="1"/>
        <pt x="385" y="304" on="0"/>
        <pt x="572" y="106" on="0"/>
      </contour>
      <contour>
        <pt x="852" y="1494" on="1"/>
        <pt x="887" y="1494" on="0"/>
        <pt x="940" y="1451" on="0"/>
        <pt x="940" y="1417" on="1"/>
        <pt x="940" y="1382" on="0"/>
        <pt x="887" y="1337" on="0"/>
        <pt x="852" y="1337" on="1"/>
        <pt x="818" y="1337" on="0"/>
        <pt x="768" y="1382" on="0"/>
        <pt x="768" y="1452" on="0"/>
        <pt x="819" y="1494" on="0"/>
      </contour>
      <contour>
        <pt x="585" y="1494" on="1"/>
        <pt x="620" y="1494" on="0"/>
        <pt x="670" y="1451" on="0"/>
        <pt x="670" y="1417" on="1"/>
        <pt x="670" y="1382" on="0"/>
        <pt x="619" y="1337" on="0"/>
        <pt x="551" y="1337" on="0"/>
        <pt x="501" y="1382" on="0"/>
        <pt x="501" y="1452" on="0"/>
        <pt x="552" y="1494" on="0"/>
      </contour>
      <contour>
        <pt x="696" y="1490" on="1"/>
        <pt x="517" y="1655" on="1"/>
        <pt x="597" y="1717" on="1"/>
        <pt x="746" y="1573" on="1"/>
        <pt x="756" y="1573" on="1"/>
        <pt x="879" y="1713" on="1"/>
        <pt x="923" y="1683" on="1"/>
        <pt x="751" y="1504" on="1"/>
      </contour>
    </TTGlyph>
    <TTGlyph name="Udieresisgrave" xMin="8" yMin="-26" xMax="1367" yMax="1839">
      <contour>
        <pt x="733" y="106" on="1"/>
        <pt x="888" y="106" on="0"/>
        <pt x="1058" y="291" on="0"/>
        <pt x="1059" y="482" on="1"/>
        <pt x="1060" y="1126" on="1"/>
        <pt x="878" y="1168" on="1"/>
        <pt x="888" y="1244" on="1"/>
        <pt x="1367" y="1244" on="1"/>
        <pt x="1355" y="1168" on="1"/>
        <pt x="1189" y="1129" on="1"/>
        <pt x="1184" y="515" on="1"/>
        <pt x="1182" y="241" on="0"/>
        <pt x="941" y="-26" on="0"/>
        <pt x="683" y="-26" on="1"/>
        <pt x="607" y="-26" on="0"/>
        <pt x="480" y="-5" on="0"/>
        <pt x="345" y="59" on="0"/>
        <pt x="253" y="165" on="0"/>
        <pt x="193" y="347" on="0"/>
        <pt x="193" y="469" on="1"/>
        <pt x="193" y="1126" on="1"/>
        <pt x="8" y="1168" on="1"/>
        <pt x="21" y="1244" on="1"/>
        <pt x="563" y="1244" on="1"/>
        <pt x="554" y="1168" on="1"/>
        <pt x="385" y="1129" on="1"/>
        <pt x="385" y="510" on="1"/>
        <pt x="385" y="304" on="0"/>
        <pt x="572" y="106" on="0"/>
      </contour>
      <contour>
        <pt x="852" y="1496" on="1"/>
        <pt x="887" y="1496" on="0"/>
        <pt x="940" y="1453" on="0"/>
        <pt x="940" y="1419" on="1"/>
        <pt x="940" y="1384" on="0"/>
        <pt x="887" y="1338" on="0"/>
        <pt x="852" y="1338" on="1"/>
        <pt x="818" y="1338" on="0"/>
        <pt x="768" y="1383" on="0"/>
        <pt x="768" y="1419" on="1"/>
        <pt x="768" y="1454" on="0"/>
        <pt x="819" y="1496" on="0"/>
      </contour>
      <contour>
        <pt x="585" y="1496" on="1"/>
        <pt x="620" y="1496" on="0"/>
        <pt x="670" y="1453" on="0"/>
        <pt x="670" y="1419" on="1"/>
        <pt x="670" y="1384" on="0"/>
        <pt x="619" y="1338" on="0"/>
        <pt x="551" y="1338" on="0"/>
        <pt x="501" y="1383" on="0"/>
        <pt x="501" y="1419" on="1"/>
        <pt x="501" y="1454" on="0"/>
        <pt x="552" y="1496" on="0"/>
      </contour>
      <contour>
        <pt x="516" y="1801" on="1"/>
        <pt x="631" y="1839" on="1"/>
        <pt x="763" y="1505" on="1"/>
        <pt x="706" y="1471" on="1"/>
      </contour>
    </TTGlyph>
    <TTGlyph name="Udieresismacron" xMin="8" yMin="-26" xMax="1367" yMax="1624">
      <contour>
        <pt x="733" y="106" on="1"/>
        <pt x="888" y="106" on="0"/>
        <pt x="1058" y="291" on="0"/>
        <pt x="1059" y="482" on="1"/>
        <pt x="1060" y="1126" on="1"/>
        <pt x="878" y="1168" on="1"/>
        <pt x="888" y="1244" on="1"/>
        <pt x="1367" y="1244" on="1"/>
        <pt x="1355" y="1168" on="1"/>
        <pt x="1189" y="1129" on="1"/>
        <pt x="1184" y="515" on="1"/>
        <pt x="1182" y="241" on="0"/>
        <pt x="941" y="-26" on="0"/>
        <pt x="683" y="-26" on="1"/>
        <pt x="607" y="-26" on="0"/>
        <pt x="480" y="-5" on="0"/>
        <pt x="345" y="59" on="0"/>
        <pt x="253" y="165" on="0"/>
        <pt x="193" y="347" on="0"/>
        <pt x="193" y="469" on="1"/>
        <pt x="193" y="1126" on="1"/>
        <pt x="8" y="1168" on="1"/>
        <pt x="21" y="1244" on="1"/>
        <pt x="563" y="1244" on="1"/>
        <pt x="554" y="1168" on="1"/>
        <pt x="385" y="1129" on="1"/>
        <pt x="385" y="510" on="1"/>
        <pt x="385" y="304" on="0"/>
        <pt x="572" y="106" on="0"/>
      </contour>
      <contour>
        <pt x="852" y="1480" on="1"/>
        <pt x="887" y="1480" on="0"/>
        <pt x="940" y="1436" on="0"/>
        <pt x="940" y="1402" on="1"/>
        <pt x="940" y="1367" on="0"/>
        <pt x="887" y="1322" on="0"/>
        <pt x="852" y="1322" on="1"/>
        <pt x="818" y="1322" on="0"/>
        <pt x="768" y="1367" on="0"/>
        <pt x="768" y="1437" on="0"/>
        <pt x="819" y="1480" on="0"/>
      </contour>
      <contour>
        <pt x="585" y="1480" on="1"/>
        <pt x="620" y="1480" on="0"/>
        <pt x="670" y="1436" on="0"/>
        <pt x="670" y="1402" on="1"/>
        <pt x="670" y="1367" on="0"/>
        <pt x="619" y="1322" on="0"/>
        <pt x="551" y="1322" on="0"/>
        <pt x="501" y="1367" on="0"/>
        <pt x="501" y="1437" on="0"/>
        <pt x="552" y="1480" on="0"/>
      </contour>
      <contour>
        <pt x="507" y="1624" on="1"/>
        <pt x="948" y="1624" on="1"/>
        <pt x="935" y="1523" on="1"/>
        <pt x="494" y="1523" on="1"/>
      </contour>
    </TTGlyph>
    <TTGlyph name="Ugrave" xMin="8" yMin="-26" xMax="1367" yMax="1698">
      <contour>
        <pt x="503" y="1660" on="1"/>
        <pt x="618" y="1698" on="1"/>
        <pt x="750" y="1364" on="1"/>
        <pt x="693" y="1329" on="1"/>
      </contour>
      <contour>
        <pt x="733" y="106" on="1"/>
        <pt x="888" y="106" on="0"/>
        <pt x="1058" y="291" on="0"/>
        <pt x="1059" y="482" on="1"/>
        <pt x="1060" y="1126" on="1"/>
        <pt x="878" y="1168" on="1"/>
        <pt x="888" y="1244" on="1"/>
        <pt x="1367" y="1244" on="1"/>
        <pt x="1355" y="1168" on="1"/>
        <pt x="1189" y="1129" on="1"/>
        <pt x="1184" y="515" on="1"/>
        <pt x="1182" y="241" on="0"/>
        <pt x="941" y="-26" on="0"/>
        <pt x="683" y="-26" on="1"/>
        <pt x="607" y="-26" on="0"/>
        <pt x="480" y="-5" on="0"/>
        <pt x="345" y="59" on="0"/>
        <pt x="253" y="165" on="0"/>
        <pt x="193" y="347" on="0"/>
        <pt x="193" y="469" on="1"/>
        <pt x="193" y="1126" on="1"/>
        <pt x="8" y="1168" on="1"/>
        <pt x="21" y="1244" on="1"/>
        <pt x="563" y="1244" on="1"/>
        <pt x="554" y="1168" on="1"/>
        <pt x="385" y="1129" on="1"/>
        <pt x="385" y="510" on="1"/>
        <pt x="385" y="304" on="0"/>
        <pt x="572" y="106" on="0"/>
      </contour>
    </TTGlyph>
    <TTGlyph name="Uhungarumlaut" xMin="8" yMin="-26" xMax="1367" yMax="1622">
      <contour>
        <pt x="1073" y="1531" on="1"/>
        <pt x="783" y="1364" on="1"/>
        <pt x="755" y="1414" on="1"/>
        <pt x="1001" y="1614" on="1"/>
      </contour>
      <contour>
        <pt x="872" y="1536" on="1"/>
        <pt x="572" y="1364" on="1"/>
        <pt x="544" y="1414" on="1"/>
        <pt x="798" y="1622" on="1"/>
      </contour>
      <contour>
        <pt x="733" y="106" on="1"/>
        <pt x="888" y="106" on="0"/>
        <pt x="1058" y="291" on="0"/>
        <pt x="1059" y="482" on="1"/>
        <pt x="1060" y="1126" on="1"/>
        <pt x="878" y="1168" on="1"/>
        <pt x="888" y="1244" on="1"/>
        <pt x="1367" y="1244" on="1"/>
        <pt x="1355" y="1168" on="1"/>
        <pt x="1189" y="1129" on="1"/>
        <pt x="1184" y="515" on="1"/>
        <pt x="1182" y="241" on="0"/>
        <pt x="941" y="-26" on="0"/>
        <pt x="683" y="-26" on="1"/>
        <pt x="607" y="-26" on="0"/>
        <pt x="480" y="-5" on="0"/>
        <pt x="345" y="59" on="0"/>
        <pt x="253" y="165" on="0"/>
        <pt x="193" y="347" on="0"/>
        <pt x="193" y="469" on="1"/>
        <pt x="193" y="1126" on="1"/>
        <pt x="8" y="1168" on="1"/>
        <pt x="21" y="1244" on="1"/>
        <pt x="563" y="1244" on="1"/>
        <pt x="554" y="1168" on="1"/>
        <pt x="385" y="1129" on="1"/>
        <pt x="385" y="510" on="1"/>
        <pt x="385" y="304" on="0"/>
        <pt x="572" y="106" on="0"/>
      </contour>
    </TTGlyph>
    <TTGlyph name="Umacron" xMin="8" yMin="-26" xMax="1367" yMax="1480">
      <contour>
        <pt x="503" y="1480" on="1"/>
        <pt x="944" y="1480" on="1"/>
        <pt x="931" y="1379" on="1"/>
        <pt x="490" y="1379" on="1"/>
      </contour>
      <contour>
        <pt x="733" y="106" on="1"/>
        <pt x="888" y="106" on="0"/>
        <pt x="1058" y="291" on="0"/>
        <pt x="1059" y="482" on="1"/>
        <pt x="1060" y="1126" on="1"/>
        <pt x="878" y="1168" on="1"/>
        <pt x="888" y="1244" on="1"/>
        <pt x="1367" y="1244" on="1"/>
        <pt x="1355" y="1168" on="1"/>
        <pt x="1189" y="1129" on="1"/>
        <pt x="1184" y="515" on="1"/>
        <pt x="1182" y="241" on="0"/>
        <pt x="941" y="-26" on="0"/>
        <pt x="683" y="-26" on="1"/>
        <pt x="607" y="-26" on="0"/>
        <pt x="480" y="-5" on="0"/>
        <pt x="345" y="59" on="0"/>
        <pt x="253" y="165" on="0"/>
        <pt x="193" y="347" on="0"/>
        <pt x="193" y="469" on="1"/>
        <pt x="193" y="1126" on="1"/>
        <pt x="8" y="1168" on="1"/>
        <pt x="21" y="1244" on="1"/>
        <pt x="563" y="1244" on="1"/>
        <pt x="554" y="1168" on="1"/>
        <pt x="385" y="1129" on="1"/>
        <pt x="385" y="510" on="1"/>
        <pt x="385" y="304" on="0"/>
        <pt x="572" y="106" on="0"/>
      </contour>
    </TTGlyph>
    <TTGlyph name="Uogonek" xMin="8" yMin="-387" xMax="1367" yMax="1244">
      <contour>
        <pt x="800" y="-149" on="1"/>
        <pt x="800" y="-200" on="0"/>
        <pt x="860" y="-299" on="0"/>
        <pt x="924" y="-336" on="1"/>
        <pt x="890" y="-387" on="1"/>
        <pt x="784" y="-376" on="0"/>
        <pt x="652" y="-274" on="0"/>
        <pt x="652" y="-208" on="1"/>
        <pt x="652" y="-167" on="0"/>
        <pt x="696" y="-85" on="0"/>
        <pt x="762" y="-23" on="1"/>
        <pt x="729" y="-26" on="0"/>
        <pt x="683" y="-26" on="1"/>
        <pt x="607" y="-26" on="0"/>
        <pt x="480" y="-5" on="0"/>
        <pt x="345" y="59" on="0"/>
        <pt x="253" y="165" on="0"/>
        <pt x="193" y="347" on="0"/>
        <pt x="193" y="469" on="1"/>
        <pt x="193" y="1126" on="1"/>
        <pt x="8" y="1168" on="1"/>
        <pt x="21" y="1244" on="1"/>
        <pt x="563" y="1244" on="1"/>
        <pt x="554" y="1168" on="1"/>
        <pt x="385" y="1129" on="1"/>
        <pt x="385" y="510" on="1"/>
        <pt x="385" y="304" on="0"/>
        <pt x="572" y="106" on="0"/>
        <pt x="733" y="106" on="1"/>
        <pt x="888" y="106" on="0"/>
        <pt x="1058" y="291" on="0"/>
        <pt x="1059" y="482" on="1"/>
        <pt x="1060" y="1126" on="1"/>
        <pt x="878" y="1168" on="1"/>
        <pt x="888" y="1244" on="1"/>
        <pt x="1367" y="1244" on="1"/>
        <pt x="1355" y="1168" on="1"/>
        <pt x="1189" y="1129" on="1"/>
        <pt x="1184" y="515" on="1"/>
        <pt x="1182" y="291" on="0"/>
        <pt x="1022" y="32" on="0"/>
        <pt x="855" y="-8" on="1"/>
        <pt x="800" y="-101" on="0"/>
      </contour>
    </TTGlyph>
    <TTGlyph name="Uring" xMin="8" yMin="-26" xMax="1367" yMax="1675">
      <contour>
        <pt x="733" y="106" on="1"/>
        <pt x="888" y="106" on="0"/>
        <pt x="1058" y="291" on="0"/>
        <pt x="1059" y="482" on="1"/>
        <pt x="1060" y="1126" on="1"/>
        <pt x="878" y="1168" on="1"/>
        <pt x="888" y="1244" on="1"/>
        <pt x="1367" y="1244" on="1"/>
        <pt x="1355" y="1168" on="1"/>
        <pt x="1189" y="1129" on="1"/>
        <pt x="1184" y="515" on="1"/>
        <pt x="1182" y="241" on="0"/>
        <pt x="941" y="-26" on="0"/>
        <pt x="683" y="-26" on="1"/>
        <pt x="607" y="-26" on="0"/>
        <pt x="480" y="-5" on="0"/>
        <pt x="345" y="59" on="0"/>
        <pt x="253" y="165" on="0"/>
        <pt x="193" y="347" on="0"/>
        <pt x="193" y="469" on="1"/>
        <pt x="193" y="1126" on="1"/>
        <pt x="8" y="1168" on="1"/>
        <pt x="21" y="1244" on="1"/>
        <pt x="563" y="1244" on="1"/>
        <pt x="554" y="1168" on="1"/>
        <pt x="385" y="1129" on="1"/>
        <pt x="385" y="510" on="1"/>
        <pt x="385" y="304" on="0"/>
        <pt x="572" y="106" on="0"/>
      </contour>
      <contour>
        <pt x="717" y="1627" on="1"/>
        <pt x="675" y="1627" on="0"/>
        <pt x="632" y="1560" on="0"/>
        <pt x="632" y="1514" on="1"/>
        <pt x="632" y="1464" on="0"/>
        <pt x="682" y="1386" on="0"/>
        <pt x="727" y="1386" on="1"/>
        <pt x="768" y="1386" on="0"/>
        <pt x="813" y="1445" on="0"/>
        <pt x="813" y="1499" on="1"/>
        <pt x="813" y="1550" on="0"/>
        <pt x="761" y="1627" on="0"/>
      </contour>
      <contour>
        <pt x="729" y="1675" on="1"/>
        <pt x="800" y="1675" on="0"/>
        <pt x="884" y="1584" on="0"/>
        <pt x="884" y="1442" on="0"/>
        <pt x="790" y="1337" on="0"/>
        <pt x="716" y="1337" on="1"/>
        <pt x="646" y="1337" on="0"/>
        <pt x="561" y="1427" on="0"/>
        <pt x="561" y="1503" on="1"/>
        <pt x="561" y="1573" on="0"/>
        <pt x="659" y="1675" on="0"/>
      </contour>
    </TTGlyph>
    <TTGlyph name="V" xMin="2" yMin="-25" xMax="1283" yMax="1244">
      <contour>
        <pt x="567" y="-25" on="1"/>
        <pt x="147" y="1126" on="1"/>
        <pt x="2" y="1168" on="1"/>
        <pt x="12" y="1244" on="1"/>
        <pt x="549" y="1244" on="1"/>
        <pt x="539" y="1168" on="1"/>
        <pt x="370" y="1129" on="1"/>
        <pt x="682" y="251" on="1"/>
        <pt x="1003" y="1126" on="1"/>
        <pt x="819" y="1168" on="1"/>
        <pt x="827" y="1244" on="1"/>
        <pt x="1283" y="1244" on="1"/>
        <pt x="1275" y="1168" on="1"/>
        <pt x="1144" y="1129" on="1"/>
        <pt x="718" y="5" on="1"/>
      </contour>
    </TTGlyph>
    <TTGlyph name="W" xMin="8" yMin="-25" xMax="1837" yMax="1244">
      <contour>
        <pt x="1183" y="-25" on="1"/>
        <pt x="921" y="952" on="1"/>
        <pt x="636" y="5" on="1"/>
        <pt x="474" y="-25" on="1"/>
        <pt x="147" y="1126" on="1"/>
        <pt x="8" y="1168" on="1"/>
        <pt x="16" y="1244" on="1"/>
        <pt x="531" y="1244" on="1"/>
        <pt x="517" y="1168" on="1"/>
        <pt x="349" y="1129" on="1"/>
        <pt x="591" y="272" on="1"/>
        <pt x="872" y="1194" on="1"/>
        <pt x="1049" y="1219" on="1"/>
        <pt x="1296" y="287" on="1"/>
        <pt x="1557" y="1126" on="1"/>
        <pt x="1376" y="1168" on="1"/>
        <pt x="1388" y="1244" on="1"/>
        <pt x="1837" y="1244" on="1"/>
        <pt x="1825" y="1168" on="1"/>
        <pt x="1703" y="1129" on="1"/>
        <pt x="1337" y="5" on="1"/>
      </contour>
    </TTGlyph>
    <TTGlyph name="Wacute" xMin="8" yMin="-25" xMax="1837" yMax="1711">
      <contour>
        <pt x="1156" y="1671" on="1"/>
        <pt x="972" y="1354" on="1"/>
        <pt x="921" y="1386" on="1"/>
        <pt x="1044" y="1711" on="1"/>
      </contour>
      <contour>
        <pt x="1183" y="-25" on="1"/>
        <pt x="921" y="952" on="1"/>
        <pt x="636" y="5" on="1"/>
        <pt x="474" y="-25" on="1"/>
        <pt x="147" y="1126" on="1"/>
        <pt x="8" y="1168" on="1"/>
        <pt x="16" y="1244" on="1"/>
        <pt x="531" y="1244" on="1"/>
        <pt x="517" y="1168" on="1"/>
        <pt x="349" y="1129" on="1"/>
        <pt x="591" y="272" on="1"/>
        <pt x="872" y="1194" on="1"/>
        <pt x="1049" y="1219" on="1"/>
        <pt x="1296" y="287" on="1"/>
        <pt x="1557" y="1126" on="1"/>
        <pt x="1376" y="1168" on="1"/>
        <pt x="1388" y="1244" on="1"/>
        <pt x="1837" y="1244" on="1"/>
        <pt x="1825" y="1168" on="1"/>
        <pt x="1703" y="1129" on="1"/>
        <pt x="1337" y="5" on="1"/>
      </contour>
    </TTGlyph>
    <TTGlyph name="Wcircumflex" xMin="8" yMin="-25" xMax="1837" yMax="1525">
      <contour>
        <pt x="1183" y="-25" on="1"/>
        <pt x="921" y="952" on="1"/>
        <pt x="636" y="5" on="1"/>
        <pt x="474" y="-25" on="1"/>
        <pt x="147" y="1126" on="1"/>
        <pt x="8" y="1168" on="1"/>
        <pt x="16" y="1244" on="1"/>
        <pt x="531" y="1244" on="1"/>
        <pt x="517" y="1168" on="1"/>
        <pt x="349" y="1129" on="1"/>
        <pt x="591" y="272" on="1"/>
        <pt x="872" y="1194" on="1"/>
        <pt x="1049" y="1219" on="1"/>
        <pt x="1296" y="287" on="1"/>
        <pt x="1557" y="1126" on="1"/>
        <pt x="1376" y="1168" on="1"/>
        <pt x="1388" y="1244" on="1"/>
        <pt x="1837" y="1244" on="1"/>
        <pt x="1825" y="1168" on="1"/>
        <pt x="1703" y="1129" on="1"/>
        <pt x="1337" y="5" on="1"/>
      </contour>
      <contour>
        <pt x="987" y="1525" on="1"/>
        <pt x="1165" y="1340" on="1"/>
        <pt x="1115" y="1303" on="1"/>
        <pt x="952" y="1412" on="1"/>
        <pt x="942" y="1412" on="1"/>
        <pt x="802" y="1301" on="1"/>
        <pt x="764" y="1332" on="1"/>
        <pt x="932" y="1511" on="1"/>
      </contour>
    </TTGlyph>
    <TTGlyph name="Wdieresis" xMin="8" yMin="-25" xMax="1837" yMax="1531">
      <contour>
        <pt x="1093" y="1531" on="1"/>
        <pt x="1128" y="1531" on="0"/>
        <pt x="1181" y="1487" on="0"/>
        <pt x="1181" y="1453" on="1"/>
        <pt x="1181" y="1418" on="0"/>
        <pt x="1128" y="1373" on="0"/>
        <pt x="1093" y="1373" on="1"/>
        <pt x="1059" y="1373" on="0"/>
        <pt x="1009" y="1418" on="0"/>
        <pt x="1009" y="1488" on="0"/>
        <pt x="1060" y="1531" on="0"/>
      </contour>
      <contour>
        <pt x="826" y="1531" on="1"/>
        <pt x="861" y="1531" on="0"/>
        <pt x="911" y="1487" on="0"/>
        <pt x="911" y="1453" on="1"/>
        <pt x="911" y="1418" on="0"/>
        <pt x="860" y="1373" on="0"/>
        <pt x="792" y="1373" on="0"/>
        <pt x="742" y="1418" on="0"/>
        <pt x="742" y="1488" on="0"/>
        <pt x="793" y="1531" on="0"/>
      </contour>
      <contour>
        <pt x="1183" y="-25" on="1"/>
        <pt x="921" y="952" on="1"/>
        <pt x="636" y="5" on="1"/>
        <pt x="474" y="-25" on="1"/>
        <pt x="147" y="1126" on="1"/>
        <pt x="8" y="1168" on="1"/>
        <pt x="16" y="1244" on="1"/>
        <pt x="531" y="1244" on="1"/>
        <pt x="517" y="1168" on="1"/>
        <pt x="349" y="1129" on="1"/>
        <pt x="591" y="272" on="1"/>
        <pt x="872" y="1194" on="1"/>
        <pt x="1049" y="1219" on="1"/>
        <pt x="1296" y="287" on="1"/>
        <pt x="1557" y="1126" on="1"/>
        <pt x="1376" y="1168" on="1"/>
        <pt x="1388" y="1244" on="1"/>
        <pt x="1837" y="1244" on="1"/>
        <pt x="1825" y="1168" on="1"/>
        <pt x="1703" y="1129" on="1"/>
        <pt x="1337" y="5" on="1"/>
      </contour>
    </TTGlyph>
    <TTGlyph name="Wgrave" xMin="8" yMin="-25" xMax="1837" yMax="1703">
      <contour>
        <pt x="740" y="1665" on="1"/>
        <pt x="855" y="1703" on="1"/>
        <pt x="988" y="1369" on="1"/>
        <pt x="930" y="1334" on="1"/>
      </contour>
      <contour>
        <pt x="1183" y="-25" on="1"/>
        <pt x="921" y="952" on="1"/>
        <pt x="636" y="5" on="1"/>
        <pt x="474" y="-25" on="1"/>
        <pt x="147" y="1126" on="1"/>
        <pt x="8" y="1168" on="1"/>
        <pt x="16" y="1244" on="1"/>
        <pt x="531" y="1244" on="1"/>
        <pt x="517" y="1168" on="1"/>
        <pt x="349" y="1129" on="1"/>
        <pt x="591" y="272" on="1"/>
        <pt x="872" y="1194" on="1"/>
        <pt x="1049" y="1219" on="1"/>
        <pt x="1296" y="287" on="1"/>
        <pt x="1557" y="1126" on="1"/>
        <pt x="1376" y="1168" on="1"/>
        <pt x="1388" y="1244" on="1"/>
        <pt x="1837" y="1244" on="1"/>
        <pt x="1825" y="1168" on="1"/>
        <pt x="1703" y="1129" on="1"/>
        <pt x="1337" y="5" on="1"/>
      </contour>
    </TTGlyph>
    <TTGlyph name="X" xMin="3" yMin="0" xMax="1191" yMax="1244">
      <contour>
        <pt x="713" y="657" on="1"/>
        <pt x="1055" y="114" on="1"/>
        <pt x="1191" y="81" on="1"/>
        <pt x="1178" y="0" on="1"/>
        <pt x="674" y="0" on="1"/>
        <pt x="687" y="74" on="1"/>
        <pt x="847" y="121" on="1"/>
        <pt x="585" y="529" on="1"/>
        <pt x="294" y="118" on="1"/>
        <pt x="459" y="84" on="1"/>
        <pt x="444" y="0" on="1"/>
        <pt x="3" y="0" on="1"/>
        <pt x="16" y="76" on="1"/>
        <pt x="142" y="121" on="1"/>
        <pt x="508" y="614" on="1"/>
        <pt x="170" y="1123" on="1"/>
        <pt x="33" y="1166" on="1"/>
        <pt x="44" y="1244" on="1"/>
        <pt x="558" y="1244" on="1"/>
        <pt x="547" y="1166" on="1"/>
        <pt x="392" y="1121" on="1"/>
        <pt x="639" y="750" on="1"/>
        <pt x="910" y="1126" on="1"/>
        <pt x="740" y="1166" on="1"/>
        <pt x="752" y="1244" on="1"/>
        <pt x="1188" y="1244" on="1"/>
        <pt x="1179" y="1168" on="1"/>
        <pt x="1052" y="1129" on="1"/>
      </contour>
    </TTGlyph>
    <TTGlyph name="Y" xMin="31" yMin="0" xMax="1194" yMax="1244">
      <contour>
        <pt x="715" y="529" on="1"/>
        <pt x="715" y="114" on="1"/>
        <pt x="878" y="81" on="1"/>
        <pt x="869" y="0" on="1"/>
        <pt x="362" y="0" on="1"/>
        <pt x="372" y="74" on="1"/>
        <pt x="521" y="121" on="1"/>
        <pt x="521" y="505" on="1"/>
        <pt x="169" y="1126" on="1"/>
        <pt x="31" y="1168" on="1"/>
        <pt x="44" y="1244" on="1"/>
        <pt x="552" y="1244" on="1"/>
        <pt x="540" y="1168" on="1"/>
        <pt x="382" y="1129" on="1"/>
        <pt x="659" y="641" on="1"/>
        <pt x="923" y="1126" on="1"/>
        <pt x="740" y="1168" on="1"/>
        <pt x="750" y="1244" on="1"/>
        <pt x="1194" y="1244" on="1"/>
        <pt x="1184" y="1168" on="1"/>
        <pt x="1060" y="1129" on="1"/>
      </contour>
    </TTGlyph>
    <TTGlyph name="Yacute" xMin="31" yMin="0" xMax="1194" yMax="1706">
      <contour>
        <pt x="799" y="1666" on="1"/>
        <pt x="615" y="1349" on="1"/>
        <pt x="564" y="1381" on="1"/>
        <pt x="687" y="1706" on="1"/>
      </contour>
      <contour>
        <pt x="715" y="529" on="1"/>
        <pt x="715" y="114" on="1"/>
        <pt x="878" y="81" on="1"/>
        <pt x="869" y="0" on="1"/>
        <pt x="362" y="0" on="1"/>
        <pt x="372" y="74" on="1"/>
        <pt x="521" y="121" on="1"/>
        <pt x="521" y="505" on="1"/>
        <pt x="169" y="1126" on="1"/>
        <pt x="31" y="1168" on="1"/>
        <pt x="44" y="1244" on="1"/>
        <pt x="552" y="1244" on="1"/>
        <pt x="540" y="1168" on="1"/>
        <pt x="382" y="1129" on="1"/>
        <pt x="659" y="641" on="1"/>
        <pt x="923" y="1126" on="1"/>
        <pt x="740" y="1168" on="1"/>
        <pt x="750" y="1244" on="1"/>
        <pt x="1194" y="1244" on="1"/>
        <pt x="1184" y="1168" on="1"/>
        <pt x="1060" y="1129" on="1"/>
      </contour>
    </TTGlyph>
    <TTGlyph name="Ycircumflex" xMin="31" yMin="0" xMax="1194" yMax="1581">
      <contour>
        <pt x="628" y="1581" on="1"/>
        <pt x="805" y="1396" on="1"/>
        <pt x="756" y="1359" on="1"/>
        <pt x="592" y="1468" on="1"/>
        <pt x="582" y="1468" on="1"/>
        <pt x="442" y="1357" on="1"/>
        <pt x="405" y="1388" on="1"/>
        <pt x="572" y="1567" on="1"/>
      </contour>
      <contour>
        <pt x="715" y="529" on="1"/>
        <pt x="715" y="114" on="1"/>
        <pt x="878" y="81" on="1"/>
        <pt x="869" y="0" on="1"/>
        <pt x="362" y="0" on="1"/>
        <pt x="372" y="74" on="1"/>
        <pt x="521" y="121" on="1"/>
        <pt x="521" y="505" on="1"/>
        <pt x="169" y="1126" on="1"/>
        <pt x="31" y="1168" on="1"/>
        <pt x="44" y="1244" on="1"/>
        <pt x="552" y="1244" on="1"/>
        <pt x="540" y="1168" on="1"/>
        <pt x="382" y="1129" on="1"/>
        <pt x="659" y="641" on="1"/>
        <pt x="923" y="1126" on="1"/>
        <pt x="740" y="1168" on="1"/>
        <pt x="750" y="1244" on="1"/>
        <pt x="1194" y="1244" on="1"/>
        <pt x="1184" y="1168" on="1"/>
        <pt x="1060" y="1129" on="1"/>
      </contour>
    </TTGlyph>
    <TTGlyph name="Ydieresis" xMin="31" yMin="0" xMax="1194" yMax="1542">
      <contour>
        <pt x="470" y="1542" on="1"/>
        <pt x="505" y="1542" on="0"/>
        <pt x="555" y="1499" on="0"/>
        <pt x="555" y="1465" on="1"/>
        <pt x="555" y="1430" on="0"/>
        <pt x="504" y="1384" on="0"/>
        <pt x="436" y="1384" on="0"/>
        <pt x="386" y="1429" on="0"/>
        <pt x="386" y="1465" on="1"/>
        <pt x="386" y="1500" on="0"/>
        <pt x="437" y="1542" on="0"/>
      </contour>
      <contour>
        <pt x="737" y="1542" on="1"/>
        <pt x="772" y="1542" on="0"/>
        <pt x="825" y="1499" on="0"/>
        <pt x="825" y="1465" on="1"/>
        <pt x="825" y="1430" on="0"/>
        <pt x="772" y="1384" on="0"/>
        <pt x="737" y="1384" on="1"/>
        <pt x="703" y="1384" on="0"/>
        <pt x="653" y="1429" on="0"/>
        <pt x="653" y="1465" on="1"/>
        <pt x="653" y="1500" on="0"/>
        <pt x="704" y="1542" on="0"/>
      </contour>
      <contour>
        <pt x="715" y="529" on="1"/>
        <pt x="715" y="114" on="1"/>
        <pt x="878" y="81" on="1"/>
        <pt x="869" y="0" on="1"/>
        <pt x="362" y="0" on="1"/>
        <pt x="372" y="74" on="1"/>
        <pt x="521" y="121" on="1"/>
        <pt x="521" y="505" on="1"/>
        <pt x="169" y="1126" on="1"/>
        <pt x="31" y="1168" on="1"/>
        <pt x="44" y="1244" on="1"/>
        <pt x="552" y="1244" on="1"/>
        <pt x="540" y="1168" on="1"/>
        <pt x="382" y="1129" on="1"/>
        <pt x="659" y="641" on="1"/>
        <pt x="923" y="1126" on="1"/>
        <pt x="740" y="1168" on="1"/>
        <pt x="750" y="1244" on="1"/>
        <pt x="1194" y="1244" on="1"/>
        <pt x="1184" y="1168" on="1"/>
        <pt x="1060" y="1129" on="1"/>
      </contour>
    </TTGlyph>
    <TTGlyph name="Ygrave" xMin="31" yMin="0" xMax="1194" yMax="1698">
      <contour>
        <pt x="391" y="1660" on="1"/>
        <pt x="506" y="1698" on="1"/>
        <pt x="638" y="1364" on="1"/>
        <pt x="581" y="1329" on="1"/>
      </contour>
      <contour>
        <pt x="715" y="529" on="1"/>
        <pt x="715" y="114" on="1"/>
        <pt x="878" y="81" on="1"/>
        <pt x="869" y="0" on="1"/>
        <pt x="362" y="0" on="1"/>
        <pt x="372" y="74" on="1"/>
        <pt x="521" y="121" on="1"/>
        <pt x="521" y="505" on="1"/>
        <pt x="169" y="1126" on="1"/>
        <pt x="31" y="1168" on="1"/>
        <pt x="44" y="1244" on="1"/>
        <pt x="552" y="1244" on="1"/>
        <pt x="540" y="1168" on="1"/>
        <pt x="382" y="1129" on="1"/>
        <pt x="659" y="641" on="1"/>
        <pt x="923" y="1126" on="1"/>
        <pt x="740" y="1168" on="1"/>
        <pt x="750" y="1244" on="1"/>
        <pt x="1194" y="1244" on="1"/>
        <pt x="1184" y="1168" on="1"/>
        <pt x="1060" y="1129" on="1"/>
      </contour>
    </TTGlyph>
    <TTGlyph name="Z" xMin="0" yMin="0" xMax="1001" yMax="1244">
      <contour>
        <pt x="51" y="1244" on="1"/>
        <pt x="980" y="1244" on="1"/>
        <pt x="980" y="1168" on="1"/>
        <pt x="215" y="100" on="1"/>
        <pt x="785" y="100" on="1"/>
        <pt x="908" y="350" on="1"/>
        <pt x="1001" y="336" on="1"/>
        <pt x="944" y="0" on="1"/>
        <pt x="8" y="0" on="1"/>
        <pt x="0" y="104" on="1"/>
        <pt x="745" y="1149" on="1"/>
        <pt x="208" y="1149" on="1"/>
        <pt x="131" y="903" on="1"/>
        <pt x="41" y="921" on="1"/>
      </contour>
    </TTGlyph>
    <TTGlyph name="Zacute" xMin="0" yMin="0" xMax="1001" yMax="1711">
      <contour>
        <pt x="660" y="1671" on="1"/>
        <pt x="477" y="1354" on="1"/>
        <pt x="426" y="1386" on="1"/>
        <pt x="549" y="1711" on="1"/>
      </contour>
      <contour>
        <pt x="51" y="1244" on="1"/>
        <pt x="980" y="1244" on="1"/>
        <pt x="980" y="1168" on="1"/>
        <pt x="215" y="100" on="1"/>
        <pt x="785" y="100" on="1"/>
        <pt x="908" y="350" on="1"/>
        <pt x="1001" y="336" on="1"/>
        <pt x="944" y="0" on="1"/>
        <pt x="8" y="0" on="1"/>
        <pt x="0" y="104" on="1"/>
        <pt x="745" y="1149" on="1"/>
        <pt x="208" y="1149" on="1"/>
        <pt x="131" y="903" on="1"/>
        <pt x="41" y="921" on="1"/>
      </contour>
    </TTGlyph>
    <TTGlyph name="Zcaron" xMin="0" yMin="0" xMax="1001" yMax="1589">
      <contour>
        <pt x="474" y="1362" on="1"/>
        <pt x="294" y="1527" on="1"/>
        <pt x="375" y="1589" on="1"/>
        <pt x="524" y="1445" on="1"/>
        <pt x="534" y="1445" on="1"/>
        <pt x="657" y="1586" on="1"/>
        <pt x="701" y="1555" on="1"/>
        <pt x="529" y="1376" on="1"/>
      </contour>
      <contour>
        <pt x="51" y="1244" on="1"/>
        <pt x="980" y="1244" on="1"/>
        <pt x="980" y="1168" on="1"/>
        <pt x="215" y="100" on="1"/>
        <pt x="785" y="100" on="1"/>
        <pt x="908" y="350" on="1"/>
        <pt x="1001" y="336" on="1"/>
        <pt x="944" y="0" on="1"/>
        <pt x="8" y="0" on="1"/>
        <pt x="0" y="104" on="1"/>
        <pt x="745" y="1149" on="1"/>
        <pt x="208" y="1149" on="1"/>
        <pt x="131" y="903" on="1"/>
        <pt x="41" y="921" on="1"/>
      </contour>
    </TTGlyph>
    <TTGlyph name="Zdotaccent" xMin="0" yMin="0" xMax="1001" yMax="1597">
      <contour>
        <pt x="503" y="1597" on="1"/>
        <pt x="553" y="1597" on="0"/>
        <pt x="626" y="1531" on="0"/>
        <pt x="626" y="1483" on="1"/>
        <pt x="626" y="1433" on="0"/>
        <pt x="553" y="1360" on="0"/>
        <pt x="454" y="1360" on="0"/>
        <pt x="385" y="1434" on="0"/>
        <pt x="385" y="1485" on="1"/>
        <pt x="385" y="1533" on="0"/>
        <pt x="455" y="1597" on="0"/>
      </contour>
      <contour>
        <pt x="51" y="1244" on="1"/>
        <pt x="980" y="1244" on="1"/>
        <pt x="980" y="1168" on="1"/>
        <pt x="215" y="100" on="1"/>
        <pt x="785" y="100" on="1"/>
        <pt x="908" y="350" on="1"/>
        <pt x="1001" y="336" on="1"/>
        <pt x="944" y="0" on="1"/>
        <pt x="8" y="0" on="1"/>
        <pt x="0" y="104" on="1"/>
        <pt x="745" y="1149" on="1"/>
        <pt x="208" y="1149" on="1"/>
        <pt x="131" y="903" on="1"/>
        <pt x="41" y="921" on="1"/>
      </contour>
    </TTGlyph>
    <TTGlyph name="a" xMin="66" yMin="-25" xMax="850" yMax="901">
      <contour>
        <pt x="527" y="428" on="1"/>
        <pt x="372" y="398" on="0"/>
        <pt x="241" y="291" on="0"/>
        <pt x="241" y="215" on="1"/>
        <pt x="241" y="172" on="0"/>
        <pt x="302" y="99" on="0"/>
        <pt x="354" y="99" on="1"/>
        <pt x="401" y="99" on="0"/>
        <pt x="498" y="155" on="0"/>
        <pt x="527" y="188" on="1"/>
      </contour>
      <contour>
        <pt x="702" y="-18" on="1"/>
        <pt x="623" y="-18" on="0"/>
        <pt x="547" y="63" on="0"/>
        <pt x="547" y="116" on="1"/>
        <pt x="547" y="131" on="1"/>
        <pt x="535" y="131" on="1"/>
        <pt x="523" y="108" on="0"/>
        <pt x="484" y="60" on="0"/>
        <pt x="419" y="8" on="0"/>
        <pt x="320" y="-25" on="0"/>
        <pt x="262" y="-25" on="1"/>
        <pt x="179" y="-25" on="0"/>
        <pt x="66" y="80" on="0"/>
        <pt x="66" y="169" on="1"/>
        <pt x="66" y="226" on="0"/>
        <pt x="119" y="329" on="0"/>
        <pt x="227" y="417" on="0"/>
        <pt x="409" y="477" on="0"/>
        <pt x="527" y="485" on="1"/>
        <pt x="527" y="540" on="1"/>
        <pt x="527" y="594" on="0"/>
        <pt x="511" y="684" on="0"/>
        <pt x="472" y="762" on="0"/>
        <pt x="401" y="804" on="0"/>
        <pt x="350" y="804" on="1"/>
        <pt x="319" y="804" on="0"/>
        <pt x="279" y="780" on="0"/>
        <pt x="258" y="726" on="0"/>
        <pt x="248" y="669" on="0"/>
        <pt x="243" y="623" on="1"/>
        <pt x="241" y="602" on="0"/>
        <pt x="239" y="591" on="1"/>
        <pt x="218" y="591" on="0"/>
        <pt x="189" y="594" on="0"/>
        <pt x="147" y="605" on="0"/>
        <pt x="120" y="626" on="0"/>
        <pt x="100" y="667" on="0"/>
        <pt x="100" y="695" on="1"/>
        <pt x="100" y="747" on="0"/>
        <pt x="214" y="846" on="0"/>
        <pt x="294" y="874" on="1"/>
        <pt x="372" y="901" on="0"/>
        <pt x="442" y="901" on="1"/>
        <pt x="574" y="901" on="0"/>
        <pt x="690" y="753" on="0"/>
        <pt x="690" y="593" on="1"/>
        <pt x="690" y="229" on="1"/>
        <pt x="690" y="159" on="0"/>
        <pt x="732" y="107" on="0"/>
        <pt x="801" y="95" on="1"/>
        <pt x="850" y="87" on="1"/>
        <pt x="839" y="2" on="1"/>
        <pt x="823" y="0" on="0"/>
        <pt x="773" y="-12" on="0"/>
        <pt x="728" y="-18" on="0"/>
      </contour>
    </TTGlyph>
    <TTGlyph name="aacute" xMin="66" yMin="-25" xMax="850" yMax="1342">
      <contour>
        <pt x="582" y="1303" on="1"/>
        <pt x="398" y="985" on="1"/>
        <pt x="347" y="1017" on="1"/>
        <pt x="470" y="1342" on="1"/>
      </contour>
      <contour>
        <pt x="527" y="428" on="1"/>
        <pt x="372" y="398" on="0"/>
        <pt x="241" y="291" on="0"/>
        <pt x="241" y="215" on="1"/>
        <pt x="241" y="172" on="0"/>
        <pt x="302" y="99" on="0"/>
        <pt x="354" y="99" on="1"/>
        <pt x="401" y="99" on="0"/>
        <pt x="498" y="155" on="0"/>
        <pt x="527" y="188" on="1"/>
      </contour>
      <contour>
        <pt x="702" y="-18" on="1"/>
        <pt x="623" y="-18" on="0"/>
        <pt x="547" y="63" on="0"/>
        <pt x="547" y="116" on="1"/>
        <pt x="547" y="131" on="1"/>
        <pt x="535" y="131" on="1"/>
        <pt x="523" y="108" on="0"/>
        <pt x="484" y="60" on="0"/>
        <pt x="419" y="8" on="0"/>
        <pt x="320" y="-25" on="0"/>
        <pt x="262" y="-25" on="1"/>
        <pt x="179" y="-25" on="0"/>
        <pt x="66" y="80" on="0"/>
        <pt x="66" y="169" on="1"/>
        <pt x="66" y="226" on="0"/>
        <pt x="119" y="329" on="0"/>
        <pt x="227" y="417" on="0"/>
        <pt x="409" y="477" on="0"/>
        <pt x="527" y="485" on="1"/>
        <pt x="527" y="540" on="1"/>
        <pt x="527" y="594" on="0"/>
        <pt x="511" y="684" on="0"/>
        <pt x="472" y="762" on="0"/>
        <pt x="401" y="804" on="0"/>
        <pt x="350" y="804" on="1"/>
        <pt x="319" y="804" on="0"/>
        <pt x="279" y="780" on="0"/>
        <pt x="258" y="726" on="0"/>
        <pt x="248" y="669" on="0"/>
        <pt x="243" y="623" on="1"/>
        <pt x="241" y="602" on="0"/>
        <pt x="239" y="591" on="1"/>
        <pt x="218" y="591" on="0"/>
        <pt x="189" y="594" on="0"/>
        <pt x="147" y="605" on="0"/>
        <pt x="120" y="626" on="0"/>
        <pt x="100" y="667" on="0"/>
        <pt x="100" y="695" on="1"/>
        <pt x="100" y="747" on="0"/>
        <pt x="214" y="846" on="0"/>
        <pt x="294" y="874" on="1"/>
        <pt x="372" y="901" on="0"/>
        <pt x="442" y="901" on="1"/>
        <pt x="574" y="901" on="0"/>
        <pt x="690" y="753" on="0"/>
        <pt x="690" y="593" on="1"/>
        <pt x="690" y="229" on="1"/>
        <pt x="690" y="159" on="0"/>
        <pt x="732" y="107" on="0"/>
        <pt x="801" y="95" on="1"/>
        <pt x="850" y="87" on="1"/>
        <pt x="839" y="2" on="1"/>
        <pt x="823" y="0" on="0"/>
        <pt x="773" y="-12" on="0"/>
        <pt x="728" y="-18" on="0"/>
      </contour>
    </TTGlyph>
    <TTGlyph name="abreve" xMin="66" yMin="-25" xMax="850" yMax="1222">
      <contour>
        <pt x="239" y="1188" on="1"/>
        <pt x="285" y="1221" on="1"/>
        <pt x="293" y="1203" on="1"/>
        <pt x="310" y="1169" on="0"/>
        <pt x="381" y="1119" on="0"/>
        <pt x="428" y="1119" on="1"/>
        <pt x="518" y="1119" on="0"/>
        <pt x="570" y="1205" on="1"/>
        <pt x="580" y="1222" on="1"/>
        <pt x="621" y="1193" on="1"/>
        <pt x="614" y="1174" on="1"/>
        <pt x="591" y="1105" on="0"/>
        <pt x="496" y="1011" on="0"/>
        <pt x="428" y="1011" on="1"/>
        <pt x="354" y="1011" on="0"/>
        <pt x="260" y="1103" on="0"/>
        <pt x="243" y="1169" on="1"/>
      </contour>
      <contour>
        <pt x="527" y="428" on="1"/>
        <pt x="372" y="398" on="0"/>
        <pt x="241" y="291" on="0"/>
        <pt x="241" y="215" on="1"/>
        <pt x="241" y="172" on="0"/>
        <pt x="302" y="99" on="0"/>
        <pt x="354" y="99" on="1"/>
        <pt x="401" y="99" on="0"/>
        <pt x="498" y="155" on="0"/>
        <pt x="527" y="188" on="1"/>
      </contour>
      <contour>
        <pt x="702" y="-18" on="1"/>
        <pt x="623" y="-18" on="0"/>
        <pt x="547" y="63" on="0"/>
        <pt x="547" y="116" on="1"/>
        <pt x="547" y="131" on="1"/>
        <pt x="535" y="131" on="1"/>
        <pt x="523" y="108" on="0"/>
        <pt x="484" y="60" on="0"/>
        <pt x="419" y="8" on="0"/>
        <pt x="320" y="-25" on="0"/>
        <pt x="262" y="-25" on="1"/>
        <pt x="179" y="-25" on="0"/>
        <pt x="66" y="80" on="0"/>
        <pt x="66" y="169" on="1"/>
        <pt x="66" y="226" on="0"/>
        <pt x="119" y="329" on="0"/>
        <pt x="227" y="417" on="0"/>
        <pt x="409" y="477" on="0"/>
        <pt x="527" y="485" on="1"/>
        <pt x="527" y="540" on="1"/>
        <pt x="527" y="594" on="0"/>
        <pt x="511" y="684" on="0"/>
        <pt x="472" y="762" on="0"/>
        <pt x="401" y="804" on="0"/>
        <pt x="350" y="804" on="1"/>
        <pt x="319" y="804" on="0"/>
        <pt x="279" y="780" on="0"/>
        <pt x="258" y="726" on="0"/>
        <pt x="248" y="669" on="0"/>
        <pt x="243" y="623" on="1"/>
        <pt x="241" y="602" on="0"/>
        <pt x="239" y="591" on="1"/>
        <pt x="218" y="591" on="0"/>
        <pt x="189" y="594" on="0"/>
        <pt x="147" y="605" on="0"/>
        <pt x="120" y="626" on="0"/>
        <pt x="100" y="667" on="0"/>
        <pt x="100" y="695" on="1"/>
        <pt x="100" y="747" on="0"/>
        <pt x="214" y="846" on="0"/>
        <pt x="294" y="874" on="1"/>
        <pt x="372" y="901" on="0"/>
        <pt x="442" y="901" on="1"/>
        <pt x="574" y="901" on="0"/>
        <pt x="690" y="753" on="0"/>
        <pt x="690" y="593" on="1"/>
        <pt x="690" y="229" on="1"/>
        <pt x="690" y="159" on="0"/>
        <pt x="732" y="107" on="0"/>
        <pt x="801" y="95" on="1"/>
        <pt x="850" y="87" on="1"/>
        <pt x="839" y="2" on="1"/>
        <pt x="823" y="0" on="0"/>
        <pt x="773" y="-12" on="0"/>
        <pt x="728" y="-18" on="0"/>
      </contour>
    </TTGlyph>
</ttFont>
